<?xml version="1.0" encoding="utf-8"?>
<!-- Generator: Adobe Illustrator 24.1.1, SVG Export Plug-In . SVG Version: 6.00 Build 0)  -->
<svg version="1.1" id="Layer_1" xmlns="http://www.w3.org/2000/svg" xmlns:xlink="http://www.w3.org/1999/xlink" x="0px" y="0px"
	 viewBox="0 0 50 50" style="enable-background:new 0 0 50 50;" xml:space="preserve">
<style type="text/css">
	.st0{display:none;}
	.st1{display:inline;fill:#A9CAFF;}
	.st2{fill:#000080;}
</style>
<g>
	<g class="st0">
		<path class="st1" d="M1.8,35.8l0,2.9c0,0,0.1,1.5,1.6,1.5c1.5,0,7.4,0,7.4,0h15.3l2-3.2v-1.2C28.1,35.8,1.8,35.8,1.8,35.8z"/>
		<path class="st1" d="M5.6,4.6C5.3,4.6,5,4.9,5,5.3s0.3,0.7,0.7,0.7c0.4,0,0.7-0.3,0.7-0.7C6.3,4.9,6,4.6,5.6,4.6z"/>
		<path class="st1" d="M14.2,46.9v1.3h21.6v-1.3c0-0.7-0.5-1.2-1.2-1.2H15.4C14.7,45.7,14.2,46.3,14.2,46.9z"/>
		<path class="st1" d="M1.8,34.3h24.4c0-0.1,0-3.8,0-3.8c0-0.8,0.6-1.4,1.4-1.4h0.6v-1.5h-0.6c-0.8,0-1.4-0.6-1.4-1.4v-3.5
			c0-0.8,0.6-1.4,1.4-1.4h9.7c0.4,0,0.7,0.3,0.7,0.7c0,0.4-0.3,0.7-0.7,0.7h-9.6v3.5h18.2v-3.5h-4.1c-0.4,0-0.7-0.3-0.7-0.7
			s0.3-0.7,0.7-0.7h4.1c0.8,0,1.4,0.6,1.4,1.4v3.5c0,0.8-0.6,1.4-1.4,1.4h-0.6v1.5h0.6c0.8,0,1.4,0.6,1.4,1.4c0,0,0,3.7,0,3.8h1
			V10.2H1.8V34.3z M32.9,25.2h-3.5c-0.4,0-0.7-0.3-0.7-0.7c0-0.4,0.3-0.7,0.7-0.7h3.5c0.4,0,0.7,0.3,0.7,0.7S33.3,25.2,32.9,25.2z
			 M36.5,25.2h-1.1c-0.4,0-0.7-0.3-0.7-0.7c0-0.4,0.3-0.7,0.7-0.7h1.1c0.4,0,0.7,0.3,0.7,0.7C37.2,24.8,36.9,25.2,36.5,25.2z
			 M8.4,28.9H4.7c-0.4,0-0.7-0.3-0.7-0.7s0.3-0.7,0.7-0.7h3.7c0.4,0,0.7,0.3,0.7,0.7C9.1,28.5,8.8,28.9,8.4,28.9z M4.7,24.4h2.1
			c0.4,0,0.7,0.3,0.7,0.7s-0.3,0.7-0.7,0.7H4.7c-0.4,0-0.7-0.3-0.7-0.7C3.9,24.7,4.3,24.4,4.7,24.4z M3.9,22.1
			c0-0.4,0.3-0.7,0.7-0.7h4.9c0.4,0,0.7,0.3,0.7,0.7s-0.3,0.7-0.7,0.7H4.7C4.3,22.8,3.9,22.5,3.9,22.1z M8.5,25.1
			c0-0.4,0.3-0.7,0.7-0.7h6.2c0.4,0,0.7,0.3,0.7,0.7s-0.3,0.7-0.7,0.7H9.3C8.9,25.8,8.5,25.5,8.5,25.1z M20.7,22.8h-8.6
			c-0.4,0-0.7-0.3-0.7-0.7c0-0.4,0.3-0.7,0.7-0.7h8.6c0.4,0,0.7,0.3,0.7,0.7S21.1,22.8,20.7,22.8z M21.6,24.4H24
			c0.4,0,0.7,0.3,0.7,0.7s-0.3,0.7-0.7,0.7h-2.4c-0.4,0-0.7-0.3-0.7-0.7C20.9,24.7,21.2,24.4,21.6,24.4z M20.1,25.1
			c0,0.4-0.3,0.7-0.7,0.7h-1.3c-0.4,0-0.7-0.3-0.7-0.7c0-0.4,0.3-0.7,0.7-0.7h1.3C19.8,24.4,20.1,24.7,20.1,25.1z M15.5,28.9h-4.9
			c-0.4,0-0.7-0.3-0.7-0.7s0.3-0.7,0.7-0.7h4.9c0.4,0,0.7,0.3,0.7,0.7C16.2,28.5,15.9,28.9,15.5,28.9z M24.3,28.9h-6.4
			c-0.4,0-0.7-0.3-0.7-0.7s0.3-0.7,0.7-0.7h6.4c0.4,0,0.7,0.3,0.7,0.7C25,28.5,24.7,28.9,24.3,28.9z M26.7,19.3h-2.1
			c-0.4,0-0.7-0.3-0.7-0.7s0.3-0.7,0.7-0.7h2.1c0.4,0,0.7,0.3,0.7,0.7C27.4,19,27.1,19.3,26.7,19.3z M35.2,19.3H29
			c-0.4,0-0.7-0.3-0.7-0.7s0.3-0.7,0.7-0.7h6.2c0.4,0,0.7,0.3,0.7,0.7C35.9,19,35.6,19.3,35.2,19.3z M38.9,23.7h4.9
			c0.4,0,0.7,0.3,0.7,0.7s-0.3,0.7-0.7,0.7h-4.9c-0.4,0-0.7-0.3-0.7-0.7C38.2,24,38.5,23.7,38.9,23.7z M22.3,14.7h15.2
			c0.4,0,0.7,0.3,0.7,0.7s-0.3,0.7-0.7,0.7H22.3c-0.4,0-0.7-0.3-0.7-0.7C21.6,15,21.9,14.7,22.3,14.7z M17,14.7h2.5
			c0.4,0,0.7,0.3,0.7,0.7s-0.3,0.7-0.7,0.7H17c-0.4,0-0.7-0.3-0.7-0.7C16.3,15,16.6,14.7,17,14.7z M17,17.9h5.2
			c0.4,0,0.7,0.3,0.7,0.7c0,0.4-0.3,0.7-0.7,0.7H17c-0.4,0-0.7-0.3-0.7-0.7C16.3,18.2,16.6,17.9,17,17.9z M11.4,13.8
			c-0.3-0.3-0.3-0.7,0-1c0.3-0.3,0.7-0.3,1,0l2.3,2.3c0.3,0.3,0.3,0.7,0,1l-2.3,2.3c-0.1,0.1-0.3,0.2-0.5,0.2
			c-0.2,0-0.4-0.1-0.5-0.2c-0.3-0.3-0.3-0.7,0-1l1.8-1.8L11.4,13.8z M7.7,17.6L9.5,13c0.1-0.4,0.6-0.6,0.9-0.4s0.6,0.6,0.4,0.9
			l-1.8,4.5c-0.1,0.3-0.4,0.5-0.7,0.5c-0.1,0-0.2,0-0.3,0C7.8,18.4,7.6,17.9,7.7,17.6z M3.7,15.1L6,12.8c0.3-0.3,0.7-0.3,1,0
			c0.3,0.3,0.3,0.7,0,1l-1.8,1.8L7,17.3c0.3,0.3,0.3,0.7,0,1c-0.1,0.1-0.3,0.2-0.5,0.2S6.1,18.5,6,18.3l-2.3-2.3
			c-0.1-0.1-0.2-0.3-0.2-0.5C3.5,15.4,3.6,15.2,3.7,15.1z"/>
		<path class="st1" d="M45.2,37h0.6c0.8,0,1.4,0.6,1.4,1.4v1.7c0.6-0.3,1-0.9,1-1.6v-2.7h-3C45.2,35.8,45.2,37,45.2,37z"/>
		<path class="st1" d="M45.7,30.6H27.5V34h18.2L45.7,30.6L45.7,30.6z M32.9,33h-3.5c-0.4,0-0.7-0.3-0.7-0.7c0-0.4,0.3-0.7,0.7-0.7
			h3.5c0.4,0,0.7,0.3,0.7,0.7C33.6,32.7,33.3,33,32.9,33z M36.5,33h-1.1c-0.4,0-0.7-0.3-0.7-0.7c0-0.4,0.3-0.7,0.7-0.7h1.1
			c0.4,0,0.7,0.3,0.7,0.7C37.2,32.7,36.9,33,36.5,33z M43.8,33h-4.9c-0.4,0-0.7-0.3-0.7-0.7c0-0.4,0.3-0.7,0.7-0.7h4.9
			c0.4,0,0.7,0.3,0.7,0.7C44.6,32.7,44.2,33,43.8,33z"/>
		<path class="st1" d="M30.9,43.4h-3.4c-0.8,0-1.4-0.6-1.4-1.4v-0.3H19v2.6h11.9L30.9,43.4L30.9,43.4z"/>
		<rect x="29.5" y="35.5" class="st1" width="14.2" height="1.5"/>
		<path class="st1" d="M46.5,1.8H3.5c-1,0-1.7,0.8-1.7,1.7v5.2h46.4V3.5C48.2,2.6,47.4,1.8,46.5,1.8z M5.6,7.4c-1.2,0-2.1-1-2.1-2.1
			s1-2.1,2.1-2.1s2.1,1,2.1,2.1C7.8,6.4,6.8,7.4,5.6,7.4z M11,7.4c-1.2,0-2.1-1-2.1-2.1s1-2.1,2.1-2.1s2.1,1,2.1,2.1
			C13.2,6.4,12.2,7.4,11,7.4z M16.4,7.4c-1.2,0-2.1-1-2.1-2.1s1-2.1,2.1-2.1s2.1,1,2.1,2.1S17.6,7.4,16.4,7.4z"/>
		<rect x="29.5" y="27.6" class="st1" width="14.2" height="1.5"/>
		<path class="st1" d="M27.5,41.9h18.2v-3.5H27.5V41.9z M38.9,39.5h4.9c0.4,0,0.7,0.3,0.7,0.7s-0.3,0.7-0.7,0.7h-4.9
			c-0.4,0-0.7-0.3-0.7-0.7C38.2,39.8,38.5,39.5,38.9,39.5z M35.4,39.5h1.1c0.4,0,0.7,0.3,0.7,0.7s-0.3,0.7-0.7,0.7h-1.1
			c-0.4,0-0.7-0.3-0.7-0.7C34.6,39.8,35,39.5,35.4,39.5z M29.4,39.5h3.5c0.4,0,0.7,0.3,0.7,0.7s-0.3,0.7-0.7,0.7h-3.5
			c-0.4,0-0.7-0.3-0.7-0.7C28.7,39.8,29,39.5,29.4,39.5z"/>
		<path class="st1" d="M11,4.6c-0.4,0-0.7,0.3-0.7,0.7s0.3,0.7,0.7,0.7c0.4,0,0.7-0.3,0.7-0.7C11.7,4.9,11.4,4.6,11,4.6z"/>
		<path class="st1" d="M16.4,4.6c-0.4,0-0.7,0.3-0.7,0.7s0.3,0.7,0.7,0.7s0.7-0.3,0.7-0.7S16.8,4.6,16.4,4.6z"/>
	</g>
	<path class="st2" d="M6,18.4c0.1,0.1,0.3,0.2,0.5,0.2s0.4-0.1,0.5-0.2c0.3-0.3,0.3-0.7,0-1l-1.8-1.8L7,13.8c0.3-0.3,0.3-0.7,0-1
		c-0.3-0.3-0.7-0.3-1,0l-2.3,2.3c-0.1,0.1-0.2,0.3-0.2,0.5c0,0.2,0.1,0.4,0.2,0.5L6,18.4z"/>
	<path class="st2" d="M11.4,18.4c0.1,0.1,0.3,0.2,0.5,0.2c0.2,0,0.4-0.1,0.5-0.2l2.3-2.3c0.3-0.3,0.3-0.7,0-1l-2.3-2.3
		c-0.3-0.3-0.7-0.3-1,0c-0.3,0.3-0.3,0.7,0,1l1.8,1.8l-1.8,1.8C11.1,17.6,11.1,18.1,11.4,18.4z"/>
	<path class="st2" d="M8.1,18.5c0.1,0,0.2,0,0.3,0c0.3,0,0.6-0.2,0.7-0.5l1.8-4.5c0.1-0.4,0-0.8-0.4-0.9s-0.8,0-0.9,0.4l-1.8,4.5
		C7.6,17.9,7.8,18.4,8.1,18.5z"/>
	<path class="st2" d="M4.7,22.8h4.9c0.4,0,0.7-0.3,0.7-0.7c0-0.4-0.3-0.7-0.7-0.7H4.7c-0.4,0-0.7,0.3-0.7,0.7
		C3.9,22.5,4.3,22.8,4.7,22.8z"/>
	<path class="st2" d="M20.7,21.4h-8.6c-0.4,0-0.7,0.3-0.7,0.7s0.3,0.7,0.7,0.7h8.6c0.4,0,0.7-0.3,0.7-0.7
		C21.5,21.7,21.1,21.4,20.7,21.4z"/>
	<path class="st2" d="M4.7,25.8h2.1c0.4,0,0.7-0.3,0.7-0.7c0-0.4-0.3-0.7-0.7-0.7H4.7c-0.4,0-0.7,0.3-0.7,0.7
		C3.9,25.5,4.3,25.8,4.7,25.8z"/>
	<path class="st2" d="M18.1,24.4c-0.4,0-0.7,0.3-0.7,0.7s0.3,0.7,0.7,0.7h1.3c0.4,0,0.7-0.3,0.7-0.7c0-0.4-0.3-0.7-0.7-0.7H18.1z"/>
	<path class="st2" d="M16.2,25.1c0-0.4-0.3-0.7-0.7-0.7H9.3c-0.4,0-0.7,0.3-0.7,0.7s0.3,0.7,0.7,0.7h6.2
		C15.9,25.8,16.2,25.5,16.2,25.1z"/>
	<path class="st2" d="M20.9,25.1c0,0.4,0.3,0.7,0.7,0.7H24c0.4,0,0.7-0.3,0.7-0.7c0-0.4-0.3-0.7-0.7-0.7h-2.4
		C21.2,24.4,20.9,24.7,20.9,25.1z"/>
	<path class="st2" d="M17,16.2h2.5c0.4,0,0.7-0.3,0.7-0.7c0-0.4-0.3-0.7-0.7-0.7H17c-0.4,0-0.7,0.3-0.7,0.7S16.6,16.2,17,16.2z"/>
	<path class="st2" d="M22.3,16.2h15.2c0.4,0,0.7-0.3,0.7-0.7c0-0.4-0.3-0.7-0.7-0.7H22.3c-0.4,0-0.7,0.3-0.7,0.7
		S21.9,16.2,22.3,16.2z"/>
	<path class="st2" d="M35.2,17.9H29c-0.4,0-0.7,0.3-0.7,0.7c0,0.4,0.3,0.7,0.7,0.7h6.2c0.4,0,0.7-0.3,0.7-0.7
		C35.9,18.2,35.6,17.9,35.2,17.9z"/>
	<path class="st2" d="M26.7,17.9h-2.1c-0.4,0-0.7,0.3-0.7,0.7c0,0.4,0.3,0.7,0.7,0.7h2.1c0.4,0,0.7-0.3,0.7-0.7
		C27.4,18.2,27.1,17.9,26.7,17.9z"/>
	<path class="st2" d="M17,19.3h5.2c0.4,0,0.7-0.3,0.7-0.7s-0.3-0.7-0.7-0.7H17c-0.4,0-0.7,0.3-0.7,0.7C16.3,19,16.6,19.3,17,19.3z"
		/>
	<path class="st2" d="M15.5,27.4h-4.9c-0.4,0-0.7,0.3-0.7,0.7c0,0.4,0.3,0.7,0.7,0.7h4.9c0.4,0,0.7-0.3,0.7-0.7
		C16.2,27.8,15.9,27.4,15.5,27.4z"/>
	<path class="st2" d="M8.4,27.4H4.7c-0.4,0-0.7,0.3-0.7,0.7c0,0.4,0.3,0.7,0.7,0.7h3.7c0.4,0,0.7-0.3,0.7-0.7
		C9.1,27.8,8.8,27.4,8.4,27.4z"/>
	<path class="st2" d="M24.3,27.4h-6.4c-0.4,0-0.7,0.3-0.7,0.7c0,0.4,0.3,0.7,0.7,0.7h6.4c0.4,0,0.7-0.3,0.7-0.7
		C25,27.8,24.7,27.4,24.3,27.4z"/>
	<path class="st2" d="M32.9,23.7h-3.5c-0.4,0-0.7,0.3-0.7,0.7s0.3,0.7,0.7,0.7h3.5c0.4,0,0.7-0.3,0.7-0.7
		C33.6,24,33.3,23.7,32.9,23.7z"/>
	<path class="st2" d="M38.9,25.2h4.9c0.4,0,0.7-0.3,0.7-0.7c0-0.4-0.3-0.7-0.7-0.7h-4.9c-0.4,0-0.7,0.3-0.7,0.7S38.5,25.2,38.9,25.2
		z"/>
	<path class="st2" d="M36.5,23.7h-1.1c-0.4,0-0.7,0.3-0.7,0.7s0.3,0.7,0.7,0.7h1.1c0.4,0,0.7-0.3,0.7-0.7
		C37.2,24,36.9,23.7,36.5,23.7z"/>
	<path class="st2" d="M32.9,31.6h-3.5c-0.4,0-0.7,0.3-0.7,0.7c0,0.4,0.3,0.7,0.7,0.7h3.5c0.4,0,0.7-0.3,0.7-0.7
		C33.6,31.9,33.3,31.6,32.9,31.6z"/>
	<path class="st2" d="M43.8,31.6h-4.9c-0.4,0-0.7,0.3-0.7,0.7c0,0.4,0.3,0.7,0.7,0.7h4.9c0.4,0,0.7-0.3,0.7-0.7
		C44.6,31.9,44.2,31.6,43.8,31.6z"/>
	<path class="st2" d="M36.5,31.6h-1.1c-0.4,0-0.7,0.3-0.7,0.7c0,0.4,0.3,0.7,0.7,0.7h1.1c0.4,0,0.7-0.3,0.7-0.7
		C37.2,31.9,36.9,31.6,36.5,31.6z"/>
	<path class="st2" d="M29.4,40.9h3.5c0.4,0,0.7-0.3,0.7-0.7s-0.3-0.7-0.7-0.7h-3.5c-0.4,0-0.7,0.3-0.7,0.7
		C28.7,40.6,29,40.9,29.4,40.9z"/>
	<path class="st2" d="M38.9,40.9h4.9c0.4,0,0.7-0.3,0.7-0.7s-0.3-0.7-0.7-0.7h-4.9c-0.4,0-0.7,0.3-0.7,0.7S38.5,40.9,38.9,40.9z"/>
	<path class="st2" d="M35.4,40.9h1.1c0.4,0,0.7-0.3,0.7-0.7s-0.3-0.7-0.7-0.7h-1.1c-0.4,0-0.7,0.3-0.7,0.7S35,40.9,35.4,40.9z"/>
	<path class="st2" d="M46.5,0.4h-43c-1.8,0-3.2,1.4-3.2,3.2v35c0,1.8,1.4,3.2,3.2,3.2h2.7c0.4,0,0.7-0.3,0.7-0.7s-0.3-0.7-0.7-0.7
		H3.5c-1,0-1.7-0.8-1.7-1.7v-2.7h26.3V37h-0.6c-0.8,0-1.4,0.6-1.4,1.4v1.8H10.6c-0.4,0-0.7,0.3-0.7,0.7s0.3,0.7,0.7,0.7h6.9v2.6
		h-2.2c-1.5,0-2.6,1.2-2.6,2.6v1.6c0,0.6,0.4,1,0.9,1.2h22.7c0.5-0.1,0.9-0.6,0.9-1.2v-1.6c0-1.5-1.2-2.6-2.6-2.6h-2.2v-0.9h13.4
		c0.8,0,1.4-0.6,1.4-1.4v-0.3c1.4-0.3,2.5-1.6,2.5-3.1l0.1-35C49.7,1.8,48.3,0.4,46.5,0.4z M27.5,34v-3.5h18.2V34H27.5z M29.5,29.1
		v-1.5h14.2v1.5H29.5z M43.7,35.5V37H29.5v-1.5H43.7z M19,41.7h7.1v0.3c0,0.8,0.6,1.4,1.4,1.4h3.4v0.9H19V41.7z M34.6,45.7
		c0.7,0,1.2,0.5,1.2,1.2v1.3H14.2v-1.3c0-0.7,0.5-1.2,1.2-1.2H34.6z M45.7,41.9H27.5v-3.5h18.2L45.7,41.9L45.7,41.9z M48.2,38.5
		c0,0.7-0.4,1.3-1,1.6v-1.7c0-0.8-0.6-1.4-1.4-1.4h-0.6v-1.2h3C48.2,35.8,48.2,38.5,48.2,38.5z M48.2,34.3h-1c0-0.1,0-3.8,0-3.8
		c0-0.8-0.6-1.4-1.4-1.4h-0.6v-1.5h0.6c0.8,0,1.4-0.6,1.4-1.4v-3.5c0-0.8-0.6-1.4-1.4-1.4h-4.1c-0.4,0-0.7,0.3-0.7,0.7
		c0,0.4,0.3,0.7,0.7,0.7h4.1v3.5H27.5v-3.5h9.6c0.4,0,0.7-0.3,0.7-0.7s-0.3-0.7-0.7-0.7h-9.7c-0.8,0-1.4,0.6-1.4,1.4v3.5
		c0,0.8,0.6,1.4,1.4,1.4h0.6v1.5h-0.6c-0.8,0-1.4,0.6-1.4,1.4c0,0,0,3.7,0,3.8H1.8V10.2h46.4L48.2,34.3L48.2,34.3z M48.2,8.7H1.8
		V3.5c0-1,0.8-1.7,1.7-1.7h42.9c1,0,1.7,0.8,1.7,1.7L48.2,8.7L48.2,8.7z"/>
	<path class="st2" d="M5.6,3.1c-1.2,0-2.1,1-2.1,2.1s1,2.1,2.1,2.1s2.1-1,2.1-2.1C7.8,4.1,6.8,3.1,5.6,3.1z M5.6,5.9
		C5.3,5.9,5,5.6,5,5.3s0.3-0.7,0.7-0.7c0.4,0,0.7,0.3,0.7,0.7C6.3,5.6,6,5.9,5.6,5.9z"/>
	<path class="st2" d="M11,3.1c-1.2,0-2.1,1-2.1,2.1s1,2.1,2.1,2.1s2.1-1,2.1-2.1C13.2,4.1,12.2,3.1,11,3.1z M11,5.9
		c-0.4,0-0.7-0.3-0.7-0.7s0.3-0.7,0.7-0.7c0.4,0,0.7,0.3,0.7,0.7C11.7,5.6,11.4,5.9,11,5.9z"/>
	<path class="st2" d="M16.4,3.1c-1.2,0-2.1,1-2.1,2.1s1,2.1,2.1,2.1s2.1-1,2.1-2.1C18.6,4.1,17.6,3.1,16.4,3.1z M16.4,5.9
		c-0.4,0-0.7-0.3-0.7-0.7s0.3-0.7,0.7-0.7s0.7,0.3,0.7,0.7C17.1,5.6,16.8,5.9,16.4,5.9z"/>
</g>
</svg>
