<?xml version="1.0" encoding="utf-8"?>
<!-- Generator: Adobe Illustrator 24.1.1, SVG Export Plug-In . SVG Version: 6.00 Build 0)  -->
<svg version="1.1" id="Layer_1" xmlns="http://www.w3.org/2000/svg" xmlns:xlink="http://www.w3.org/1999/xlink" x="0px" y="0px"
	 viewBox="0 0 50 50" style="enable-background:new 0 0 50 50;" xml:space="preserve">
<style type="text/css">
	.st0{display:none;}
	.st1{display:inline;fill:#A9CAFF;}
	.st2{fill:#000080;}
</style>
<g>
	<g class="st0">
		<circle class="st1" cx="30.3" cy="29.3" r="18.3"/>
		<path class="st1" d="M30.3,28.2c-0.6,0-1.1,0.5-1.1,1.1c0,0.6,0.5,1.1,1.1,1.1c0.6,0,1.1-0.5,1.1-1.1
			C31.4,28.7,30.9,28.2,30.3,28.2z"/>
		<path class="st1" d="M33.8,5.7c0.8,0,1.4-0.6,1.4-1.4S34.5,3,33.8,3h-7c-0.8,0-1.4,0.6-1.4,1.4s0.6,1.4,1.4,1.4H33.8z"/>
		<path class="st1" d="M30.3,16.1c-7.3,0-13.2,5.9-13.2,13.2c0,7.3,5.9,13.2,13.2,13.2c7.3,0,13.2-5.9,13.2-13.2
			C43.5,22,37.6,16.1,30.3,16.1z M29.3,18.8c0-0.5,0.4-1,1-1c0.5,0,1,0.4,1,1v0.9c0,0.5-0.4,1-1,1s-1-0.4-1-1V18.8z M20.7,30.2h-0.9
			c-0.5,0-1-0.4-1-1c0-0.5,0.4-1,1-1h0.9c0.5,0,1,0.4,1,1C21.7,29.8,21.3,30.2,20.7,30.2z M31.2,39.7c0,0.5-0.4,1-1,1
			c-0.5,0-1-0.4-1-1v-0.9c0-0.5,0.4-1,1-1s1,0.4,1,1V39.7z M37.8,23.1L33,27.9c0.2,0.4,0.3,0.9,0.3,1.3c0,1.7-1.4,3-3,3
			c-1.7,0-3-1.4-3-3c0-0.5,0.1-0.9,0.3-1.3l-2.2-2.2c-0.4-0.4-0.4-1,0-1.4c0.4-0.4,1-0.4,1.4,0l2.2,2.2c0.4-0.2,0.9-0.3,1.3-0.3
			s0.9,0.1,1.3,0.3l4.8-4.8c0.4-0.4,1-0.4,1.4,0C38.2,22.1,38.2,22.7,37.8,23.1z M40.7,30.3h-0.9c-0.5,0-1-0.4-1-1c0-0.5,0.4-1,1-1
			h0.9c0.5,0,1,0.4,1,1S41.3,30.3,40.7,30.3z"/>
		<path class="st1" d="M27.9,9.7c1.6-0.2,3.2-0.2,4.7,0V7.6h-4.7V9.7z"/>
	</g>
	<path class="st2" d="M1,24.9h10.1c-0.3,1.2-0.4,2.5-0.5,3.8H6.3c-0.5,0-1,0.4-1,1s0.4,1,1,1h4.4c0.1,1.3,0.3,2.5,0.6,3.8H4.9
		c-0.5,0-1,0.4-1,1c0,0.5,0.4,1,1,1h7c1,2.5,2.5,4.9,4.5,6.9c3.2,3.2,7.5,5.2,12,5.7C29,49,29.6,49,30.3,49c3.8,0,7.6-1.1,10.8-3.2
		c0.5-0.3,0.6-0.9,0.3-1.4C41,44,40.4,43.9,40,44.2c-7,4.5-16.3,3.6-22.3-2.3c-6.9-6.9-6.9-18.2,0-25.1s18.2-6.9,25.1,0
		c5.9,5.9,6.9,15.3,2.4,22.2c-0.3,0.5-0.2,1.1,0.3,1.4c0.5,0.3,1.1,0.2,1.4-0.3c2.4-3.7,3.5-8.2,3.1-12.7c-0.4-4.5-2.5-8.8-5.7-12
		c-2.7-2.7-6.1-4.5-9.6-5.3V7.5c1.4-0.4,2.5-1.7,2.5-3.2c0-1.8-1.5-3.3-3.3-3.3h-7c-1.8,0-3.3,1.5-3.3,3.3c0,1.6,1.1,2.9,2.5,3.2V10
		c-3.5,0.8-6.9,2.6-9.6,5.3c-0.6,0.6-1.2,1.2-1.7,1.9c0,0,0,0-0.1,0h-7c-0.5,0-1,0.4-1,1s0.4,1,1,1h5.7c-0.7,1.2-1.3,2.5-1.7,3.8H1
		c-0.5,0-1,0.4-1,1C0,24.4,0.4,24.9,1,24.9z M32.6,9.7c-1.6-0.2-3.2-0.2-4.7,0V7.6h4.7V9.7z M25.4,4.3C25.4,3.6,26,3,26.7,3h7
		c0.8,0,1.4,0.6,1.4,1.4s-0.6,1.4-1.4,1.4h-7C26,5.7,25.4,5.1,25.4,4.3z"/>
	<path class="st2" d="M43.5,43.5c0.3,0,0.5-0.1,0.7-0.3c0.2-0.2,0.3-0.4,0.3-0.7c0-0.3-0.1-0.5-0.3-0.7c-0.2-0.2-0.4-0.3-0.7-0.3
		c-0.3,0-0.5,0.1-0.7,0.3c-0.2,0.2-0.3,0.4-0.3,0.7s0.1,0.5,0.3,0.7C43,43.4,43.3,43.5,43.5,43.5z"/>
	<path class="st2" d="M30.3,14.1c-8.4,0-15.1,6.8-15.1,15.1s6.8,15.1,15.1,15.1c8.4,0,15.1-6.8,15.1-15.1S38.6,14.1,30.3,14.1z
		 M30.3,42.5c-7.3,0-13.2-5.9-13.2-13.2c0-7.3,5.9-13.2,13.2-13.2c7.3,0,13.2,5.9,13.2,13.2C43.5,36.5,37.6,42.5,30.3,42.5z"/>
	<path class="st2" d="M36.5,21.7l-4.8,4.8c-0.4-0.2-0.9-0.3-1.3-0.3s-0.9,0.1-1.3,0.3l-2.2-2.2c-0.4-0.4-1-0.4-1.4,0
		c-0.4,0.4-0.4,1,0,1.4l2.2,2.2c-0.2,0.4-0.3,0.9-0.3,1.3c0,1.7,1.4,3,3,3s3-1.4,3-3c0-0.5-0.1-0.9-0.3-1.3l4.8-4.8
		c0.4-0.4,0.4-1,0-1.4C37.5,21.3,36.8,21.3,36.5,21.7z M30.3,30.4c-0.6,0-1.1-0.5-1.1-1.1c0-0.6,0.5-1.1,1.1-1.1
		c0.6,0,1.1,0.5,1.1,1.1C31.4,29.9,30.9,30.4,30.3,30.4z"/>
	<path class="st2" d="M40.7,28.3h-0.9c-0.5,0-1,0.4-1,1c0,0.5,0.4,1,1,1h0.9c0.5,0,1-0.4,1-1S41.3,28.3,40.7,28.3z"/>
	<path class="st2" d="M20.7,28.3h-0.9c-0.5,0-1,0.4-1,1c0,0.5,0.4,1,1,1h0.9c0.5,0,1-0.4,1-1C21.7,28.7,21.3,28.3,20.7,28.3z"/>
	<path class="st2" d="M30.3,20.7c0.5,0,1-0.4,1-1v-0.9c0-0.5-0.4-1-1-1s-1,0.4-1,1v0.9C29.3,20.3,29.7,20.7,30.3,20.7z"/>
	<path class="st2" d="M30.3,37.8c-0.5,0-1,0.4-1,1v0.9c0,0.5,0.4,1,1,1s1-0.4,1-1v-0.9C31.2,38.3,30.8,37.8,30.3,37.8z"/>
	<path class="st2" d="M1,36.3c0.3,0,0.5-0.1,0.7-0.3C1.8,35.8,2,35.6,2,35.3c0-0.3-0.1-0.5-0.3-0.7S1.2,34.3,1,34.3
		c-0.3,0-0.5,0.1-0.7,0.3C0.1,34.8,0,35,0,35.3c0,0.3,0.1,0.5,0.3,0.7C0.5,36.2,0.7,36.3,1,36.3z"/>
</g>
</svg>
