<?xml version="1.0" encoding="utf-8"?>
<!-- Generator: Adobe Illustrator 24.1.1, SVG Export Plug-In . SVG Version: 6.00 Build 0)  -->
<svg version="1.1" id="Capa_1" xmlns="http://www.w3.org/2000/svg" xmlns:xlink="http://www.w3.org/1999/xlink" x="0px" y="0px"
	 viewBox="0 0 50 50" style="enable-background:new 0 0 50 50;" xml:space="preserve">
<style type="text/css">
	.st0{display:none;}
	.st1{display:inline;fill:#A9CAFF;}
	.st2{fill:#000080;}
</style>
<g class="st0">
	<rect x="16.7" y="43.1" class="st1" width="13.4" height="6.4"/>
	<rect x="35" y="43.1" class="st1" width="13.4" height="6.4"/>
	<path class="st1" d="M47.8,25.9H19.4c-1,0-1.9-0.8-1.9-1.9V4.9c0-0.4,0.3-0.7,0.7-0.7h30c0.5,0,0.9,0.4,0.9,0.9v19.5
		C49.2,25.3,48.6,25.9,47.8,25.9z"/>
	<path class="st1" d="M47.5,1.7H18.3c-0.4,0-0.8,0.4-0.8,0.8v0.8h30.8V2.5C48.3,2.1,48,1.7,47.5,1.7z"/>
	<path class="st1" d="M10.3,13.9c-1.2,1-2.8,1.6-4.4,1.6l0,0.7c0.1,1.7,1.5,3,3.2,2.9h0.1c1.7,0,3.1-1.2,3.2-2.9l0-0.8
		C11.5,15.2,10.8,14.7,10.3,13.9z"/>
	<path class="st1" d="M38.4,36.3c0.1,1.7,1.5,3,3.2,2.9h0.1c1.7,0,3.1-1.2,3.2-2.9L45,34c0-0.8-0.3-1.6-0.8-2.2
		c-0.6-0.6-1.5-1-2.4-1h-0.3c-0.9,0-1.7,0.4-2.4,1c-0.6,0.6-0.9,1.4-0.8,2.2L38.4,36.3z"/>
	<path class="st1" d="M24.6,14.2c0.3-0.3,0.3-0.7,0-0.9c-0.3-0.2-0.7-0.2-0.9,0l-9.3,9.3c-0.5,0.5-1.1,0.7-1.8,0.7H4.2
		c-1.4,0-2.5,1.1-2.5,2.5v11.7c0,0.5,0.4,0.8,0.8,0.8s0.8-0.4,0.8-0.8v-10c0-0.5,0.4-0.8,0.8-0.8S5,27,5,27.5V40h8.3V27.3
		c0-0.6,0.2-1.2,0.7-1.7L24.6,14.2C24.6,14.2,24.6,14.2,24.6,14.2z M10,35c0,0.5-0.4,0.8-0.8,0.8S8.3,35.5,8.3,35V25
		c0-0.5,0.4-0.8,0.8-0.8S10,24.5,10,25V35z"/>
	<path class="st1" d="M20.1,36.3c0.1,1.7,1.5,3,3.2,2.9h0.1c1.7,0,3.1-1.2,3.2-2.9l0.1-2.2c0-0.8-0.3-1.6-0.8-2.2
		c-0.6-0.6-1.5-1-2.4-1h-0.3c-0.9,0-1.7,0.4-2.4,1C20.3,32.4,20,33.2,20,34L20.1,36.3z"/>
	<path class="st1" d="M9.8,12c0.2-0.3,0.5-0.5,0.9-0.4c0.4,0.1,0.6,0.4,0.7,0.7c0.1,0.6,0.5,1.1,1.1,1.4c0-0.7-0.3-1.4-0.8-1.9
		c-0.6-0.6-1.5-1-2.4-1H9c-0.9,0-1.7,0.4-2.4,1c-0.5,0.6-0.8,1.3-0.8,2.1C8.8,13.7,9.8,12,9.8,12z"/>
</g>
<path class="st2" d="M4.3,16.3c0.1,2.6,2.3,4.6,4.9,4.5h0.1c2.6,0,4.7-1.9,4.9-4.5l0.1-2.2c0.1-1.3-0.4-2.5-1.3-3.4
	c-0.9-1-2.2-1.5-3.6-1.5H9c-1.3,0-2.6,0.5-3.6,1.5c-0.9,0.9-1.3,2.1-1.3,3.4L4.3,16.3z M12.4,16.3c-0.1,1.7-1.5,3-3.2,2.9H9.1
	c-1.7,0-3.1-1.2-3.2-2.9l0-0.7c1.6-0.1,3.1-0.6,4.4-1.6c0.5,0.8,1.3,1.3,2.2,1.5L12.4,16.3z M6.7,11.8c0.6-0.6,1.5-1,2.4-1h0.3
	c0.9,0,1.7,0.4,2.4,1c0.5,0.5,0.8,1.2,0.8,1.9c-0.6-0.3-1-0.8-1.1-1.4c0-0.4-0.3-0.6-0.7-0.7c-0.4-0.1-0.7,0.1-0.9,0.4
	c0,0-1,1.7-4,1.9C5.8,13.1,6.1,12.4,6.7,11.8z"/>
<path class="st2" d="M41.6,40.8L41.6,40.8c2.6,0,4.8-1.9,4.9-4.5l0.1-2.2c0.1-1.3-0.4-2.5-1.3-3.4c-0.9-1-2.2-1.5-3.6-1.5h-0.3
	c-1.3,0-2.6,0.5-3.6,1.5c-0.9,0.9-1.3,2.1-1.3,3.4l0.1,2.2C36.9,38.9,39.1,40.9,41.6,40.8z M39.2,31.8c0.6-0.6,1.5-1,2.4-1h0.3
	c0.9,0,1.7,0.4,2.4,1c0.6,0.6,0.9,1.4,0.8,2.2l-0.1,2.2c-0.1,1.7-1.5,3-3.2,2.9h-0.1c-1.7,0-3.1-1.2-3.2-2.9L38.3,34
	C38.3,33.2,38.6,32.4,39.2,31.8z"/>
<path class="st2" d="M15,27.3c0-0.2,0.1-0.4,0.2-0.6l10.6-11.4c0.9-0.9,0.9-2.4-0.1-3.3c-0.9-0.9-2.3-0.9-3.2,0l-9.3,9.3
	c-0.2,0.2-0.4,0.2-0.6,0.2H4.2c-2.3,0-4.2,1.9-4.2,4.2v11.7C0,38.9,1.1,40,2.5,40c0.3,0,0.6,0,0.8-0.1v1c0,0.5,0.4,0.8,0.8,0.8h10
	c0.5,0,0.8-0.4,0.8-0.8L15,27.3L15,27.3z M14,25.6c-0.4,0.5-0.7,1.1-0.7,1.7V40H5V27.5c0-0.5-0.4-0.8-0.8-0.8S3.3,27,3.3,27.5v10
	c0,0.5-0.4,0.8-0.8,0.8S1.7,38,1.7,37.5V25.8c0-1.4,1.1-2.5,2.5-2.5h8.5c0.7,0,1.3-0.3,1.8-0.7l9.3-9.3c0.3-0.2,0.7-0.2,0.9,0
	c0.3,0.3,0.2,0.7,0,0.9c0,0,0,0,0,0L14,25.6z"/>
<path class="st2" d="M9.2,24.2c-0.5,0-0.8,0.4-0.8,0.8v10c0,0.5,0.4,0.8,0.8,0.8S10,35.5,10,35V25C10,24.5,9.6,24.2,9.2,24.2z"/>
<path class="st2" d="M23.3,40.8L23.3,40.8c2.6,0,4.8-1.9,4.9-4.5l0.1-2.2c0.1-1.3-0.4-2.5-1.3-3.4c-0.9-1-2.2-1.5-3.6-1.5h-0.3
	c-1.3,0-2.6,0.5-3.6,1.5c-0.9,0.9-1.3,2.1-1.3,3.4l0.1,2.2C18.6,38.9,20.7,40.9,23.3,40.8z M20.8,31.8c0.6-0.6,1.5-1,2.4-1h0.3
	c0.9,0,1.7,0.4,2.4,1c0.6,0.6,0.9,1.4,0.8,2.2l-0.1,2.2c-0.1,1.7-1.5,3-3.2,2.9h-0.1c-1.7,0-3.1-1.2-3.2-2.9L20,34
	C20,33.2,20.3,32.4,20.8,31.8z"/>
<path class="st2" d="M27.6,41.7H19c-2.2,0-4,1.8-4,4v3.5c0,0.5,0.4,0.8,0.8,0.8s0.8-0.4,0.8-0.8v-3.5c0-1.3,1.1-2.4,2.4-2.4h8.6
	c1.3,0,2.4,1.1,2.4,2.4v3.5c0,0.5,0.4,0.8,0.8,0.8s0.8-0.4,0.8-0.8v-3.5C31.7,43.5,29.9,41.7,27.6,41.7z"/>
<path class="st2" d="M46,41.7h-8.6c-2.2,0-4,1.8-4,4v3.5c0,0.5,0.4,0.8,0.8,0.8s0.8-0.4,0.8-0.8v-3.5c0-1.3,1.1-2.4,2.4-2.4H46
	c1.3,0,2.4,1.1,2.4,2.4v3.5c0,0.5,0.4,0.8,0.8,0.8s0.8-0.4,0.8-0.8v-3.5C50,43.5,48.2,41.7,46,41.7z"/>
<path class="st2" d="M47.5,0H18.3c-1.4,0-2.5,1.1-2.5,2.5V15c0,0.5,0.4,0.8,0.8,0.8s0.8-0.4,0.8-0.8V5h30.8v20
	c0,0.4-0.3,0.8-0.8,0.8H19.1c-0.5,0-0.8,0.4-0.8,0.8s0.4,0.8,0.8,0.8h28.4c1.4,0,2.5-1.1,2.5-2.5V2.5C50,1.1,48.9,0,47.5,0z
	 M48.3,3.3H17.5V2.5c0-0.4,0.3-0.8,0.8-0.8h29.3c0.4,0,0.8,0.4,0.8,0.8L48.3,3.3L48.3,3.3z"/>
<path class="st2" d="M45.8,10.6c-0.5,0-0.8,0.4-0.8,0.8v11.9c0,0.5,0.4,0.8,0.8,0.8c0.5,0,0.8-0.4,0.8-0.8V11.5
	C46.7,11,46.3,10.6,45.8,10.6z"/>
<path class="st2" d="M42.5,15.8c-0.5,0-0.8,0.4-0.8,0.8v6.7c0,0.5,0.4,0.8,0.8,0.8s0.8-0.4,0.8-0.8v-6.7
	C43.3,16.2,43,15.8,42.5,15.8z"/>
<path class="st2" d="M38.3,15v8.3c0,0.5,0.4,0.8,0.8,0.8s0.8-0.4,0.8-0.8V15c0-0.5-0.4-0.8-0.8-0.8S38.3,14.5,38.3,15z"/>
<path class="st2" d="M35.8,19.2c-0.5,0-0.8,0.4-0.8,0.8v3.3c0,0.5,0.4,0.8,0.8,0.8s0.8-0.4,0.8-0.8V20
	C36.7,19.5,36.3,19.2,35.8,19.2z"/>
<path class="st2" d="M31.8,19.7c0.3,0.4,0.8,0.4,1.2,0.2l3.3-2.5c0.1-0.1,0.2-0.2,0.3-0.3l2.9-5.8l2.5,1.9c0.4,0.3,0.9,0.2,1.2-0.2
	c0,0,0,0,0,0l3.3-5c0.3-0.4,0.2-0.9-0.2-1.2S45.4,6.7,45.1,7l-2.8,4.3l-2.6-2c-0.4-0.3-0.9-0.2-1.2,0.2c0,0-0.1,0.1-0.1,0.1
	l-3.2,6.5L32,18.5C31.6,18.8,31.6,19.3,31.8,19.7z"/>
<path class="st2" d="M30,8.3c0.5,0,0.8-0.4,0.8-0.8S30.5,6.7,30,6.7H20c-0.5,0-0.8,0.4-0.8,0.8s0.4,0.8,0.8,0.8H30z"/>
<path class="st2" d="M35,8.3c0.5,0,0.8-0.4,0.8-0.8S35.5,6.7,35,6.7h-1.7c-0.5,0-0.8,0.4-0.8,0.8s0.4,0.8,0.8,0.8H35z"/>
</svg>
