<?xml version="1.0" encoding="utf-8"?>
<!-- Generator: Adobe Illustrator 24.1.1, SVG Export Plug-In . SVG Version: 6.00 Build 0)  -->
<svg version="1.1" id="Layer_1" xmlns="http://www.w3.org/2000/svg" xmlns:xlink="http://www.w3.org/1999/xlink" x="0px" y="0px"
	 viewBox="0 0 50 50" style="enable-background:new 0 0 50 50;" xml:space="preserve">
<style type="text/css">
	.st0{fill:#000080;}
	.st1{display:none;}
	.st2{display:inline;fill:#A9CAFF;}
	.st3{fill:#FFFFFF;}
</style>
<g>
	<path class="st0" d="M7.4,33.8c0-1,0-2,0-2.9c0-1.7,1-2.6,2.6-2.7c1.1,0,2.2,0,3.3,0c-0.1-1.5-0.3-3-0.4-4.7
		c-1.2,0.3-2.5,0.6-3.7,1c-0.2,0.1-0.3,0.4-0.5,0.6c-0.6,1-1.5,1.6-2.6,1.4c-1.1-0.2-1.9-1-2-2.1c-0.1-0.9,0.4-2,1.3-2.4
		c1-0.5,2-0.3,2.9,0.5c0.3,0.2,0.8,0.3,1.1,0.3c1-0.2,1.9-0.5,2.8-0.7c1-0.2,1.5-0.6,1.6-1.8c-0.4-0.1-0.8-0.3-1.2-0.4
		c-1.8-0.5-3.7-1-5.5-1.5c-0.4-0.1-0.9,0-1.2,0.2c-1.3,0.9-2.8,0.8-3.6-0.5c-0.8-1.2-0.4-2.8,0.9-3.5c1.3-0.7,2.7-0.1,3.4,1.3
		c0.1,0.3,0.5,0.6,0.8,0.7c2.3,0.6,4.5,1.3,6.8,1.8c0.3,0.1,0.7-0.1,1-0.4c0.1-0.1,0-0.7-0.2-0.9c-3.3-3.3-6.6-6.6-9.9-9.9
		C4.7,7.3,4.2,7.2,3.8,7.2C2.7,7.3,1.7,6.8,1.2,5.9C0.7,4.9,0.9,3.8,1.7,3.1c0.7-0.7,1.9-0.9,2.8-0.4c0.9,0.5,1.4,1.5,1.3,2.5
		c0,0.3,0,0.8,0.1,1c3.4,3.5,6.9,7,10.3,10.4c0.9-0.4,1.1-0.9,0.8-1.8c-0.6-2-1.1-4-1.6-5.9c-0.1-0.4-0.5-0.8-0.9-1
		c-1.3-0.7-1.9-2.1-1.2-3.4c0.7-1.3,2.3-1.7,3.5-0.8c1.2,0.8,1.4,2.4,0.5,3.5C16.9,7.6,16.9,8,17,8.5c0.6,2,1.1,4.1,1.7,6.2
		c1.3-0.4,2.2-1,2.4-2.5c0.1-1,0.7-2-0.4-3c-0.9-0.9-0.4-2.4,0.7-3.1c1.1-0.7,2.5-0.5,3.3,0.6c0.7,1,0.6,2.7-0.5,3.2
		c-1.4,0.7-1.3,2-1.7,3.2c1.5,0,3-0.2,4.5,0c4,0.6,6.9,2.7,8.8,6.2c0.4,0.7,0.8,0.9,1.6,0.9c1-0.1,1.9,0,2.9,0c0.7,0,1-0.3,1-1
		c0-1,0-1.9,0-3c-2.7-0.4-4.9-1.7-6.2-4.2c-0.9-1.7-1.2-3.5-0.9-5.5c0.8-3.9,4.2-6.6,8.2-6.5c3.9,0.1,7.1,3.1,7.7,7.1
		c0.6,4.2-1.9,7.4-7.2,9.1c0,1,0,2,0,3c0,1.6-1,2.6-2.6,2.6c-1.1,0-2.3,0-3.4,0c0.1,1.6,0.3,3.1,0.4,4.6c1.2-0.3,2.3-0.6,3.5-1
		c0.3-0.1,0.5-0.4,0.6-0.6c0.6-1.1,1.5-1.6,2.7-1.4c1,0.2,1.8,1,2,2.1c0.1,0.9-0.4,2-1.3,2.4c-1,0.5-1.9,0.3-2.9-0.4
		c-0.3-0.2-0.8-0.3-1.1-0.3c-1,0.2-1.9,0.5-2.8,0.7c-1,0.2-1.5,0.7-1.5,1.7c0.2,0.1,0.4,0.2,0.7,0.3c2,0.5,4,1.1,6,1.6
		c0.6,0.2,0.9,0.1,1.4-0.3c1.1-1,2.7-0.7,3.5,0.5c0.8,1.2,0.4,2.8-0.9,3.5c-1.3,0.7-2.7,0.1-3.4-1.2c-0.2-0.4-0.6-0.7-0.9-0.8
		c-2.1-0.6-4.3-1.1-6.4-1.8c-0.7-0.2-1.2-0.1-1.5,0.9c0.9,0.8,1.8,1.7,2.7,2.6c2.6,2.5,5.1,5.1,7.6,7.6c0.3,0.3,0.8,0.4,1.2,0.4
		c1.1-0.1,2.1,0.4,2.6,1.4c0.4,0.9,0.3,2-0.4,2.7c-0.7,0.8-1.8,1-2.8,0.5c-1-0.5-1.5-1.5-1.4-2.6c0-0.3,0-0.8-0.2-1
		c-3.3-3.4-6.7-6.8-10.1-10.1c-0.1-0.1-0.2-0.1-0.2-0.2c-0.9,0.4-1,1-0.7,1.9c0.6,1.9,1.1,3.8,1.6,5.7c0.1,0.5,0.3,0.9,0.9,1.1
		c1.4,0.6,1.9,2.1,1.1,3.3c-0.7,1.2-2.2,1.6-3.4,0.8c-1.2-0.8-1.5-2.4-0.5-3.5c0.5-0.5,0.5-0.9,0.3-1.5c-0.6-2-1.1-4-1.6-5.9
		c-2.5,0.4-2.3,2.5-2.8,4.1c0,0.2,0.2,0.4,0.4,0.6c0.8,0.9,1,1.9,0.5,2.9c-0.5,0.9-1.5,1.5-2.5,1.3c-1-0.2-1.8-1-2-2
		c-0.1-1.1,0.4-2,1.4-2.6c0.3-0.2,0.6-0.5,0.7-0.8c0.2-0.6,0.3-1.2,0.5-1.9c-0.3,0-0.6,0-0.8,0c-5.3,0.7-10.1-1.7-12.5-6.3
		c-0.3-0.6-0.7-0.8-1.3-0.8c-1,0.1-2,0-3,0c-0.8,0-1.1,0.3-1.1,1.1c0,1,0,1.9,0,2.9c5.4,1.7,7.9,5,7.2,9.2c-0.7,4.2-4.1,7.1-8.2,7
		c-4-0.1-7.2-3.1-7.8-7.1C-0.4,38.6,2.2,35.3,7.4,33.8z M33.3,31.3c2.8-3,3.5-9.5-0.9-13.8c-4.3-4.1-11.1-3.9-15.1,0.5
		c-4.1,4.5-3,10.8-0.4,13.3c1-2.2,2.7-3.8,4.9-4.8c-2.7-2.7-3.1-5.9-0.9-8.4c2-2.3,5.4-2.6,7.7-0.7c1.2,0.9,1.9,2.2,2.1,3.7
		c0.3,2.2-0.6,4-2.3,5.4C30.7,27.5,32.3,29.1,33.3,31.3z M37,11.9c0.7-0.6,1.5-1.1,2.2-1.7c-1.6-2.4-1.6-4.4,0.1-6
		c1.5-1.4,3.8-1.4,5.3-0.1c1.8,1.5,1.8,3.5,0.2,6c0.7,0.6,1.5,1.1,2.2,1.7c2.1-2.2,1.8-6.2-0.6-8.5C44,1,39.9,1,37.4,3.6
		C35.2,5.9,35,9.9,37,11.9z M5.4,44.1C3.8,42,3.8,40,5.2,38.4c1.4-1.5,3.6-1.8,5.2-0.5c0.7,0.6,1.3,1.5,1.6,2.3
		c0.6,1.5-0.2,2.8-1.1,3.9c0.8,0.6,1.5,1.2,2.3,1.7c2.2-2.8,1.7-6.7-1-8.9c-2.8-2.2-6.9-1.8-9.1,1c-1.9,2.4-1.8,6.3,0.1,7.8
		C3.9,45.2,4.6,44.7,5.4,44.1z M29.2,21.8c0-2.2-1.8-4-4-4s-4,1.8-4,4c0,2.2,1.8,4,4,4C27.4,25.8,29.2,24,29.2,21.8z M21.4,28.5
		c-1.5,0.9-2.6,2.2-3.1,3.8c-0.1,0.2,0,0.6,0.1,0.7c1.6,1.3,3.3,2.1,5.5,2.4c-0.8-2.2-1.5-4.3-2.2-6.3
		C21.6,28.9,21.5,28.7,21.4,28.5z M26.3,35.4c2.2-0.2,3.9-1.1,5.5-2.4c0.1-0.1,0.2-0.4,0.1-0.6c-0.6-1.7-1.6-3-3.2-3.9
		c-0.7,2.1-1.5,4.1-2.2,6.1C26.5,34.7,26.5,35,26.3,35.4z M39.7,7.2c0,1.3,1,2.5,2.4,2.5c1.3,0,2.5-1.1,2.5-2.4c0-1.3-1-2.4-2.3-2.4
		C40.8,4.8,39.7,5.9,39.7,7.2z M5.8,41.2c0,1.3,1.2,2.4,2.5,2.4c1.3,0,2.3-1.1,2.3-2.4c0-1.3-1.1-2.4-2.4-2.4
		C6.8,38.7,5.7,39.9,5.8,41.2z M38.3,13.2c2.2,1.7,5.3,1.7,7.5,0C44,10.6,40.1,10.6,38.3,13.2z M4.4,47.1c2.2,1.7,5.3,1.7,7.5,0
		C10.1,44.5,6.2,44.5,4.4,47.1z M27.3,27.8c-1.5-0.5-2.9-0.5-4.3,0c0.7,2,1.4,3.9,2.1,5.8c0.1,0,0.1,0,0.2,0
		C25.9,31.7,26.6,29.8,27.3,27.8z M48,45.2c-0.5-0.4-0.8-0.8-1-0.8c-0.3,0-0.6,0.5-0.9,0.7c0.3,0.3,0.5,0.7,0.8,0.8
		C47.2,46,47.5,45.6,48,45.2z M4.5,4.7C3.9,4.4,3.6,4,3.3,4.1C3,4.1,2.8,4.6,2.6,4.8c0.3,0.3,0.6,0.7,0.9,0.7C3.7,5.6,4,5.1,4.5,4.7
		z M15.4,6.8c0.4-0.5,0.8-0.8,0.8-1.1c0-0.3-0.5-0.6-0.7-0.9c-0.3,0.2-0.8,0.5-0.8,0.7C14.7,5.9,15.1,6.2,15.4,6.8z M22.7,6.9
		C22.4,7.5,22,7.8,22,8.1c0,0.3,0.5,0.5,0.8,0.7C23,8.6,23.4,8.3,23.5,8C23.5,7.8,23.1,7.4,22.7,6.9z M7.7,24.2
		c-0.5-0.4-0.8-0.8-1.1-0.7c-0.3,0.1-0.6,0.5-0.8,0.8c0.3,0.3,0.5,0.7,0.9,0.7C6.9,25,7.2,24.6,7.7,24.2z M44.8,25.8
		c-0.5-0.4-0.8-0.8-1.1-0.7c-0.3,0.1-0.7,0.5-0.8,0.8c0,0.2,0.4,0.7,0.7,0.7C43.9,26.5,44.2,26.1,44.8,25.8z M46.1,31.9
		c-0.4,0.5-0.8,0.9-0.8,1.2c0,0.3,0.4,0.5,0.7,0.8c0.3-0.3,0.7-0.5,0.8-0.8C46.9,32.8,46.5,32.4,46.1,31.9z M28.6,41.9
		c-0.5-0.4-0.9-0.8-1.1-0.7c-0.3,0.1-0.7,0.5-0.8,0.8c0,0.2,0.5,0.7,0.7,0.7C27.8,42.6,28.1,42.3,28.6,41.9z M35.9,44.4
		c-0.5-0.4-0.8-0.8-1-0.8c-0.3,0-0.7,0.4-0.8,0.7c-0.1,0.2,0.4,0.7,0.7,0.8C35,45.1,35.3,44.7,35.9,44.4z"/>
	<g>
		<g class="st1">
			<path class="st2" d="M33.3,31.3c-1-2.2-2.6-3.8-4.9-4.8c1.7-1.5,2.6-3.2,2.3-5.4c-0.2-1.5-0.9-2.7-2.1-3.7
				c-2.4-1.9-5.7-1.5-7.7,0.7c-2.1,2.4-1.8,5.6,0.9,8.4c-2.2,1-3.9,2.6-4.9,4.8c-2.6-2.5-3.7-8.8,0.4-13.3c4-4.4,10.8-4.7,15.1-0.5
				C36.8,21.8,36.2,28.2,33.3,31.3z"/>
			<path class="st2" d="M37,11.9c-2.1-2.1-1.9-6,0.4-8.4C39.9,1,44,1,46.5,3.4c2.4,2.3,2.7,6.3,0.6,8.5c-0.7-0.6-1.5-1.1-2.2-1.7
				c1.6-2.5,1.6-4.5-0.2-6c-1.6-1.3-3.8-1.3-5.3,0.1c-1.7,1.5-1.7,3.6-0.1,6C38.5,10.8,37.8,11.4,37,11.9z"/>
			<path class="st2" d="M5.4,44.1c-0.8,0.6-1.5,1.1-2.2,1.7c-1.9-1.5-2-5.4-0.1-7.8c2.2-2.8,6.3-3.3,9.1-1c2.8,2.2,3.2,6.2,1,8.9
				c-0.7-0.6-1.4-1.1-2.3-1.7c0.9-1.1,1.6-2.4,1.1-3.9c-0.3-0.9-0.9-1.8-1.6-2.3c-1.6-1.3-3.8-1-5.2,0.5C3.8,40,3.8,42,5.4,44.1z"/>
			<path class="st2" d="M29.2,21.8c0,2.2-1.8,4-4,4c-2.2,0-4-1.8-4-4c0-2.2,1.8-4,4-4C27.3,17.7,29.1,19.5,29.2,21.8z"/>
			<path class="st2" d="M21.4,28.5c0.1,0.2,0.2,0.4,0.3,0.6c0.7,2,1.5,4.1,2.2,6.3c-2.2-0.2-4-1.1-5.5-2.4c-0.1-0.1-0.2-0.5-0.1-0.7
				C18.9,30.7,19.9,29.4,21.4,28.5z"/>
			<path class="st2" d="M26.3,35.4c0.1-0.4,0.2-0.6,0.3-0.9c0.7-2,1.4-4,2.2-6.1c1.6,1,2.6,2.2,3.2,3.9c0.1,0.2,0,0.5-0.1,0.6
				C30.3,34.3,28.5,35.1,26.3,35.4z"/>
			<path class="st2" d="M39.7,7.2c0-1.3,1.2-2.4,2.5-2.3c1.3,0.1,2.3,1.2,2.3,2.4c0,1.3-1.2,2.4-2.5,2.4C40.7,9.6,39.6,8.5,39.7,7.2
				z"/>
			<path class="st2" d="M5.8,41.2c0-1.3,1.1-2.4,2.4-2.5c1.3,0,2.4,1.1,2.4,2.4c0,1.3-1.1,2.4-2.3,2.4C6.9,43.6,5.8,42.5,5.8,41.2z"
				/>
			<path class="st2" d="M38.3,13.2c1.8-2.6,5.7-2.6,7.5,0C43.6,15,40.5,15,38.3,13.2z"/>
			<path class="st2" d="M4.4,47.1c1.8-2.6,5.7-2.6,7.5,0C9.7,48.8,6.6,48.8,4.4,47.1z"/>
			<path class="st2" d="M27.3,27.8c-0.7,2-1.4,3.9-2.1,5.8c-0.1,0-0.1,0-0.2,0c-0.7-1.9-1.4-3.8-2.1-5.8
				C24.4,27.3,25.8,27.3,27.3,27.8z"/>
		</g>
		<path class="st3" d="M48,45.2c-0.5,0.3-0.8,0.8-1.1,0.7c-0.3-0.1-0.6-0.5-0.8-0.8c0.3-0.3,0.6-0.7,0.9-0.7
			C47.2,44.4,47.5,44.8,48,45.2z"/>
		<path class="st3" d="M4.5,4.7C4,5.1,3.7,5.6,3.4,5.5c-0.3,0-0.6-0.5-0.9-0.7C2.8,4.6,3,4.1,3.3,4.1C3.6,4,3.9,4.4,4.5,4.7z"/>
		<path class="st3" d="M15.4,6.8c-0.3-0.6-0.7-0.9-0.7-1.2c0-0.3,0.5-0.5,0.8-0.7c0.3,0.3,0.7,0.6,0.7,0.9C16.2,6,15.8,6.3,15.4,6.8
			z"/>
		<path class="st3" d="M22.7,6.9c0.4,0.5,0.8,0.8,0.8,1.1c-0.1,0.3-0.5,0.6-0.7,0.9C22.5,8.6,22,8.4,22,8.1
			C22,7.8,22.4,7.5,22.7,6.9z"/>
		<path class="st3" d="M5.3,16.9c-0.5,0.4-0.8,0.8-1,0.8c-0.3-0.1-0.6-0.5-0.9-0.7c0.3-0.3,0.5-0.7,0.8-0.8
			C4.5,16.1,4.8,16.6,5.3,16.9z"/>
		<path class="st3" d="M7.7,24.2c-0.5,0.4-0.8,0.8-1,0.8c-0.3-0.1-0.6-0.5-0.9-0.7c0.3-0.3,0.5-0.7,0.8-0.8
			C6.9,23.4,7.2,23.8,7.7,24.2z"/>
		<path class="st3" d="M44.8,25.8c-0.5,0.4-0.9,0.8-1.2,0.8c-0.2,0-0.7-0.5-0.7-0.7c0.1-0.3,0.5-0.7,0.8-0.8
			C43.9,25,44.3,25.4,44.8,25.8z"/>
		<path class="st3" d="M46.1,31.9c0.4,0.6,0.8,0.9,0.7,1.1c-0.1,0.3-0.5,0.6-0.8,0.8c-0.2-0.3-0.7-0.5-0.7-0.8
			C45.3,32.7,45.7,32.4,46.1,31.9z"/>
		<path class="st3" d="M28.6,41.9c-0.5,0.4-0.8,0.8-1.2,0.8c-0.2,0-0.7-0.5-0.7-0.7c0.1-0.3,0.4-0.7,0.8-0.8
			C27.8,41.1,28.1,41.5,28.6,41.9z"/>
		<path class="st3" d="M35.9,44.4c-0.6,0.3-0.9,0.7-1.2,0.7c-0.2,0-0.7-0.6-0.7-0.8c0.1-0.3,0.5-0.7,0.8-0.7
			C35.1,43.6,35.4,44,35.9,44.4z"/>
		<circle class="st3" cx="3.4" cy="4.8" r="1.1"/>
		<circle class="st3" cx="15.5" cy="5.8" r="1.1"/>
		<circle class="st3" cx="22.7" cy="7.9" r="1.1"/>
		<circle class="st3" cx="4.3" cy="16.9" r="1.1"/>
		<circle class="st3" cx="6.8" cy="24.2" r="1.1"/>
		<circle class="st3" cx="6.8" cy="24.2" r="1.1"/>
		<circle class="st3" cx="27.7" cy="41.9" r="1.1"/>
		<circle class="st3" cx="35" cy="44.4" r="1.1"/>
		<circle class="st3" cx="47.1" cy="45.2" r="1.1"/>
		<circle class="st3" cx="46.1" cy="32.9" r="1.1"/>
		<circle class="st3" cx="43.8" cy="25.8" r="1.1"/>
	</g>
</g>
</svg>
