<?xml version="1.0" encoding="utf-8"?>
<!-- Generator: Adobe Illustrator 24.1.1, SVG Export Plug-In . SVG Version: 6.00 Build 0)  -->
<svg version="1.1" id="Layer_1" xmlns="http://www.w3.org/2000/svg" xmlns:xlink="http://www.w3.org/1999/xlink" x="0px" y="0px"
	 viewBox="0 0 50 50" style="enable-background:new 0 0 50 50;" xml:space="preserve">
<style type="text/css">
	.st0{display:none;}
	.st1{display:inline;fill:#A9CAFF;}
	.st2{fill:#000080;}
</style>
<g>
	<g class="st0">
		<path class="st1" d="M17.7,26.6c0,2.3-1.1,4.3-2.7,5.6h3.8l-0.7-1.2l0.2-0.4c0.2-0.5,0.4-0.9,0.6-1.4l0.1-0.4l1.9-0.5v-3.6
			l-1.9-0.5l-0.1-0.4c-0.1-0.5-0.3-0.9-0.6-1.4l-0.2-0.4l1-1.7l-2.5-2.5l-1.7,1l-0.4-0.2c-0.5-0.2-0.9-0.4-1.4-0.6L12.8,18l-0.5-1.9
			H8.1v3.7c0.8-0.3,1.6-0.4,2.4-0.4C14.5,19.4,17.7,22.6,17.7,26.6z"/>
		<path class="st1" d="M14.1,16.8c0.3,0.1,0.5,0.2,0.8,0.3l2-1.2l4.3,4.3l-1.2,2c0.1,0.3,0.2,0.5,0.3,0.8l2.3,0.6v6.1l-2.3,0.6
			c-0.1,0.3-0.2,0.5-0.3,0.8l0.7,1.2H29V19.9l3.7-6c0.4-0.7,1.1-1.1,1.9-1.1s1.5,0.4,1.9,1.1l3.7,6v12.3h1.6v-21H8.1v3.2h5.5
			L14.1,16.8z"/>
		<path class="st1" d="M41.9,2.4c0-0.4-0.4-0.8-0.8-0.8H8.9C8.4,1.6,8.1,2,8.1,2.4v7.3h33.9L41.9,2.4L41.9,2.4z M14.5,8.1H9.7V3.2
			h4.8C14.5,3.2,14.5,8.1,14.5,8.1z M21,8.1h-4.8V3.2H21V8.1z M27.4,8.1h-4.8V3.2h4.8V8.1z"/>
		<path class="st1" d="M34.1,14.8l-2.8,4.5h6.8l-2.8-4.5C35,14.4,34.4,14.4,34.1,14.8z"/>
		<rect x="17.7" y="4.8" class="st1" width="1.6" height="1.6"/>
		<rect x="11.3" y="4.8" class="st1" width="1.6" height="1.6"/>
		<rect x="24.2" y="4.8" class="st1" width="1.6" height="1.6"/>
		<rect x="43.5" y="9.7" class="st1" width="1.6" height="22.6"/>
		<path class="st1" d="M30.6,32.3h8.1V21h-8.1V32.3z M33.9,22.6h1.6v1.6h-1.6V22.6z M33.9,25.8h1.6v1.6h-1.6V25.8z M33.9,29h1.6v1.6
			h-1.6V29z"/>
		<path class="st1" d="M20.1,40.3c-0.1,1.2-0.5,2.3-1.2,3.2h12.1c-0.7-0.9-1.1-2-1.2-3.2H20.1z"/>
		<path class="st1" d="M16.1,26.6c0-3.1-2.5-5.6-5.6-5.6c-0.8,0-1.7,0.2-2.4,0.6v1.9c0.7-0.5,1.5-0.8,2.4-0.8c2.2,0,4,1.8,4,4
			c0,2.2-1.8,4-4,4c-0.9,0-1.7-0.3-2.4-0.8v2.4h2.4C13.6,32.3,16.1,29.7,16.1,26.6z"/>
		<path class="st1" d="M46,6.5h-2.4v1.6h1.6c0.9,0,1.6,0.7,1.6,1.6v22.6c0,0.9-0.7,1.6-1.6,1.6H4.8c-0.9,0-1.6-0.7-1.6-1.6V9.7
			c0-0.9,0.7-1.6,1.6-1.6h1.6V6.5H4c-1.3,0-2.4,1.1-2.4,2.4v27.4c0,1.3,1.1,2.4,2.4,2.4H46c1.3,0,2.4-1.1,2.4-2.4V8.9
			C48.4,7.5,47.3,6.5,46,6.5z M6.5,37.1H4.8v-1.6h1.6V37.1z M9.7,37.1H8.1v-1.6h1.6L9.7,37.1L9.7,37.1z M12.9,37.1h-1.6v-1.6h1.6
			V37.1z"/>
		<rect x="4.8" y="9.7" class="st1" width="1.6" height="22.6"/>
		<circle class="st1" cx="10.5" cy="26.6" r="2.4"/>
		<path class="st1" d="M12.1,47.6c0,0.4,0.4,0.8,0.8,0.8h24.2c0.4,0,0.8-0.4,0.8-0.8c0-1.3-1.1-2.4-2.4-2.4h-21
			C13.2,45.2,12.1,46.2,12.1,47.6z"/>
	</g>
	<rect x="11.3" y="35.5" class="st2" width="1.6" height="1.6"/>
	<rect x="4.8" y="35.5" class="st2" width="1.6" height="1.6"/>
	<rect x="8.1" y="35.5" class="st2" width="1.6" height="1.6"/>
	<path class="st2" d="M46,4.8h-2.4V2.4c0-1.3-1.1-2.4-2.4-2.4H8.9C7.5,0,6.5,1.1,6.5,2.4v2.4H4c-2.2,0-4,1.8-4,4v27.4
		c0,2.2,1.8,4,4,4h14.5c-0.1,1.3-0.8,2.5-1.9,3.2h-2.1c-2.2,0-4,1.8-4,4c0,1.3,1.1,2.4,2.4,2.4h24.2c1.3,0,2.4-1.1,2.4-2.4
		c0-2.2-1.8-4-4-4h-2.2c-1-0.8-1.7-1.9-1.9-3.2H46c2.2,0,4-1.8,4-4V8.9C50,6.6,48.2,4.8,46,4.8z M43.5,9.7h1.6v22.6h-1.6V9.7z
		 M8.1,2.4c0-0.4,0.4-0.8,0.8-0.8h32.3c0.4,0,0.8,0.4,0.8,0.8v7.3H8.1V2.4z M8.1,11.3h33.9v21h-1.6V19.9l-3.7-6
		c-0.4-0.7-1.1-1.1-1.9-1.1s-1.5,0.4-1.9,1.1l-3.7,6v12.3h-8.4L20,31c0.1-0.3,0.2-0.5,0.3-0.8l2.3-0.6v-6.1L20.3,23
		c-0.1-0.3-0.2-0.5-0.3-0.8l1.2-2l-4.3-4.3l-2,1.2c-0.3-0.1-0.5-0.2-0.8-0.3l-0.6-2.3H8.1V11.3z M38.7,21v11.3h-8.1V21
		C30.6,21,38.7,21,38.7,21z M31.3,19.4l2.8-4.5c0.2-0.4,0.9-0.4,1.1,0l2.8,4.5H31.3z M8.1,16.1h4.2l0.5,1.9l0.4,0.1
		c0.5,0.1,0.9,0.3,1.4,0.6l0.4,0.2l1.7-1l2.5,2.5l-1,1.7l0.2,0.4c0.2,0.5,0.4,0.9,0.6,1.4l0.1,0.4l1.9,0.5v3.6l-1.9,0.5l-0.1,0.4
		c-0.1,0.5-0.3,0.9-0.6,1.4l-0.2,0.4l0.7,1.2H15c1.6-1.3,2.7-3.4,2.7-5.6c0-4-3.3-7.3-7.3-7.3c-0.8,0-1.6,0.2-2.4,0.4
		C8.1,19.8,8.1,16.1,8.1,16.1z M8.1,29.8c0.7,0.5,1.5,0.8,2.4,0.8c2.2,0,4-1.8,4-4c0-2.2-1.8-4-4-4c-0.9,0-1.7,0.3-2.4,0.8v-1.9
		c0.8-0.4,1.6-0.6,2.4-0.6c3.1,0,5.6,2.5,5.6,5.6s-2.5,5.6-5.6,5.6H8.1V29.8z M8.1,26.6c0-1.3,1.1-2.4,2.4-2.4s2.4,1.1,2.4,2.4
		c0,1.3-1.1,2.4-2.4,2.4S8.1,27.9,8.1,26.6z M35.5,45.2c1.3,0,2.4,1.1,2.4,2.4c0,0.4-0.4,0.8-0.8,0.8H12.9c-0.4,0-0.8-0.4-0.8-0.8
		c0-1.3,1.1-2.4,2.4-2.4H35.5z M18.9,43.5c0.7-0.9,1.1-2,1.2-3.2h9.7c0.1,1.2,0.5,2.3,1.2,3.2H18.9z M48.4,36.3
		c0,1.3-1.1,2.4-2.4,2.4H4c-1.3,0-2.4-1.1-2.4-2.4V8.9c0-1.3,1.1-2.4,2.4-2.4h2.4v1.6H4.8C4,8.1,3.2,8.8,3.2,9.7v22.6
		c0,0.9,0.7,1.6,1.6,1.6h40.3c0.9,0,1.6-0.7,1.6-1.6V9.7c0-0.9-0.7-1.6-1.6-1.6h-1.6V6.5H46c1.3,0,2.4,1.1,2.4,2.4V36.3z M6.5,9.7
		v22.6H4.8V9.7H6.5z"/>
	<path class="st2" d="M9.7,8.1h4.8V3.2H9.7V8.1z M11.3,4.8h1.6v1.6h-1.6V4.8z"/>
	<path class="st2" d="M16.1,8.1H21V3.2h-4.8V8.1z M17.7,4.8h1.6v1.6h-1.6V4.8z"/>
	<path class="st2" d="M22.6,8.1h4.8V3.2h-4.8V8.1z M24.2,4.8h1.6v1.6h-1.6V4.8z"/>
	<rect x="33.9" y="29" class="st2" width="1.6" height="1.6"/>
	<rect x="33.9" y="22.6" class="st2" width="1.6" height="1.6"/>
	<rect x="33.9" y="25.8" class="st2" width="1.6" height="1.6"/>
</g>
</svg>
