<?xml version="1.0" encoding="utf-8"?>
<!-- Generator: Adobe Illustrator 24.1.1, SVG Export Plug-In . SVG Version: 6.00 Build 0)  -->
<svg version="1.1" id="Layer_1" xmlns="http://www.w3.org/2000/svg" xmlns:xlink="http://www.w3.org/1999/xlink" x="0px" y="0px"
	 viewBox="0 0 50 50" style="enable-background:new 0 0 50 50;" xml:space="preserve">
<style type="text/css">
	.st0{display:none;fill:#CACACA;}
	.st1{display:none;fill:#A9CAFF;}
	.st2{fill:#000080;}
</style>
<g>
	<path class="st0" d="M13.1,41.2c-0.3-0.1-0.6-0.1-0.9,0.2c-0.2,0.2-0.3,0.6-0.2,0.9c0.1,0.3,0.4,0.5,0.7,0.5c0.4,0,0.8-0.4,0.8-0.8
		C13.6,41.6,13.4,41.3,13.1,41.2z"/>
	<path class="st0" d="M36.9,48.3c0.3,0.1,0.6,0.1,0.9-0.2c0.2-0.2,0.3-0.6,0.2-0.9c-0.1-0.3-0.4-0.5-0.7-0.5c-0.4,0-0.8,0.4-0.8,0.8
		C36.4,47.9,36.6,48.2,36.9,48.3z"/>
	<path class="st0" d="M25.3,46.8c-0.3-0.1-0.6-0.1-0.9,0.2c-0.2,0.2-0.3,0.6-0.2,0.9c0.1,0.3,0.4,0.5,0.7,0.5c0.4,0,0.8-0.4,0.8-0.8
		C25.8,47.3,25.6,47,25.3,46.8z"/>
	<path class="st1" d="M38.8,10.5c-0.3,0-0.6-0.2-0.8-0.5c-2-5.6-7.7-9.1-13.6-8.2C18.5,2.6,14,7.6,13.7,13.6c0,0.3-0.1,0.5-0.4,0.6
		c-0.2,0.1-0.5,0.2-0.7,0.1c-3.5-1.4-7.5-0.1-9.6,3s-1.8,7.3,0.8,10c0,0,0.1,0.1,0.1,0.1c1.5,1.6,3.6,2.4,5.8,2.4h29
		c2.5,0,4.9-1,6.7-2.7c1.9-1.8,3-4.3,3-7C48.4,14.8,44.1,10.5,38.8,10.5z"/>
	<path class="st2" d="M39.3,8.9c-2.4-6-8.5-9.6-14.9-8.8C18,1,13,6,12.2,12.4C8,11.3,3.6,13.1,1.4,16.8s-1.7,8.5,1.3,11.6
		c0,0,0.1,0.1,0.1,0.1c1.8,1.9,4.3,2.9,6.9,2.9h8.9v9.7h-3.5c-0.4-1.1-1.5-1.8-2.7-1.6s-2,1.2-2,2.4s0.8,2.2,2,2.4
		c1.2,0.2,2.3-0.5,2.7-1.6h4.3c0.4,0,0.8-0.4,0.8-0.8V31.5h4v13.8c-1.1,0.4-1.8,1.5-1.6,2.7c0.2,1.2,1.2,2,2.4,2s2.2-0.8,2.4-2
		c0.2-1.2-0.5-2.3-1.6-2.7V31.5h4v16.1c0,0.4,0.4,0.8,0.8,0.8h4.3c0.4,1.1,1.5,1.8,2.7,1.6s2-1.2,2-2.4s-0.8-2.2-2-2.4
		c-1.2-0.2-2.3,0.5-2.7,1.6h-3.5V31.5h7.3c6.2,0,11.3-5.1,11.3-11.3C50,14.2,45.3,9.2,39.3,8.9z M12.8,42.7c-0.3,0-0.6-0.2-0.7-0.5
		c-0.1-0.3-0.1-0.6,0.2-0.9c0.2-0.2,0.6-0.3,0.9-0.2s0.5,0.4,0.5,0.7C13.6,42.4,13.2,42.7,12.8,42.7z M37.2,46.8
		c0.3,0,0.6,0.2,0.7,0.5c0.1,0.3,0.1,0.6-0.2,0.9c-0.2,0.2-0.6,0.3-0.9,0.2c-0.3-0.1-0.5-0.4-0.5-0.7C36.4,47.1,36.8,46.8,37.2,46.8
		z M25,48.4c-0.3,0-0.6-0.2-0.7-0.5c-0.1-0.3-0.1-0.6,0.2-0.9c0.2-0.2,0.6-0.3,0.9-0.2s0.5,0.4,0.5,0.7C25.8,48,25.4,48.4,25,48.4z
		 M45.4,27.1c-1.8,1.7-4.2,2.7-6.7,2.7h-29c-2.2,0-4.3-0.9-5.8-2.4c0,0-0.1-0.1-0.1-0.1c-2.6-2.7-2.9-6.9-0.8-10
		c2.1-3.1,6.1-4.4,9.6-3c0.2,0.1,0.5,0.1,0.7-0.1c0.2-0.1,0.4-0.4,0.4-0.6c0.3-6,4.7-10.9,10.7-11.8C30.3,0.9,36,4.3,38,9.9
		c0.1,0.3,0.4,0.5,0.8,0.5c5.3,0,9.6,4.4,9.6,9.7C48.4,22.8,47.3,25.3,45.4,27.1z"/>
</g>
</svg>
