<?xml version="1.0" encoding="utf-8"?>
<!-- Generator: Adobe Illustrator 23.0.1, SVG Export Plug-In . SVG Version: 6.00 Build 0)  -->
<svg version="1.1" id="Layer_1" xmlns:v="https://vecta.io/nano"
	 xmlns="http://www.w3.org/2000/svg" xmlns:xlink="http://www.w3.org/1999/xlink" x="0px" y="0px" viewBox="0 0 100 100"
	 style="enable-background:new 0 0 100 100;" xml:space="preserve">
<style type="text/css">
	.st0{fill:#DBDDE1;}
	.st1{fill:#A9CAFF;stroke:#A9CAFF;stroke-miterlimit:10;}
	.st2{fill:#A9CAFF;}
	.st3{fill:#393939;}
</style>
<path class="st0" d="M50,5.5c0.6,0,1.2,0.2,1.8,0.5l35.5,20.5c1.1,0.6,1.8,1.8,1.8,3v41c0,1.3-0.7,2.4-1.8,3L51.8,94
	c-0.5,0.3-1.1,0.5-1.8,0.5c-0.6,0-1.2-0.2-1.8-0.5L12.8,73.5c-1.1-0.6-1.8-1.8-1.8-3v-41c0-1.3,0.7-2.4,1.8-3L48.2,6
	C48.8,5.7,49.4,5.5,50,5.5 M50,2.1c-1.2,0-2.4,0.3-3.5,0.9L11.1,23.5c-2.1,1.2-3.5,3.5-3.5,6v41c0,2.5,1.3,4.8,3.5,6L46.5,97
	c1.1,0.6,2.3,0.9,3.5,0.9s2.4-0.3,3.5-0.9L89,76.5c2.1-1.2,3.5-3.5,3.5-6v-41c0-2.5-1.3-4.8-3.5-6L53.5,3C52.4,2.4,51.2,2.1,50,2.1
	L50,2.1z"/>
<path class="st1" d="M50,37.8c-1.5,0-2.7-1.2-2.7-2.7s1.2-2.7,2.7-2.7s2.7,1.2,2.7,2.7S51.5,37.8,50,37.8z M50,33.5
	c-0.9,0-1.6,0.7-1.6,1.6l0,0c0,0.9,0.7,1.6,1.6,1.6c0.9,0,1.6-0.7,1.6-1.6S50.9,33.5,50,33.5L50,33.5z M54.8,32.8
	c-1.7-1.5-3.4-2.2-5.2-2.1c-2.6,0.1-4.3,2.1-4.4,2.1L44.4,32c0.1-0.1,2.1-2.3,5.2-2.5c2.1-0.1,4.1,0.7,6,2.4L54.8,32.8z M57.1,29.9
	c-3.2-2.9-6.5-3.8-9.9-2.7c-2.6,0.9-4.2,2.6-4.3,2.7l-0.8-0.8c0.1-0.1,3.1-3.3,7.5-3.5c2.9-0.1,5.6,1.1,8.2,3.5L57.1,29.9z
	 M59.4,27.6c-3.3-3.3-6.7-4.9-10.1-4.7c-5.1,0.3-8.6,4.6-8.6,4.6l-0.9-0.7c0.2-0.2,3.8-4.7,9.4-5c3.7-0.2,7.4,1.5,10.9,5L59.4,27.6z
	"/>
<path class="st2" d="M59.7,42.5c1.9,0.4,3.6,1.5,4.7,3.1c2.8,4.2,6.1,9.4,7.8,12.2c0.7,1.2,1.1,2.5,1.1,3.9v9.8l-0.2,0.2
	c-1.4,1.4-3.3,2.2-5.2,2.2h-0.1l-39-0.3l-0.2-0.2c-1.4-1.4-2.2-3.3-2.2-5.2v-6.4c0-1.4,0.4-2.7,1.1-3.9l7.7-12.3
	c1-1.7,2.6-2.8,4.5-3.2"/>
<path class="st3" d="M40.1,43.4c-1.6,0.4-2.9,1.3-3.8,2.7l-7.7,12.3c-0.6,1-0.9,2.1-0.9,3.3v6.4c0,1.6,0.6,3.1,1.7,4.2l38.5,0.3
	c1.6,0,3.1-0.6,4.3-1.7v-9.3c0-1.2-0.3-2.3-0.9-3.3l-7.8-12.1c-0.9-1.4-2.3-2.3-4-2.6"/>
<path class="st2" d="M61.7,55.7H37.4c-2.2,0-4.3-0.7-6.1-1.9L31,53.5l0.7-0.9l0.4,0.3c1.6,1.1,3.5,1.7,5.4,1.7h24.2
	c1.9,0,3.7-0.5,5.2-1.6l0.9-0.6l0.6,1L67.5,54C65.8,55.1,63.7,55.7,61.7,55.7z M54.7,66.6H44.2L42,60.9h14.9L54.7,66.6z M45,65.5h9
	l1.3-3.4H43.7L45,65.5z M40,65.5h-9.2v-6.4l9.2,0.7V65.5z M32,64.4h6.9v-3.5L32,60.4V64.4z M68.7,65.5h-9.2v-5.7l9.2-0.7V65.5z
	 M60.7,64.4h6.9v-4l-6.9,0.5C60.7,60.9,60.7,64.4,60.7,64.4z M68.2,69.5H30.7l-3.8-1.7l0.4-1.1l3.7,1.7h37l4.5-1.7l0.4,1.1
	L68.2,69.5z M30.8,77.5v-4.9h8.6v4.9"/>
<path class="st3" d="M38.3,76.6v-2.7H32v2.7"/>
<path class="st2" d="M60.1,77.3l0.2-4.6h8.4v4.6"/>
<path class="st3" d="M67.5,76.6V74h-6.2l-0.1,2.6"/>
<g>
	<path class="st2" d="M70.7,55.6l2.7-1.4c0.1-0.1,0.3-0.1,0.4,0l0,0c0.4,0.2,0.5,0.8,0.1,1l-2.8,1.4c-0.2,0.1-0.6,0-0.7-0.2l0,0
		C70.3,56.1,70.4,55.7,70.7,55.6z"/>
	<path class="st2" d="M70.9,57c-0.3,0-0.6-0.2-0.8-0.5C70,56.3,69.9,56,70,55.8c0.1-0.3,0.2-0.5,0.5-0.6l0,0l2.7-1.4
		c0.2-0.1,0.5-0.1,0.8-0.1c0.4,0.1,0.6,0.4,0.7,0.8c0,0.4-0.2,0.7-0.5,0.9l-2.8,1.4C71.2,57,71.1,57,70.9,57z M70.9,56
		C70.8,56,70.8,56,70.9,56C70.8,56.1,70.8,56.1,70.9,56C70.9,56.1,71,56.2,70.9,56l2.9-1.3l0.1-0.1c0,0,0-0.1-0.1-0.1h-0.1L70.9,56z
		 M29.7,55.8L26.2,54c-0.5,0.2-0.6,0.9-0.1,1.2l3,1.6L29.7,55.8z"/>
	<path class="st2" d="M29.3,57.3L26,55.5c-0.4-0.2-0.6-0.6-0.6-1s0.3-0.8,0.7-0.9l0.2-0.1l4,2.1C30.3,55.6,29.3,57.3,29.3,57.3z
		 M26.3,54.5C26.2,54.6,26.2,54.6,26.3,54.5c0,0.1,0,0.2,0.1,0.3l2.6,1.4l0.1-0.2L26.3,54.5z"/>
</g>
</svg>
