<?xml version="1.0" encoding="utf-8"?>
<!-- Generator: Adobe Illustrator 23.0.1, SVG Export Plug-In . SVG Version: 6.00 Build 0)  -->
<svg version="1.1" id="Layer_1" xmlns:v="https://vecta.io/nano"
	 xmlns="http://www.w3.org/2000/svg" xmlns:xlink="http://www.w3.org/1999/xlink" x="0px" y="0px" viewBox="0 0 100 100"
	 style="enable-background:new 0 0 100 100;" xml:space="preserve">
<style type="text/css">
	.st0{fill:#DBDDE1;}
	.st1{fill:#FFFFFF;}
	.st2{fill:#A9CAFF;}
	.st3{fill:#393939;}
</style>
<path class="st0" d="M50,4.6c0.6,0,1.3,0.2,1.8,0.5L88,26c1.1,0.6,1.8,1.8,1.8,3.1v41.8c0,1.3-0.7,2.5-1.8,3.1L51.8,95
	c-0.5,0.3-1.2,0.5-1.8,0.5s-1.3-0.2-1.8-0.5L12,74c-1.1-0.6-1.8-1.8-1.8-3.1V29.1c0-1.3,0.7-2.5,1.8-3.1L48.2,5
	C48.7,4.7,49.4,4.6,50,4.6 M50,1.1c-1.2,0-2.4,0.3-3.5,0.9L10.2,23c-2.2,1.3-3.5,3.6-3.5,6.1v41.8c0,2.5,1.3,4.9,3.5,6.1l36.3,21
	c1.1,0.6,2.3,0.9,3.5,0.9s2.4-0.3,3.5-0.9l36.3-21c2.2-1.3,3.5-3.6,3.5-6.1V29.1c0-2.5-1.3-4.9-3.5-6.1L53.5,2
	C52.4,1.4,51.2,1.1,50,1.1L50,1.1z"/>
<path class="st1" d="M44.6,20.1c1.4,0,2.7,0.2,4,0.7c0.5,0.2,1,0.5,1.3,0.9c0.2,0.1,0.2,0.4,0.1,0.5l-0.1,0.1l-4.7,5.2
	c-0.4,0.4-0.7,0.4-1.1,0l-4.7-5.2c-0.2-0.1-0.2-0.4-0.1-0.5l0.1-0.1c0.4-0.4,0.8-0.7,1.3-0.9C41.9,20.3,43.2,20.1,44.6,20.1z
	 M52,22.9l-2.9,5.8C49,28.6,49,28.5,49,28.4l-0.9-2c-0.1-0.2-0.1-0.3,0.1-0.5l2.4-2.6c0.3-0.4,0.6-0.5,1.1-0.5
	C51.7,22.9,51.8,22.9,52,22.9z M37.2,22.9c0.6-0.1,1.1-0.1,1.5,0.4c0.7,0.9,1.6,1.7,2.4,2.6c0.1,0.2,0.2,0.3,0.1,0.5l-1,2.3
	C40.2,28.7,37.2,22.9,37.2,22.9z"/>
<g>
	<path class="st2" d="M49.5,36.1v-2.6c0-0.5,0.2-0.7,0.7-0.7h4.1c0.5,0,0.7,0.2,0.7,0.7v5.2c0,0.5-0.2,0.7-0.7,0.7h-4.1
		c-0.5,0-0.7-0.2-0.7-0.7V36.1z M50.7,38.3H54v-4.4h-3.3V38.3z M44.6,40.5c-0.3,0-0.5-0.3-0.5-0.6s0.3-0.5,0.6-0.5s0.5,0.2,0.5,0.4
		c0,0,0,0,0,0.1C45.1,40.3,44.9,40.5,44.6,40.5z M45.1,32.2c0,0.3-0.2,0.6-0.6,0.5c-0.3,0-0.5-0.2-0.5-0.4c0,0,0,0,0-0.1
		c0-0.3,0.2-0.6,0.5-0.6C44.9,31.7,45.1,31.9,45.1,32.2z M45.1,43.8c0,0.3-0.3,0.5-0.6,0.5S44,44,44,43.7s0.3-0.5,0.5-0.5
		C44.9,43.3,45.1,43.5,45.1,43.8z"/>
	<path class="st2" d="M44.6,35.6c0.3,0,0.6,0.2,0.6,0.5s-0.2,0.5-0.5,0.6c-0.3,0-0.6-0.2-0.6-0.5C44,35.8,44.3,35.6,44.6,35.6z"/>
</g>
<path class="st1" d="M50.7,38.3v-4.4H54v4.4H50.7z"/>
<path class="st2" d="M58.4,46.8V23.4c0-0.8-0.5-1.5-1.2-1.7c-0.2-0.1-0.4-0.1-0.6-0.1h-5c-0.3,0-0.4,0-0.5-0.3
	c-0.2-0.5-0.6-0.9-1.1-1.2c-1.2-0.8-2.6-1.1-4-1.2c-0.1,0-0.2,0-0.4-0.1h-1.9L42,19.1c-1,0.2-1.9,0.5-2.7,1
	c-0.5,0.3-0.9,0.7-1.1,1.3c-0.1,0.2-0.2,0.2-0.4,0.2h-5.1c-1.2,0-1.9,0.8-1.9,1.9v23.2c0,1.3,0.6,1.9,1.9,1.9h23.7
	C57.7,48.8,58.4,48.2,58.4,46.8z M51.5,22.9h0.4L49,28.7c-0.1-0.1-0.1-0.2-0.1-0.3l-0.9-2c-0.1-0.2-0.1-0.3,0.1-0.5l2.4-2.6
	C50.8,23,51.1,22.8,51.5,22.9z M39.3,21.8c0.4-0.4,0.8-0.7,1.3-0.9c1.3-0.5,2.6-0.7,3.9-0.7c1.4,0,2.7,0.2,4,0.7
	c0.5,0.2,1,0.5,1.3,0.9c0.2,0.1,0.2,0.4,0.1,0.5l-0.1,0.1l-4.7,5.2c-0.4,0.4-0.7,0.4-1.1,0l-4.7-5.2C39.1,22.1,39.1,22,39.3,21.8z
	 M38.7,23.4c0.7,0.9,1.6,1.7,2.4,2.6c0.1,0.2,0.2,0.3,0.1,0.5l-1,2.3L37.3,23C37.8,22.9,38.3,22.8,38.7,23.4z M32.6,47.7
	c-0.6,0-0.7-0.2-0.7-0.7V23.6c0-0.5,0.2-0.7,0.7-0.7h3.1c0.2,0,0.3,0.1,0.4,0.3l3.4,6.9c0,0.1,0,0.2,0.1,0.2
	c0.2,0.1,0.3,0.3,0.5,0.3c0.2,0.1,0.4-0.1,0.5-0.4l1.2-2.7c0.1-0.1,0.1-0.2,0.2-0.4l1.9,2.1c0.4,0.5,0.7,0.5,1.1,0l1.9-2.1l0.8,1.7
	l0.6,1.3c0.1,0.3,0.2,0.5,0.6,0.5c0.3,0,0.5-0.2,0.6-0.4l3.5-6.9c0.1-0.3,0.3-0.4,0.6-0.4h3c0.5,0,0.7,0.2,0.7,0.7V47
	c0,0.5-0.2,0.7-0.7,0.7C56.6,47.7,32.6,47.7,32.6,47.7z"/>
<path class="st3" d="M49.8,81v-0.4l-0.2-38.3h19.7l-0.2,38.4h-7.2v-0.4l-0.5-11.6c-0.2-3.8-0.5-7.6-1.2-11.3
	c-0.2-1.1-0.5-2.2-0.8-3.3c-0.1-0.2-0.2-0.4-0.3-0.7c-1.3,9.1-2.4,18.3-2.5,27.5C54.3,81,52,81,49.8,81z"/>
</svg>
