<?xml version="1.0" encoding="utf-8"?>
<!-- Generator: Adobe Illustrator 23.0.1, SVG Export Plug-In . SVG Version: 6.00 Build 0)  -->
<svg version="1.1" id="Layer_1" xmlns:v="https://vecta.io/nano"
	 xmlns="http://www.w3.org/2000/svg" xmlns:xlink="http://www.w3.org/1999/xlink" x="0px" y="0px" viewBox="0 0 100 100"
	 style="enable-background:new 0 0 100 100;" xml:space="preserve">
<style type="text/css">
	.st0{fill:#DBDDE1;}
	.st1{fill:#393939;}
</style>
<path class="st0" d="M50,4.4c0.6,0,1.3,0.2,1.8,0.5l36.4,21c1.1,0.6,1.8,1.8,1.8,3.1v42c0,1.3-0.7,2.5-1.8,3.1l-36.4,21
	c-0.5,0.3-1.2,0.5-1.8,0.5s-1.3-0.2-1.8-0.5l-36.4-21C10.7,73.5,10,72.3,10,71V29c0-1.3,0.7-2.5,1.8-3.1l36.4-21
	C48.7,4.6,49.4,4.4,50,4.4 M50,0.9c-1.2,0-2.5,0.3-3.5,1l-36.4,21c-2.2,1.3-3.5,3.6-3.5,6.1v42c0,2.5,1.4,4.9,3.5,6.1l36.4,21
	c1.1,0.6,2.3,1,3.5,1s2.5-0.3,3.5-1l36.4-21c2.2-1.3,3.5-3.6,3.5-6.1V29c0-2.5-1.4-4.9-3.5-6.1l-36.4-21C52.5,1.2,51.2,0.9,50,0.9
	L50,0.9z"/>
<path class="st1" d="M65,23l-18.6,6.1c-0.4,0.1-0.7,0.2-1.1,0.2L25.7,29c-0.1,0-0.2,0-0.3-0.2l3.7-0.8l23.4-4.9
	c0.2,0,0.3-0.1,0.4-0.2C57,23,61,23,65,23z M70.4,23.3v10.9c0,0.4-0.1,0.8-0.4,1.1l-5.5,7.4c-0.2,0.2-0.4,0.5-0.7,0.6l-16,7.3
	c-0.1,0-0.2,0-0.3,0.1c0-0.7-0.1-1.3-0.1-1.9C47,42.9,46.8,37,46.5,31.2c0-0.5,0.1-0.8,0.7-1l22.7-6.8C70,23.4,70.2,23.3,70.4,23.3z
	 M45.2,41.4c0,6-4.9,10.8-10.8,10.8s-10.8-4.9-10.8-10.9s4.9-10.8,10.8-10.8C40.3,30.6,45.2,35.4,45.2,41.4z M34.3,32.9
	c-4.7,0-8.5,3.9-8.5,8.5c0,4.7,3.9,8.5,8.5,8.6c4.7,0,8.6-3.9,8.6-8.6S39,32.9,34.3,32.9z M56.8,54.3c0.1,0,0.4-0.1,0.4-0.1
	c0.3,0.4,0.4,0.8,0.7,1L76,67.1c0.5,0.3,0.7,0.6,0.6,1.2c-0.2,1.2-0.3,2.3-0.4,3.6l-7.1-4.4l-11.5-7.2c-1.7-1.1-2.3-3.3-1.2-5.1
	C56.5,55.1,56.6,54.7,56.8,54.3L56.8,54.3z"/>
<path class="st1" d="M74.1,72.4h-4.5c-0.2,0-0.4-0.1-0.6-0.2L50.9,61.4c-0.1,0-0.1-0.1-0.4-0.3c0.9,0,1.5,0.1,2.2,0
	c2.4-0.3,4.5,0.5,6.5,1.8c4.6,3,9.3,5.9,14,8.8C73.5,71.9,73.9,72.1,74.1,72.4C74.1,72.3,74.1,72.4,74.1,72.4z M55.2,59.8h-6
	c-0.9,0-2-1.7-1.7-2.8c0.2-0.8,0.7-1.6,1.2-2.4c0.1-0.2,0.4-0.3,0.6-0.3h6.3C54.3,56.1,54.3,57.9,55.2,59.8z M22.3,39l-2.5-8.7h9.3
	C25.6,32.3,23.4,35.1,22.3,39z M55.2,48.7c0.2,0.4,0.3,0.7,0.5,0.9c0.8,1.1,2.2,1,2.8-0.2c0.2-0.5,0.4-1,0.4-1.6
	c0-0.7,0.3-1.1,1-1.3c0.4-0.1,0.7-0.3,1-0.4c0.5,2.3-1.3,5.8-3.4,6.8c-1.8,0.8-4.5-0.6-4.6-2.5c0-0.2,0.2-0.6,0.4-0.8
	C53.9,49.2,54.5,49,55.2,48.7z M78.8,77h-6.4c-0.2,0-0.4-0.2-0.5-0.3l-1.6-3h3.1c2.3-0.4,3.9,0.4,4.9,2.5
	C78.3,76.4,78.5,76.6,78.8,77z M80.2,65.7l-0.6,10.1l-2.2-2.9c-0.1-0.2-0.1-0.4,0-0.7l0.4-3.8c0-0.7,0.3-1.2,0.9-1.6
	C79.1,66.7,79.5,66.3,80.2,65.7z M45.2,30.6l0.3,5.7C44.7,35.2,44,34,43,33.1c-0.9-1-2.1-1.7-3-2.5C40,30.6,45.2,30.6,45.2,30.6z
	 M49.5,52.9l-0.6-1.4l2.5-1.2l1.2,2.6C52.6,52.9,49.5,52.9,49.5,52.9z M43.9,49l2-3.6l0.2,3.6H43.9z M79.1,65
	c-0.7,0.5-1.2,1-1.8,1.5L75,65H79.1z M56.2,48.2c0.7-0.3,1-0.5,1.4-0.6c0.1,0.1,0.2,0.1,0.2,0.2c-0.3,0.4-0.5,0.8-0.8,1.3
	C56.8,48.8,56.6,48.6,56.2,48.2z M40.3,37.2c-2.3-0.8-4.2-0.4-5.7,1.5c-1.1,1.5-1.2,3.5-0.2,5c1.4,2.1,3.3,2.6,5.7,1.9
	c-0.9,2-4.2,3.4-7,2.9c-3.1-0.5-5.7-3.2-6-6.3c-0.3-3.5,1.5-6.5,4.8-7.7C34.9,33.5,38.3,34.5,40.3,37.2z M38.3,44.7
	c-1.8,0-3.4-1.5-3.4-3.3s1.5-3.3,3.3-3.3s3.4,1.5,3.4,3.3S40.1,44.7,38.3,44.7z"/>
</svg>
