<?xml version="1.0" encoding="utf-8"?>
<!-- Generator: Adobe Illustrator 23.0.1, SVG Export Plug-In . SVG Version: 6.00 Build 0)  -->
<svg version="1.1" id="Layer_1" xmlns:v="https://vecta.io/nano"
	 xmlns="http://www.w3.org/2000/svg" xmlns:xlink="http://www.w3.org/1999/xlink" x="0px" y="0px" viewBox="0 0 100 100"
	 style="enable-background:new 0 0 100 100;" xml:space="preserve">
<style type="text/css">
	.st0{fill:#DBDDE1;}
	.st1{fill:#393939;}
	.st2{fill:#393939;stroke:#A9CAFF;stroke-width:0.25;stroke-miterlimit:10;}
	.st3{fill:#E3E4E5;}
	.st4{fill:none;stroke:#A9CAFF;stroke-width:0.75;stroke-miterlimit:10;}
	.st5{fill:#A9CAFF;}
	.st6{fill:none;stroke:#A9CAFF;stroke-miterlimit:10;}
	.st7{fill:none;stroke:#393939;stroke-width:1.75;stroke-miterlimit:10;}
</style>
<path class="st0" d="M50,4c0.6,0,1.3,0.2,1.8,0.5l36.7,21.2c1.1,0.6,1.8,1.9,1.8,3.2v42.4c0,1.3-0.7,2.5-1.8,3.2l-36.7,21
	C51.3,95.8,50.6,96,50,96s-1.3-0.2-1.8-0.5L11.5,74.3c-1.1-0.6-1.8-1.9-1.8-3.2V28.8c0-1.3,0.7-2.5,1.8-3.2L48.2,4.5
	C48.7,4.2,49.4,4,50,4 M50,0.5c-1.2,0-2.5,0.3-3.6,1L9.7,22.6c-2.2,1.3-3.6,3.6-3.6,6.2v42.4c0,2.6,1.4,4.9,3.6,6.2l36.7,21.2
	c1.1,0.6,2.3,1,3.6,1c1.2,0,2.5-0.3,3.6-1l36.7-21.2c2.2-1.3,3.6-3.6,3.6-6.2V28.8c0-2.6-1.4-4.9-3.6-6.2L53.6,1.4
	C52.5,0.8,51.2,0.5,50,0.5L50,0.5z"/>
<g>
	<path class="st1" d="M50,27.3c-6.3-0.3-11.2,5.2-11.2,5.2l0,0c0,1.5,1.2,2.6,2.6,2.6h5.1v1.8c0,1.8,1.4,3.4,3.2,3.6
		c2,0.1,3.7-1.5,3.7-3.4v-1.9h5.1c1.5,0,2.6-1.2,2.6-2.6l0,0C61.2,32.4,56.3,27,50,27.3z"/>
	<path class="st2" d="M41.4,33.7c-0.7,0-1-0.9-0.5-1.4c1.6-1.4,5.2-3.7,9.1-3.7s7.4,2.3,9,3.7c0.5,0.5,0.2,1.4-0.5,1.4H41.4z"/>
</g>
<circle class="st3" cx="50" cy="36.6" r="2.1"/>
<g>
	<circle class="st1" cx="50" cy="36.6" r="1"/>
	<path class="st1" d="M50,35.3c0.7,0,1.3,0.6,1.3,1.3h0.4c0-1-0.8-1.7-1.7-1.7c-1,0-1.7,0.8-1.7,1.7h0.4
		C48.7,35.9,49.3,35.3,50,35.3z"/>
</g>
<path class="st4" d="M74.8,35.1h-7.9c-1.6,0-3.2-0.6-4.4-1.6l-3.6-3c-5.1-4.2-12.5-4.2-17.7,0l-3.6,3c-1.2,1-3.4,1.6-4.4,1.6h-7.9"
	/>
<path class="st5" d="M25.7,37.1L25.7,37.1c-0.4,0-0.7-0.3-0.7-0.7l0,0v-2.8c0-0.4,0.3-0.7,0.7-0.7l0,0l0,0c0.4,0,0.7,0.3,0.7,0.7
	l0,0v2.8C26.4,36.8,26.1,37.1,25.7,37.1L25.7,37.1z"/>
<path class="st6" d="M25.7,32.8h-2.1H25.7z"/>
<path class="st5" d="M23.6,32.3h-5.7c-0.4,0-0.7,0.3-0.7,0.7l0,0c0,0.4,0.3,0.7,0.7,0.7h3.6c0.5,0,0.5-0.5,0.5-0.5h1.7
	c0.3,0,0.5-0.2,0.5-0.5l0,0C24.1,32.6,23.9,32.3,23.6,32.3z"/>
<path class="st6" d="M25.7,32.8h2.2H25.7z"/>
<path class="st5" d="M27.9,33.3h5.7c0.4,0,0.7-0.3,0.7-0.7l0,0l0,0c0-0.4-0.3-0.7-0.7-0.7l0,0H30c-0.5,0-0.5,0.5-0.5,0.5h-1.7
	c-0.3,0-0.5,0.2-0.5,0.4c0,0,0,0,0,0.1l0,0C27.4,33.1,27.6,33.3,27.9,33.3z M25.4,33.5h0.7v-0.7c0-0.2-0.2-0.3-0.3-0.3l0,0
	c-0.2,0-0.3,0.2-0.3,0.3v0.7H25.4z M74.3,37.1L74.3,37.1c0.4,0,0.7-0.3,0.7-0.7l0,0v-2.8c0-0.4-0.3-0.7-0.7-0.7l0,0l0,0
	c-0.4,0-0.7,0.3-0.7,0.7l0,0v2.8C73.6,36.8,73.9,37.1,74.3,37.1L74.3,37.1z"/>
<path class="st6" d="M74.3,32.8h2.1H74.3z"/>
<path class="st5" d="M76.4,32.3h5.7c0.4,0,0.7,0.3,0.7,0.7l0,0l0,0c0,0.4-0.3,0.7-0.7,0.7l0,0h-3.6c-0.5,0-0.5-0.5-0.5-0.5h-1.7
	c-0.3,0-0.5-0.2-0.5-0.4c0,0,0,0,0-0.1l0,0C75.9,32.6,76.1,32.3,76.4,32.3z"/>
<path class="st6" d="M74.3,32.8h-2.2H74.3z"/>
<path class="st5" d="M72.1,33.3h-5.7c-0.4,0-0.7-0.3-0.7-0.7l0,0l0,0c0-0.4,0.3-0.7,0.7-0.7l0,0H70c0.5,0,0.5,0.5,0.5,0.5h1.7
	c0.3,0,0.5,0.2,0.5,0.4c0,0,0,0,0,0.1l0,0C72.6,33.1,72.4,33.3,72.1,33.3z M74.6,33.5h-0.7v-0.7c0-0.2,0.2-0.3,0.3-0.3l0,0
	c0.2,0,0.3,0.2,0.3,0.3L74.6,33.5C74.5,33.5,74.6,33.5,74.6,33.5z"/>
<path class="st4" d="M32.9,35.1h14.7H32.9z M67.1,35.1H52.4H67.1z M47.6,36h-4.4c-2.5,0-4.4,2-4.4,4.4v7.1"/>
<path class="st5" d="M41.4,47.6h-5.3c0-0.5,0.4-0.9,0.9-0.9h3.6C41,46.7,41.4,47.1,41.4,47.6L41.4,47.6z"/>
<path class="st4" d="M52.4,36h4.4c1.9,0,4.4,2,4.4,4.4v7.1"/>
<path class="st5" d="M58.6,47.6h5.3c0-0.5-0.4-0.9-0.9-0.9h-3.6C59,46.7,58.6,47.1,58.6,47.6L58.6,47.6z"/>
<path class="st7" d="M34.1,50.2c0,0,14.9,16.2,31.8,0 M29.6,55.3c0,0,17.8,21,40.7,0 M24.9,59.8c0,0,24.1,29,50.2,0"/>
</svg>
