<?xml version="1.0" encoding="utf-8"?>
<!-- Generator: Adobe Illustrator 23.0.1, SVG Export Plug-In . SVG Version: 6.00 Build 0)  -->
<svg version="1.1" id="Layer_1" xmlns:v="https://vecta.io/nano"
	 xmlns="http://www.w3.org/2000/svg" xmlns:xlink="http://www.w3.org/1999/xlink" x="0px" y="0px" viewBox="0 0 100 100"
	 style="enable-background:new 0 0 100 100;" xml:space="preserve">
<style type="text/css">
	.st0{fill:#DBDDE1;}
	.st1{fill:#A9CAFF;}
	.st2{fill:#393939;}
</style>
<path class="st0" d="M50,4.9c0.6,0,1.2,0.2,1.8,0.5l36,20.8c1.1,0.6,1.8,1.8,1.8,3.1v41.6c0,1.3-0.7,2.5-1.8,3.1l-36,20.8
	c-0.5,0.3-1.2,0.5-1.8,0.5s-1.2-0.2-1.8-0.5L12.2,74c-1.1-0.6-1.8-1.8-1.8-3.1V29.2c0-1.3,0.7-2.5,1.8-3.1l36-20.8
	C48.8,5,49.4,4.9,50,4.9 M50,1.4c-1.2,0-2.4,0.3-3.5,0.9l-36,20.8C8.3,24.4,7,26.7,7,29.2v41.6c0,2.5,1.3,4.8,3.5,6.1l36,20.8
	c1.1,0.6,2.3,0.9,3.5,0.9s2.4-0.3,3.5-0.9l36-20.8c2.2-1.3,3.5-3.6,3.5-6.1V29.2c0-2.5-1.3-4.8-3.5-6.1l-36-20.8
	C52.4,1.7,51.2,1.4,50,1.4L50,1.4z"/>
<path class="st1" d="M28.9,62.6c1.2-1.6,5.2-6.4,10.6-9.1c0.8-0.4,1.6-0.6,2.4-0.6c2.3-0.1,2.6-0.1,11,2.5H53c6.1,0.9,4.3,1,8.5,1
	c0.9,0,1.9,0.2,2.7,0.7c1,0.6,1.8,1.6,0.8,3c-0.6,0.9-1.7,1.4-2.8,1.4c-3.3,0-5.1,0-6.1,0.1c-0.8,0-1,1.1-0.3,1.4
	c0.9,0.5,2.5,1,4.8,1c3.4,0,6.3,1.8,13.2-4.6c0.7-0.7,1.7-1.1,2.8-1.1c0.7,0,0.9,0.3,1.1,1.2c0.2,0.8,0,1.6-0.5,2.3
	c-2,2.5-2.9,4-7.9,6.7c-1,0.5-8.9,2.5-15.5,1.6c-0.3,0-0.5-0.1-0.8-0.2c-2-0.7-6.3-2.8-10.3-3.3c-1.1-0.1-2.1,0.1-3,0.7
	c-1.3,0.8-2.8,2.1-3.6,2.8c-0.3,0.3-0.8,0.2-1.1-0.1l-6.2-6.6C28.7,63.3,28.6,62.9,28.9,62.6z M35.5,73.4l-3.1,3.1
	c-0.2,0.2-0.5,0.2-0.6,0l-9.3-9.3c-0.2-0.2-0.2-0.5,0-0.6l3.1-3.1c0.2-0.2,0.5-0.2,0.6,0l9.3,9.3C35.6,73,35.6,73.2,35.5,73.4z"/>
<path class="st2" d="M56.5,54.4c0,0,1-5.1-5.6-10.7c-1.5,1.5-2.5,2.5-4.1,2.5s-3.6-1-5.1-5.6c-1-1.5,0-2-5.1-5.1c2-1,9.2-3.1,12.2-1
	c2,1.5,3.6,3.6,3.1,7.1c1.3,1.3,3.6,3.9,4.3,5.4c0.1,0.2,0.4,0.2,0.4-0.1c0.5-2.2,1.1-7.3,3.4-10.4c-0.4-0.4-1.2-0.9-1.9-1.6
	c-1.8-1.7-1.9-4.4-0.4-6.4c1.5-1.9,4.2-4.2,12.5-5.3c0.9,3.2,1.4,5.6,0.8,10.2c-0.2,1.5-1.2,2.9-2.6,3.5c-0.5,0.2-1,0.3-1.3,0.2
	S65.9,37,65.7,37h-1.6c-1.4,0-2.7,0.9-3.2,2.3c-1,3-2.5,7.9-2.4,11.3c0,0.3,0.3,0.4,0.5,0.2c1.3-1.1,1.3-1.3,3-2.3
	c0.4-0.2,0.6-0.7,0.6-1.1c0-1.7-0.1-3.1,1.1-4.3c0.7-0.7,1.7-1.1,2.7-1.2c2-0.1,3.9,0.2,5.6,1.3c1.2,0.7,2.6,0.9,3.9,0.5
	c0.3-0.1,0.4-0.1,0.4-0.1c-0.4,2.2-1.6,5.6-4.9,8.1c-1,0.8-2.4,1.2-3.7,1c-1.4-0.2-2.9-0.7-3.8-2.1c-0.2-0.4-0.7-0.5-1.1-0.2
	c-1.6,1.4-2.6,1.7-3.9,3.9L56.5,54.4L56.5,54.4z"/>
</svg>
