<?xml version="1.0" encoding="utf-8"?>
<!-- Generator: Adobe Illustrator 23.0.1, SVG Export Plug-In . SVG Version: 6.00 Build 0)  -->
<svg version="1.1" id="Layer_1" xmlns:v="https://vecta.io/nano"
	 xmlns="http://www.w3.org/2000/svg" xmlns:xlink="http://www.w3.org/1999/xlink" x="0px" y="0px" viewBox="0 0 100 100"
	 style="enable-background:new 0 0 100 100;" xml:space="preserve">
<style type="text/css">
	.st0{fill:#DBDDE1;}
	.st1{fill:#A9CAFF;}
	.st2{fill:#393939;}
</style>
<path class="st0" d="M50,4.8c0.6,0,1.2,0.2,1.8,0.5l36,20.8c1.1,0.6,1.8,1.8,1.8,3.1v41.6c0,1.3-0.7,2.5-1.8,3.1l-36,20.8
	c-0.5,0.3-1.2,0.5-1.8,0.5s-1.2-0.2-1.8-0.5l-36-20.8c-1.1-0.6-1.8-1.8-1.8-3.1V29.2c0-1.3,0.7-2.5,1.8-3.1l36-20.8
	C48.8,5,49.4,4.8,50,4.8 M50,1.4c-1.2,0-2.4,0.3-3.5,0.9l-36,20.8C8.3,24.4,7,26.7,7,29.2v41.6c0,2.5,1.3,4.8,3.5,6.1l36,20.8
	c1.1,0.6,2.3,0.9,3.5,0.9s2.4-0.3,3.5-0.9l36-20.8c2.2-1.3,3.5-3.6,3.5-6.1V29.2c0-2.5-1.3-4.8-3.5-6.1l-36-20.8
	C52.4,1.7,51.2,1.4,50,1.4L50,1.4z"/>
<g>
	<circle class="st1" cx="67.3" cy="27" r="5.4"/>
	<circle class="st1" cx="41.8" cy="74" r="4.4"/>
</g>
<path class="st2" d="M34.4,31.4h26.2c0.8,0,1.6,0.3,2.2,0.8l7.5,6.8c0.8,0.7,0.8,1.8,0.1,2.6L62.7,50c-0.9,0.6-2.1,0.6-2.8,0
	c-0.5-0.4-0.8-1-0.9-1.6l0,0c0-0.9,0.3-1.7,1-2.3l3.7-3.7c0.1-0.1,0.2-0.3,0.2-0.6v-1.3c0-0.2-0.1-0.4-0.2-0.6l-1.1-1.1
	c-0.3-0.3-0.9-0.3-1.2,0.1l-7,10.4c-0.2,0.3-0.6,0.5-1,0.5h-0.9c-0.3,0-0.6-0.1-0.8-0.3l-6.1-6.1c-0.3-0.3-0.4-0.6-0.4-1v-0.8
	c0-0.4,0.1-0.7,0.4-1l3.5-3.5v-1H35.2c-1,0-2-0.7-2.3-1.6v-0.1c-0.3-0.8-0.2-1.6,0.2-2.3l0,0C33.3,31.7,33.9,31.4,34.4,31.4z
	 M28,68.8c-0.9,0.9-0.9,2.3,0,3.1c0.9,0.9,2.3,0.9,3.1,0l17.4-17.2l-3.1-3.2L28,68.8z M29.6,60.9c0.9,0.9,2.3,0.9,3.1,0l11.1-11
	l-3.1-3.2l-11.1,11C28.7,58.6,28.7,60,29.6,60.9L29.6,60.9z M50.4,51.3L44.1,45c-0.4-0.4-1.1-0.4-1.6,0l-1.9,1.8l7.8,7.9l1.9-1.8
	C50.8,52.5,50.8,51.8,50.4,51.3z"/>
</svg>
