<?xml version="1.0" encoding="utf-8"?>
<!-- Generator: Adobe Illustrator 23.0.1, SVG Export Plug-In . SVG Version: 6.00 Build 0)  -->
<svg version="1.1" id="Layer_1" xmlns:v="https://vecta.io/nano"
	 xmlns="http://www.w3.org/2000/svg" xmlns:xlink="http://www.w3.org/1999/xlink" x="0px" y="0px" viewBox="0 0 100 100"
	 style="enable-background:new 0 0 100 100;" xml:space="preserve">
<style type="text/css">
	.st0{fill:#DBDDE1;}
	.st1{fill:#A9CAFF;}
	.st2{fill:#393939;}
</style>
<path class="st0" d="M50,4.4c0.6,0,1.3,0.2,1.8,0.5l36.3,21c1.1,0.6,1.8,1.8,1.8,3.1v42c0,1.3-0.7,2.5-1.8,3.1l-36.3,21
	c-0.5,0.3-1.2,0.5-1.8,0.5s-1.3-0.2-1.8-0.5l-36.3-21c-1.1-0.6-1.8-1.8-1.8-3.1V29c0-1.3,0.7-2.5,1.8-3.1l36.3-21
	C48.7,4.6,49.4,4.4,50,4.4 M50,0.9c-1.2,0-2.4,0.3-3.5,0.9l-36.3,21c-2.2,1.3-3.5,3.6-3.5,6.1v42c0,2.5,1.4,4.9,3.5,6.1l36.3,21
	c1.1,0.6,2.3,0.9,3.5,0.9s2.4-0.3,3.5-0.9l36.3-21c2.2-1.3,3.5-3.6,3.5-6.1V29c0-2.5-1.4-4.9-3.5-6.1l-36.3-21
	C52.4,1.3,51.2,0.9,50,0.9L50,0.9z"/>
<path class="st1" d="M81.6,50l-2.4-10.7c-0.1-0.4-0.5-0.7-0.9-0.7H51.8c-0.5,0-0.9-0.3-1.1-0.7l-3.4-7c-0.2-0.4-0.6-0.7-1.1-0.7H42
	c-0.4,0-0.8,0.3-0.8,0.8v1.6c0,0.4,0.3,0.8,0.8,0.8h1.8c0.4,0,0.8,0.3,0.8,0.8l3.6,20.6c0.1,0.4,0.5,0.7,0.9,0.7h28.6l3.5-4.1
	C81.5,50.9,81.7,50.4,81.6,50z"/>
<path class="st2" d="M31,58.6c-3.6,0-6.6,3-6.6,6.6s3,6.6,6.6,6.6s6.6-3,6.6-6.6S34.6,58.6,31,58.6z M31,68.9
	c-2.1,0-3.8-1.7-3.8-3.8c0-2.1,1.7-3.8,3.8-3.8s3.8,1.7,3.8,3.8C34.7,67.3,33,68.9,31,68.9z M61.4,58.6c-3.6,0-6.6,3-6.6,6.6
	s3,6.6,6.6,6.6s6.6-3,6.6-6.6C68,61.5,65.1,58.6,61.4,58.6z M61.4,68.9c-2.1,0-3.8-1.7-3.8-3.8c0-2.1,1.7-3.8,3.8-3.8
	s3.8,1.7,3.8,3.8C65.2,67.3,63.5,68.9,61.4,68.9z M58.6,57.2H43.5v-20c0-0.4-0.3-0.8-0.8-0.8h-16c-0.5,0-0.9,0.3-1.1,0.7l-6.8,13
	c-0.2,0.4-0.3,1-0.3,1.4v12.9c0,0.4,0.3,0.8,0.8,0.8h3.3c0-4.7,3.8-8.5,8.5-8.5s8.5,3.8,8.5,8.5H53C53,61.5,55.3,58.4,58.6,57.2z
	 M41.2,50.8H21l6.3-12.1h13.9C41.2,38.7,41.2,50.8,41.2,50.8z M69.9,65.2h7c0.4,0,0.8-0.3,0.8-0.8v-7.2H64.3
	C67.6,58.4,69.9,61.5,69.9,65.2z M64.1,28.2c-2.6,0-8.3,5.5-11.2,8.4h22.4C72.4,33.7,66.7,28.2,64.1,28.2z"/>
</svg>
