<?xml version="1.0" encoding="utf-8"?>
<!-- Generator: Adobe Illustrator 24.1.1, SVG Export Plug-In . SVG Version: 6.00 Build 0)  -->
<svg version="1.1" id="Layer_1" xmlns="http://www.w3.org/2000/svg" xmlns:xlink="http://www.w3.org/1999/xlink" x="0px" y="0px"
	 viewBox="0 0 512 512" style="enable-background:new 0 0 512 512;" xml:space="preserve">
<style type="text/css">
	.st0{fill:#2E58FF;}
</style>
<path class="st0" d="M171.1,245.1l49.7,49.7l130-130l26.2,30.4l-142,142c-7.8,7.8-20.5,7.8-28.3,0l-63.9-63.9L171.1,245.1z M512,256
	c0,141.5-114.5,256-256,256S0,397.5,0,256S114.5,0,256,0S512,114.5,512,256z M499,256c0-134.3-108.7-243-243-243S13,121.7,13,256
	s108.7,243,243,243S499,390.3,499,256z"/>
</svg>
