<?xml version="1.0" encoding="utf-8"?>
<!-- Generator: Adobe Illustrator 24.1.1, SVG Export Plug-In . SVG Version: 6.00 Build 0)  -->
<svg version="1.1" id="Layer_1" xmlns="http://www.w3.org/2000/svg" xmlns:xlink="http://www.w3.org/1999/xlink" x="0px" y="0px"
	 viewBox="0 0 100 100" style="enable-background:new 0 0 100 100;" xml:space="preserve">
<style type="text/css">
	.st0{fill-rule:evenodd;clip-rule:evenodd;fill:#0B539C;}
	.st1{fill-rule:evenodd;clip-rule:evenodd;fill:#E2071D;}
</style>
<g>
	<path class="st0" d="M77.79,71.79v-3.23c0,0,1.16-0.29,3.02-0.29c1.85,0,3.02,0.29,3.02,0.29v1.1c0,0-1.31-0.25-3.02-0.26
		c-0.82,0-1.39,0.1-1.73,0.13c0,0.26,0,1.01,0,1.28c0.3,0.03,0.87,0.13,1.72,0.13c1.75,0,3.03-0.25,3.03-0.25v1.1
		c0,0-1.19,0.29-3.02,0.29C78.97,72.08,77.79,71.79,77.79,71.79L77.79,71.79z M41.54,34.04c0.77,0,1.47-0.22,1.47-0.22l9.33-2.96
		c2.03-0.65,2.53-1.63,0.45-2.35l-9.71-3.3c0,0-0.69-0.24-1.52-0.24c-0.83,0-1.52,0.24-1.52,0.24l-9.68,3.3
		c-2.07,0.71-1.51,1.7,0.21,2.28l9.53,3.03C40.11,33.82,40.78,34.04,41.54,34.04L41.54,34.04z M43.02,37.34c0,0-0.69,0.22-1.45,0.22
		c-0.42,0-0.95-0.09-1.35-0.22l-8.27-2.81v1.94l8.27,2.82c0,0,0.62,0.22,1.33,0.22c0.71,0,1.4-0.2,1.4-0.2l11.17-3.51l-2.96-1.03
		L43.02,37.34L43.02,37.34z M43.02,42.8c0,0-0.69,0.22-1.45,0.22c-0.42,0-0.95-0.1-1.35-0.23l-8.27-2.81v1.94l8.27,2.82
		c0,0,0.62,0.22,1.33,0.22c0.71,0,1.4-0.2,1.4-0.2l11.17-3.51l-2.96-1.03L43.02,42.8L43.02,42.8z M2.77,61.69v-1.07h8.45V58.6H2.76
		v-0.09l0-1.01c0-0.49,0.33-0.75,0.93-0.75h7.53v-2.18H3.63c-1.34,0-2.32,0.3-2.92,0.9c-0.7,0.7-0.69,1.63-0.69,2.02v0.04
		c0,1.48-0.01,2.37-0.01,2.95C0,61.37-0.01,61.56,0.04,62.07c0.15,1.81,1.28,2.58,3.78,2.58h7.41v-2.18H3.71
		C2.93,62.47,2.77,62.05,2.77,61.69L2.77,61.69z M50.62,61.03l-0.02,0.18c-0.09,0.58-0.26,0.97-1.28,1.13
		c-0.6,0.08-1.2,0.1-2.04,0.1c-0.84,0-1.44-0.02-2.04-0.1c-1.07-0.17-1.21-0.59-1.29-1.22c-0.02-0.23-0.07-0.85-0.07-1.5
		c0-0.64,0.04-1.28,0.07-1.54c0.09-0.71,0.44-1.06,1.18-1.17c0.55-0.07,1.22-0.11,2.1-0.11h0.07c0.91,0,1.59,0.03,2.14,0.11
		c0.75,0.11,1.09,0.45,1.17,1.17c0.03,0.25,0.07,0.89,0.07,1.54C50.68,60.19,50.65,60.74,50.62,61.03L50.62,61.03z M50.3,54.69
		c-1.18-0.14-2-0.19-3.02-0.19c-1.02,0-1.84,0.05-3.03,0.19c-1.69,0.19-2.78,1.17-3.04,2.76c-0.08,0.49-0.16,1.65-0.16,2.17
		c0,0.5,0.1,1.9,0.18,2.4c0.24,1.3,1.33,2.28,2.8,2.49c1.11,0.16,1.99,0.22,3.25,0.22c1.26,0,2.14-0.06,3.25-0.22
		c1.47-0.21,2.57-1.19,2.8-2.49c0.09-0.49,0.18-1.9,0.18-2.4c0-0.52-0.08-1.68-0.16-2.17C53.08,55.86,52,54.87,50.3,54.69
		L50.3,54.69z M81.88,60.6c-0.82,0.05-1.5,0.07-2.14,0.07c-0.57,0-1.17-0.01-1.84-0.05l-0.13-0.01l0.05-0.12l1.44-3.31
		c0.09-0.19,0.3-0.4,0.63-0.4c0.27,0,0.52,0.16,0.63,0.4l1.44,3.29l0.05,0.12L81.88,60.6L81.88,60.6z M82.94,56.39
		c-0.55-1.28-1.53-1.9-3.02-1.9h-0.06c-1.49,0-2.48,0.62-3.03,1.9l-3.62,8.26h2.82l0.79-1.88l0.03-0.06l0.06,0
		c1.12,0.08,1.99,0.11,2.82,0.11c0.9,0,1.83-0.04,3.12-0.13l0.06,0l0.03,0.06l0.81,1.91h2.82L82.94,56.39L82.94,56.39z M36.23,59.61
		c-0.35,0.21-1.06,0.29-2.55,0.29l-0.11,0c-1.33,0-2.44-0.08-3.03-0.15l-0.08-0.01v-2.8l0.08-0.01c0.44-0.05,1.49-0.16,3.03-0.16
		h0.06c1.35,0,2.09,0.09,2.49,0.3c0.44,0.24,0.52,0.59,0.53,1.21C36.65,59.02,36.6,59.4,36.23,59.61L36.23,59.61z M39.42,64.55
		c-0.11-0.65-0.48-2.24-1.53-3.02l-0.11-0.08l0.12-0.07c0.51-0.3,1.36-0.97,1.37-2.12v-0.42c0-0.53-0.01-1.16-0.06-1.75
		c-0.17-1.79-1.85-2.57-5.64-2.6c-0.11,0-0.22,0-0.33,0c-2.45,0-4.86,0.29-5.33,0.35l-0.06,0.01v9.82h2.61v-2.59l0.1,0.01
		c0.13,0.01,0.29,0.02,0.37,0.03c0.76,0.05,1.89,0.09,2.64,0.09l0.66,0h0.7c0.01,0,0.03,0,0.04,0c0.62,0,1.23,1.22,1.52,2.42
		l0.01,0.04h2.94l0-0.06C39.43,64.58,39.42,64.57,39.42,64.55L39.42,64.55z M69.22,64.65h2.61V54.57h-2.61V64.65L69.22,64.65z
		 M22.8,54.55l0.01,4.93c0,0.48-0.02,0.96-0.07,1.41c-0.05,0.46-0.32,1.26-1.49,1.42c-0.6,0.08-1.11,0.09-1.98,0.09
		c-0.89,0-1.1-0.02-1.69-0.09c-0.95-0.14-1.1-0.77-1.18-1.42c-0.03-0.24-0.07-0.75-0.07-1.41l-0.01-4.93h-2.81l-0.01,5.06
		c0,1.26,0.13,2.1,0.19,2.4c0.24,1.3,1.33,2.28,2.8,2.49c1.06,0.15,1.7,0.22,2.96,0.22h0.07c1.21,0,2.03-0.06,3.15-0.22
		c1.47-0.21,2.57-1.19,2.8-2.49c0.16-0.89,0.18-1.89,0.19-2.41l-0.01-5.06H22.8L22.8,54.55z M61.47,62.05
		c-0.11,0.23-0.28,0.35-0.55,0.35c-0.25,0-0.46-0.13-0.55-0.35l-3.26-7.48H54.1l3.69,8.22c0.49,1.11,1.46,1.96,3.14,1.95h0.03
		c1.77,0,2.77-1.11,3.11-1.95l3.68-8.22h-3.02L61.47,62.05L61.47,62.05z M66.69,69.17l-3.28,2.94l-3.28-2.95l0.98-0.89
		c0,0,2,1.93,2.3,2.2c0.29-0.27,2.3-2.2,2.3-2.2L66.69,69.17L66.69,69.17z M75.05,72.01c0,0-0.96-0.77-2.36-1.5
		c-0.39-0.2-0.73-0.34-1.03-0.46l0,1.96h-1.28v-3.67c0,0,1.08,0.21,2.31,0.85c1.41,0.73,2.36,1.43,2.36,1.43v-2.29h1.28v3.68H75.05
		L75.05,72.01z M67.58,72.01h1.32v-3.68h-1.32V72.01L67.58,72.01z M85.26,72.01h1.32v-3.68h-1.32V72.01L85.26,72.01z"/>
	<path class="st1" d="M89.56,68.33h1.84c0.67,0,1.09-0.34,1.25-0.51c0.16-0.16,0.52-0.57,0.52-1.04v-1.53
		c0-0.28,0.23-0.51,0.51-0.51h1.99c0.28,0,0.51,0.23,0.51,0.51v2c0,0.28-0.23,0.51-0.51,0.51h-1.53c-0.48,0-0.88,0.36-1.05,0.52
		c-0.16,0.15-0.5,0.58-0.51,1.25v1.84h-3.03V68.33L89.56,68.33z M54.12,42.72l0-1.47l-9.87,3.11l-1.23,0.39c0,0-0.01,0-0.03,0.01
		l-0.04,0.01c0,0-0.68,0.2-1.39,0.2v3.52c0.76,0,1.46-0.22,1.46-0.22l9.33-2.96C54.27,44.71,54.12,44.44,54.12,42.72L54.12,42.72z
		 M54.12,37.26l0-1.47L42.95,39.3c0,0-0.68,0.19-1.39,0.2v3.51c0.76,0,1.46-0.22,1.46-0.22l9.33-2.96
		C54.27,39.25,54.12,38.97,54.12,37.26L54.12,37.26z M54.12,29.65c-0.07,0.44-0.71,0.87-1.78,1.21l-9.33,2.96
		c0,0-0.7,0.21-1.46,0.22v3.52c0.76,0,1.46-0.22,1.46-0.22l9.33-2.96c1.92-0.59,1.78-0.86,1.78-2.58L54.12,29.65L54.12,29.65z
		 M100,69.94c0-0.49-0.2-0.92-0.51-1.24c-0.31-0.32-0.75-0.51-1.24-0.51c-1,0-1.79,0.81-1.79,1.78c0,0.18,0.08,0.51,0.08,0.65
		c0,0.76-0.62,1.38-1.38,1.38h-1.48c-0.28,0-0.51,0.23-0.51,0.51v2c0,0.28,0.23,0.51,0.51,0.51h1.99c0.28,0,0.51-0.23,0.51-0.51
		v-1.48c0-0.76,0.62-1.38,1.38-1.38c0.14,0,0.48,0.08,0.66,0.08C99.19,71.74,100,70.94,100,69.94L100,69.94z"/>
</g>
</svg>
