<svg id="Layer_1" enable-background="new 0 0 496 496" height="512" viewBox="0 0 496 496" width="512" xmlns="http://www.w3.org/2000/svg"><path d="m480 207.499v132c0 17.67-14.33 32-32 32h-50.95c-4.34 0-7.89 3.46-8 7.8l-.69 27.18c-.16 6.19-6.99 9.87-12.25 6.58-68.076-42.631-64.681-41.56-70.97-41.56h-123.14c-16.839 0-32-13.257-32-32.66l-29.52 22.25c-5.21 3.93-12.67.3-12.81-6.22l-.75-35.54c-.1-4.35-3.65-7.83-8-7.83h-50.92c-17.67 0-32-14.33-32-32v-172c0-17.67 14.33-32 32-32h296c17.67 0 32 14.33 32 32v68h72c17.67 0 32 14.33 32 32z" fill="#d1e7ff"/><path d="m480 207.499v132c0 17.673-14.327 32-32 32h-50.951c-4.339 0-7.887 3.459-7.997 7.796l-.694 27.186c-.158 6.193-6.992 9.864-12.243 6.577-68.154-42.673-64.701-41.558-70.97-41.558h-123.145c-16.849 0-32-13.26-32-32.66 34.367-25.913 34.57-27.34 41.616-27.34h152.384c17.673 0 32-14.327 32-32v-104h72c17.673-.001 32 14.326 32 31.999z" fill="#d1e7ff"/><path d="m401 175.499v124c0 17.673-14.327 32-32 32h-166.384c-6.924 0-6.47.818-44.386 29.43-5.213-5.774-8.23-13.106-8.23-22.09l31.983-24.115c2.775-2.093 6.157-3.225 9.633-3.225h152.384c17.673 0 32-14.327 32-32v-104z" fill="#b9dcff"/><path d="m344.119 115.499h-256.119c-17.673 0-32 14.327-32 32v132.119c0 26.061-40 27.393-40-.119v-172c0-17.673 14.327-32 32-32h296c27.503 0 26.19 40 .119 40z" fill="#e8f3ff"/><path d="m392 279.499v-172c0-26.467-21.533-48-48-48h-296c-26.467 0-48 21.533-48 48v172c0 26.467 21.533 48 48 48h43.085l.919 43.339c.275 13.021 15.227 20.281 25.628 12.438l73.983-55.776h152.385c26.467-.001 48-21.534 48-48.001zm-205.74 16c-3.476 0-6.856 1.132-9.632 3.224l-53.294 40.179-.588-27.741c-.185-8.702-7.292-15.661-15.996-15.661h-58.75c-8.822 0-16-7.178-16-16v-172c0-8.822 7.178-16 16-16h296c8.822 0 16 7.178 16 16v172c0 8.822-7.178 16-16 16h-157.74zm309.74-88v132c0 26.468-21.532 48-48 48h-43.153l-.852 33.408c-.222 8.694-7.347 15.592-15.994 15.592-6.385 0-2.83 1.107-82.856-49h-73.145c-8.837 0-16-7.163-16-16s7.163-16 16-16c84.866 0 80.901-.898 86.231 2.438l54.489 34.117.534-20.964c.222-8.675 7.317-15.592 15.995-15.592h58.751c8.822 0 16-7.178 16-16v-132c0-8.822-7.178-16-16-16-8.837 0-16-7.163-16-16s7.163-16 16-16c26.468.001 48 21.533 48 48.001zm-200-43c0 8.837-7.163 16-16 16h-168c-8.837 0-16-7.163-16-16s7.163-16 16-16h168c8.837 0 16 7.163 16 16zm-29 70c0 8.837-7.163 16-16 16h-110c-8.837 0-16-7.163-16-16s7.163-16 16-16h110c8.837 0 16 7.163 16 16z" fill="#2e58ff"/></svg>