<?xml version="1.0" encoding="utf-8"?>
<!-- Generator: Adobe Illustrator 23.0.1, SVG Export Plug-In . SVG Version: 6.00 Build 0)  -->
<svg version="1.1" id="Layer_1" xmlns="http://www.w3.org/2000/svg" xmlns:xlink="http://www.w3.org/1999/xlink" x="0px" y="0px"
	 viewBox="0 0 500 500" style="enable-background:new 0 0 500 500;" xml:space="preserve">
<style type="text/css">
	.st0{display:none;fill:#7394FF;}
	.st1{fill:#2E58FF;}
</style>
<path class="st0" d="M77.574,42.84L91.887,50H122c0-13.254-10.746-24-24-24H82c-13.254,0-24,10.746-24,24h4.688l5.656-5.656
	C70.777,41.91,74.496,41.301,77.574,42.84z"/>
<circle class="st0" cx="250" cy="250" r="24"/>
<path class="st0" d="M406.426,353.16l-10.852-5.426l-3.918,3.922c-1.5,1.5-3.535,2.344-5.656,2.344v16c0,13.254,10.746,24,24,24
	c13.254,0,24-10.746,24-24v-16h-24C408.758,354,407.535,353.715,406.426,353.16z"/>
<path class="st0" d="M397.574,330.801L411.887,338H442c0-13.254-10.746-24-24-24h-16c-13.254,0-24,10.746-24,24h4.688l5.656-5.695
	C390.777,329.867,394.496,329.262,397.574,330.801z"/>
<path class="st0" d="M311.832,260.922L322,259.223v-18.446l-10.16-1.699c-5.445-0.902-10.043-4.551-12.156-9.652
	c-2.118-5.102-1.454-10.934,1.757-15.426l5.993-8.383l-13.043-13.043L286,198.566c-4.492,3.211-10.324,3.875-15.426,1.758
	c-5.101-2.113-8.75-6.711-9.652-12.156L259.223,178h-18.446l-1.687,10.16c-0.906,5.445-4.555,10.043-9.656,12.156
	c-5.102,2.118-10.93,1.454-15.426-1.757l-8.391-5.993l-13.043,13.043l5.992,8.391c3.211,4.492,3.875,10.324,1.758,15.426
	c-2.113,5.101-6.711,8.75-12.156,9.652L178,240.777v18.446l10.16,1.699c5.445,0.902,10.043,4.551,12.156,9.652
	c2.118,5.102,1.454,10.934-1.757,15.426l-5.993,8.383l13.043,13.043l8.391-5.992c4.492-3.211,10.324-3.875,15.426-1.758
	c5.101,2.113,8.75,6.711,9.652,12.156L240.777,322h18.446l1.699-10.16c0.902-5.445,4.551-10.043,9.652-12.156
	c5.102-2.118,10.934-1.454,15.426,1.757l8.391,5.993l13.043-13.043L301.441,286h-0.007c-3.211-4.492-3.875-10.324-1.758-15.426
	C301.789,265.473,306.387,261.824,311.832,260.922z M250,290c-22.09,0-40-17.91-40-40c0-22.09,17.91-40,40-40
	c22.082,0.027,39.973,17.918,40,40C290,272.09,272.09,290,250,290z"/>
<path class="st0" d="M26,466v8h55.297l-20.352-47.488C41.023,429.02,26.062,445.926,26,466z"/>
<path class="st0" d="M77.574,330.801L91.887,338H122c0-13.254-10.746-24-24-24H82c-13.254,0-24,10.746-24,24h4.688l5.656-5.695
	C70.777,329.867,74.496,329.262,77.574,330.801z"/>
<path class="st0" d="M154,186v-8c-0.062-20.074-15.023-36.98-34.945-39.488L98.703,186H154z M122,162h16v16h-16V162z"/>
<path class="st0" d="M86.426,353.16l-10.852-5.426l-3.918,3.922c-1.5,1.5-3.535,2.344-5.656,2.344v16c0,13.254,10.746,24,24,24
	s24-10.746,24-24v-16H90C88.758,354,87.535,353.715,86.426,353.16z"/>
<polygon class="st0" points="101.871,138 78.129,138 90,165.688 "/>
<path class="st0" d="M119.055,426.512L98.703,474H154v-8C153.938,445.926,138.977,429.02,119.055,426.512z M138,466h-16v-16h16V466z
	"/>
<path class="st0" d="M86.426,65.16l-10.852-5.426l-3.918,3.922C70.156,65.156,68.121,66,66,66v16c0,13.254,10.746,24,24,24
	s24-10.746,24-24V66H90C88.758,66,87.535,65.715,86.426,65.16z"/>
<polygon class="st0" points="78.129,426 90,453.688 101.871,426 "/>
<path class="st0" d="M397.574,42.84L411.887,50H442c0-13.254-10.746-24-24-24h-16c-13.254,0-24,10.746-24,24h4.688l5.656-5.656
	C390.777,41.91,394.496,41.301,397.574,42.84z"/>
<polygon class="st0" points="398.129,138 410,165.688 421.871,138 "/>
<path class="st0" d="M439.055,138.512L418.703,186H474v-8C473.938,157.926,458.977,141.02,439.055,138.512z M458,178h-16v-16h16V178
	z"/>
<path class="st0" d="M346,178v8h55.297l-20.352-47.488C361.023,141.02,346.062,157.926,346,178z"/>
<path class="st0" d="M346,466v8h55.297l-20.352-47.488C361.023,429.02,346.062,445.926,346,466z"/>
<path class="st0" d="M406.426,65.16l-10.852-5.426l-3.918,3.922c-1.5,1.5-3.535,2.344-5.656,2.344v16c0,13.254,10.746,24,24,24
	c13.254,0,24-10.746,24-24V66h-24C408.758,66,407.535,65.715,406.426,65.16z"/>
<polygon class="st0" points="398.129,426 410,453.688 421.871,426 "/>
<path class="st0" d="M60.945,138.512C41.023,141.02,26.062,157.926,26,178v8h55.297L60.945,138.512z"/>
<path class="st0" d="M439.055,426.512L418.703,474H474v-8C473.938,445.926,458.977,429.02,439.055,426.512z M458,466h-16v-16h16V466
	z"/>
<path class="st1" d="M26,202h128c8.836,0,16-7.164,16-16v-8c-0.035-30.914-25.086-55.965-56-56H90H66
	c-30.914,0.035-55.965,25.086-56,56v8C10,194.836,17.164,202,26,202z M119.055,138.512C138.977,141.02,153.938,157.926,154,178v8
	H98.703L119.055,138.512z M101.871,138L90,165.688L78.129,138H101.871z M26,178c0.062-20.074,15.023-36.98,34.945-39.488L81.297,186
	H26V178z"/>
<rect x="122" y="162" class="st1" width="16" height="16"/>
<path class="st1" d="M130,82V66c4.418,0,8-3.582,8-8v-8c-0.027-22.082-17.918-39.973-40-40H82c-22.082,0.027-39.973,17.918-40,40v8
	c0,4.418,3.582,8,8,8v16c0,22.09,17.91,40,40,40S130,104.09,130,82z M58,50c0-13.254,10.746-24,24-24h16c13.254,0,24,10.746,24,24
	H91.887l-14.313-7.16c-3.078-1.539-6.797-0.93-9.23,1.504L62.688,50H58z M114,82c0,13.254-10.746,24-24,24S66,95.254,66,82V66
	c2.121,0,4.156-0.844,5.656-2.344l3.918-3.922l10.852,5.426C87.535,65.715,88.758,66,90,66h24V82z"/>
<path class="st1" d="M434,122h-24h-24c-30.914,0.035-55.965,25.086-56,56v8c0,8.836,7.164,16,16,16h128c8.836,0,16-7.164,16-16v-8
	C489.965,147.086,464.914,122.035,434,122z M346,186v-8c0.062-20.074,15.023-36.98,34.945-39.488L401.297,186H346z M398.129,138
	h23.742L410,165.688L398.129,138z M474,186h-55.297l20.352-47.488C458.977,141.02,473.938,157.926,474,178V186z"/>
<rect x="442" y="162" class="st1" width="16" height="16"/>
<path class="st1" d="M450,82V66c4.418,0,8-3.582,8-8v-8c-0.027-22.082-17.918-39.973-40-40h-16c-22.082,0.027-39.973,17.918-40,40v8
	c0,4.418,3.582,8,8,8v16c0,22.09,17.91,40,40,40C432.09,122,450,104.09,450,82z M378,50c0-13.254,10.746-24,24-24h16
	c13.254,0,24,10.746,24,24h-30.113l-14.313-7.16c-3.078-1.539-6.797-0.93-9.23,1.504L382.688,50H378z M434,82
	c0,13.254-10.746,24-24,24c-13.254,0-24-10.746-24-24V66c2.121,0,4.156-0.844,5.656-2.344l3.918-3.922l10.852,5.426
	C407.535,65.715,408.758,66,410,66h24V82z"/>
<path class="st1" d="M114,410H90H66c-30.914,0.035-55.965,25.086-56,56v8c0,8.836,7.164,16,16,16h128c8.836,0,16-7.164,16-16v-8
	C169.965,435.086,144.914,410.035,114,410z M26,474v-8c0.062-20.074,15.023-36.98,34.945-39.488L81.297,474H26z M78.129,426h23.742
	L90,453.688L78.129,426z M154,474H98.703l20.352-47.488C138.977,429.02,153.938,445.926,154,466V474z"/>
<rect x="122" y="450" class="st1" width="16" height="16"/>
<path class="st1" d="M130,370v-16c4.418,0,8-3.582,8-8v-8c-0.027-22.082-17.918-39.973-40-40H82c-22.082,0.027-39.973,17.918-40,40
	v8c0,4.418,3.582,8,8,8v16c0,22.09,17.91,40,40,40S130,392.09,130,370z M58,338c0-13.254,10.746-24,24-24h16
	c13.254,0,24,10.746,24,24H91.887l-14.313-7.199c-3.078-1.539-6.797-0.934-9.23,1.504L62.688,338H58z M114,370
	c0,13.254-10.746,24-24,24s-24-10.746-24-24v-16c2.121,0,4.156-0.844,5.656-2.344l3.918-3.922l10.852,5.426
	C87.535,353.715,88.758,354,90,354h24V370z"/>
<path class="st1" d="M434,410h-24h-24c-30.914,0.035-55.965,25.086-56,56v8c0,8.836,7.164,16,16,16h128c8.836,0,16-7.164,16-16v-8
	C489.965,435.086,464.914,410.035,434,410z M346,474v-8c0.062-20.074,15.023-36.98,34.945-39.488L401.297,474H346z M398.129,426
	h23.742L410,453.688L398.129,426z M474,474h-55.297l20.352-47.488C458.977,429.02,473.938,445.926,474,466V474z"/>
<rect x="442" y="450" class="st1" width="16" height="16"/>
<path class="st1" d="M450,370v-16c4.418,0,8-3.582,8-8v-8c-0.027-22.082-17.918-39.973-40-40h-16c-22.082,0.027-39.973,17.918-40,40
	v8c0,4.418,3.582,8,8,8v16c0,22.09,17.91,40,40,40C432.09,410,450,392.09,450,370z M378,338c0-13.254,10.746-24,24-24h16
	c13.254,0,24,10.746,24,24h-30.113l-14.313-7.199c-3.078-1.539-6.797-0.934-9.23,1.504L382.688,338H378z M434,370
	c0,13.254-10.746,24-24,24c-13.254,0-24-10.746-24-24v-16c2.121,0,4.156-0.844,5.656-2.344l3.918-3.922l10.852,5.426
	c1.109,0.555,2.332,0.84,3.574,0.84h24V370z"/>
<path class="st1" d="M314.465,276.695l16.855-2.808c3.856-0.645,6.68-3.981,6.68-7.887v-32c0-3.906-2.824-7.242-6.68-7.887
	l-16.863-2.808l9.941-13.907c2.278-3.183,1.914-7.546-0.855-10.308l-22.621-22.625c-2.766-2.77-7.129-3.133-10.313-0.856
	l-13.906,9.926l-2.808-16.855c-0.645-3.856-3.985-6.684-7.895-6.68h-32c-3.906,0-7.242,2.824-7.887,6.68l-2.808,16.863
	l-13.907-9.941c-3.183-2.278-7.546-1.914-10.308,0.855l-22.625,22.621c-2.77,2.766-3.133,7.129-0.856,10.313l9.926,13.906
	l-16.855,2.808c-3.856,0.645-6.684,3.985-6.68,7.895v32c0,3.906,2.824,7.242,6.68,7.887l16.863,2.808l-9.941,13.907
	c-2.278,3.183-1.914,7.546,0.855,10.308l22.621,22.625c2.766,2.77,7.129,3.133,10.313,0.856l13.906-9.926l2.808,16.855
	c0.645,3.856,3.985,6.684,7.895,6.68h32c3.906,0,7.242-2.824,7.887-6.68l2.808-16.863l13.907,9.941
	c3.183,2.278,7.546,1.914,10.308-0.855l22.625-22.621c2.77-2.766,3.133-7.129,0.856-10.313L314.465,276.695z M301.434,286h0.007
	l5.993,8.391l-13.043,13.043L286,301.441c-4.492-3.211-10.324-3.875-15.426-1.757c-5.101,2.113-8.75,6.711-9.652,12.156L259.223,322
	h-18.446l-1.699-10.168c-0.902-5.445-4.551-10.043-9.652-12.156c-5.102-2.117-10.934-1.453-15.426,1.758l-8.391,5.992
	l-13.043-13.043l5.993-8.383c3.211-4.492,3.875-10.324,1.757-15.426c-2.113-5.101-6.711-8.75-12.156-9.652L178,259.223v-18.446
	l10.168-1.699c5.445-0.902,10.043-4.551,12.156-9.652c2.117-5.102,1.453-10.934-1.758-15.426l-5.992-8.391l13.043-13.043
	l8.391,5.993c4.496,3.211,10.324,3.875,15.426,1.757c5.101-2.113,8.75-6.711,9.656-12.156l1.687-10.16h18.446l1.699,10.168
	c0.902,5.445,4.551,10.043,9.652,12.156c5.102,2.117,10.934,1.453,15.426-1.758l8.391-5.992l13.043,13.043L301.441,214
	c-3.211,4.492-3.875,10.324-1.757,15.426c2.113,5.101,6.711,8.75,12.156,9.652l10.16,1.699v18.446l-10.168,1.699
	c-5.445,0.902-10.043,4.551-12.156,9.652C297.559,275.676,298.223,281.508,301.434,286z"/>
<path class="st1" d="M250,210c-22.09,0-40,17.91-40,40c0,22.09,17.91,40,40,40s40-17.91,40-40
	C289.973,227.918,272.082,210.027,250,210z M250,274c-13.254,0-24-10.746-24-24c0-13.254,10.746-24,24-24s24,10.746,24,24
	C274,263.254,263.254,274,250,274z"/>
<rect x="82" y="218" class="st1" width="16" height="64"/>
<rect x="186" y="402" class="st1" width="128" height="16"/>
<rect x="402" y="218" class="st1" width="16" height="64"/>
<rect x="186" y="82" class="st1" width="128" height="16"/>
</svg>
