<?xml version="1.0" encoding="iso-8859-1"?>
<!-- Generator: Adobe Illustrator 23.0.1, SVG Export Plug-In . SVG Version: 6.00 Build 0)  -->
<svg version="1.1" id="Layer_1" xmlns="http://www.w3.org/2000/svg" xmlns:xlink="http://www.w3.org/1999/xlink" x="0px" y="0px"
	 viewBox="0 0 80 80" style="enable-background:new 0 0 80 80;" xml:space="preserve">
<path style="fill:#2E58FE;" d="M80,72.188c0,2.604,0,5.208,0,7.813c-6.866,0-13.733,0-20.597,0
	c-0.102-2.377-0.065-7.182,0.064-7.842c1.262,0,2.53,0,3.815,0c0-0.782,0.014-1.535-0.004-2.288
	c-0.019-0.761,0.125-1.535-0.212-2.352c-3.154-3.154-6.377-6.373-9.594-9.598c-0.375-0.376-0.722-0.781-1.083-1.175
	c-8.267,0-16.565,0-24.798,0c-0.308,0.351-0.557,0.67-0.841,0.954c-3.291,3.298-6.586,6.591-9.881,9.886
	c-0.265,0.564-0.135,1.159-0.146,1.739c-0.013,0.729-0.003,1.458-0.003,2.187c0,0.225,0,0.449,0,0.7c1.342,0,2.611,0,3.877,0
	c0.098,2.12,0.063,7.156-0.054,7.79C13.695,80,6.847,80,0,80c0-2.604,0-5.208,0-7.813c1.658,0,3.317,0,5.011,0
	c-0.062-0.369-0.133-0.679-0.162-0.992c-0.03-0.322-0.052-0.633-0.138-0.956c-0.107-0.4-0.039-0.835-0.157-1.262
	c-0.11-0.398-0.063-0.834-0.156-1.261c-0.138-0.636-0.127-1.305-0.178-1.96c-0.004-0.052,0.021-0.12-0.004-0.154
	c-0.272-0.369-0.037-0.817-0.171-1.18c-0.157-0.427-0.135-0.844-0.136-1.269c-0.005-3.201-0.02-6.401,0.007-9.602
	c0.009-1.071-0.127-2.145,0.129-3.218c0.15-0.632,0.122-1.306,0.174-1.961c0.004-0.052-0.022-0.13,0.004-0.152
	c0.268-0.228,0.176-0.54,0.138-0.796c-0.049-0.329,0.195-0.569,0.172-0.874c-0.03-0.405,0.047-0.791,0.139-1.188
	c0.089-0.382,0.079-0.788,0.141-1.185c0.088-0.562,0.211-1.11,0.32-1.666c0.194-0.984,0.676-1.81,1.174-2.641
	c0.363-0.606,0.849-1.123,1.329-1.632c0.873-0.925,1.792-1.806,2.677-2.692c0-11.868,0-23.707,0-35.547c19.792,0,39.583,0,59.375,0
	c0,11.861,0,23.721,0,35.521c1.135,1.257,2.39,2.3,3.414,3.575c0.572,0.713,1.278,1.844,1.592,2.781
	c0.363,1.085,0.549,2.197,0.618,3.334c0.006,0.104-0.044,0.249,0.008,0.305c0.248,0.268,0.104,0.587,0.15,0.879
	c0.046,0.292,0.121,0.58,0.151,0.873c0.064,0.628,0.108,1.258,0.16,1.886c0.004,0.051-0.015,0.122,0.012,0.149
	c0.301,0.312,0.068,0.695,0.145,1.035c0.077,0.339,0.165,0.668,0.163,1.028c-0.014,3.435,0.006,6.87-0.017,10.304
	c-0.006,0.941,0.11,1.883-0.127,2.829c-0.158,0.629-0.124,1.305-0.176,1.96c-0.004,0.052,0.022,0.126-0.004,0.153
	c-0.255,0.259-0.11,0.583-0.154,0.875c-0.044,0.292-0.121,0.58-0.151,0.873c-0.064,0.628-0.108,1.257-0.16,1.886
	c-0.004,0.051,0.016,0.125-0.011,0.149c-0.285,0.257-0.086,0.589-0.145,0.879c-0.058,0.284-0.112,0.57-0.179,0.914
	C76.683,72.188,78.342,72.188,80,72.188z M19.219,38.125c-0.052,0.052-0.104,0.104-0.156,0.156
	c-0.197,0.068-0.352,0.166-0.289,0.442c0.189,0,0.376,0,0.602,0c0-0.208,0-0.403,0-0.598c-0.017-0.043-0.034-0.086-0.051-0.13
	C19.289,38.039,19.254,38.082,19.219,38.125z M60.781,38.125c-0.017-0.043-0.034-0.086-0.051-0.13
	c-0.035,0.043-0.07,0.086-0.105,0.13c0,0.195,0,0.39,0,0.625c0.133,0,0.228,0.008,0.322-0.002c0.106-0.011,0.21-0.038,0.439-0.081
	c-0.213-0.183-0.331-0.284-0.449-0.385C60.885,38.229,60.833,38.177,60.781,38.125z M18.139,25.757c14.612,0,29.16,0,43.706,0
	c0.107-2.239,0.064-17.285-0.045-17.919c-14.552,0-29.099,0-43.66,0C18.139,13.817,18.139,19.772,18.139,25.757z M62.718,59.358
	c-1.864-1.864-3.724-3.724-5.583-5.583c-0.806-0.806-0.806-0.806-1.931-0.805c-0.049,0-0.098,0.014-0.112,0.016
	c-0.373,0.246-0.655,0.539-0.821,0.812c-0.208,0.853,0.175,1.37,0.697,1.887c3.09,3.059,6.158,6.14,9.229,9.218
	c0.266,0.267,0.494,0.576,0.74,0.855c0.64,0.725,0.851,1.548,0.848,2.47c-0.004,1.093-0.001,2.187-0.001,3.281
	c0,0.225,0,0.45,0,0.656c2.277,0,4.483,0,6.681,0c0.138-0.457-0.027-0.905,0.163-1.365c0.162-0.391,0.027-0.88,0.164-1.335
	c0.118-0.394,0.038-0.835,0.157-1.262c0.111-0.398,0.06-0.835,0.155-1.262c0.141-0.636,0.127-1.306,0.179-1.961
	c0.004-0.052-0.021-0.121,0.004-0.154c0.248-0.317,0.114-0.686,0.155-1.031c0.044-0.37,0.146-0.738,0.148-1.107
	c0.011-3.567,0.007-7.134,0.007-10.701c0-0.156,0.064-0.365-0.012-0.459c-0.208-0.256-0.169-0.542-0.131-0.803
	c0.048-0.326-0.17-0.573-0.171-0.874c-0.002-0.401-0.011-0.79-0.135-1.191c-0.115-0.371-0.026-0.781-0.149-1.187
	c-0.126-0.416-0.076-0.887-0.154-1.338c-0.076-0.437-0.112-0.891-0.175-1.338c-0.055-0.394-0.055-0.787-0.15-1.187
	c-0.278-1.173-0.752-2.228-1.607-3.085c-2.72-2.73-5.448-5.451-8.165-8.168c-0.223-0.043-0.476,0.079-0.642-0.161
	c-0.159,0.254-0.426,0.099-0.676,0.179c-0.259,0.294-0.542,0.616-0.847,0.963c0.076,0.405,0.148,0.789,0.212,1.129
	c1.934,1.934,3.825,3.836,5.731,5.723c0.467,0.463,0.794,1.015,1.132,1.565c0.571,0.929,0.743,1.994,0.756,3.034
	c0.021,1.695,0.14,3.393-0.1,5.094c-0.095,0.672-0.242,1.319-0.516,1.902c-0.777,1.649-1.641,3.257-2.506,4.95
	c0.618,0,1.178,0,1.721,0c0,0.907,0,1.759,0,2.627C65.585,59.358,64.184,59.358,62.718,59.358z M17.194,32.416
	c-2.692,2.692-5.418,5.415-8.14,8.142c-0.82,0.821-1.271,1.843-1.55,2.95c-0.078,0.31-0.144,0.632-0.15,0.95
	c-0.007,0.331-0.087,0.636-0.152,0.953c-0.079,0.387-0.015,0.785-0.147,1.19c-0.127,0.389-0.027,0.833-0.157,1.262
	c-0.119,0.393-0.031,0.834-0.157,1.263c-0.115,0.395-0.114,0.843-0.149,1.259c-0.074,0.886-0.217,1.766-0.202,2.667
	c0.043,2.707,0,5.415,0.025,8.123c0.008,0.837-0.098,1.674,0.125,2.519c0.165,0.626,0.127,1.305,0.178,1.96
	c0.004,0.052-0.022,0.124,0.004,0.153c0.21,0.238,0.178,0.529,0.144,0.796c-0.041,0.319,0.139,0.579,0.164,0.874
	c0.057,0.655,0.106,1.311,0.157,1.966c0.004,0.052-0.022,0.128,0.004,0.153c0.299,0.281,0.097,0.638,0.152,0.954
	c0.055,0.316,0.118,0.632,0.152,0.951C7.519,71.724,7.5,71.952,7.5,72.166c2.272,0,4.478,0,6.719,0c0-0.198,0-0.376,0-0.553
	c0-1.25,0.004-2.499-0.002-3.749c-0.003-0.608,0.212-1.164,0.488-1.671c0.225-0.413,0.579-0.765,0.917-1.104
	c3.16-3.173,6.33-6.336,9.494-9.505c0.247-0.248,0.464-0.525,0.665-0.754c0-0.375,0-0.687,0-0.923
	c-0.132-0.226-0.202-0.425-0.338-0.556c-0.155-0.15-0.368-0.241-0.582-0.374c-0.322,0-0.684,0-1.093,0
	c-0.224,0.192-0.486,0.388-0.715,0.617c-1.936,1.928-3.866,3.861-5.753,5.748c-1.477,0-2.9,0-4.309,0c0-0.886,0-1.738,0-2.644
	c0.581,0,1.141,0,1.758,0c-0.097-0.094-0.148-0.123-0.169-0.167c-0.647-1.32-1.257-2.66-1.949-3.955
	c-0.344-0.644-0.708-1.293-0.841-1.99c-0.14-0.734-0.282-1.487-0.233-2.256c0.095-1.486-0.139-2.981,0.149-4.468
	c0.117-0.602,0.211-1.196,0.476-1.759c0.329-0.7,0.732-1.343,1.279-1.891c1.564-1.566,3.131-3.129,4.693-4.696
	c0.462-0.463,0.988-0.877,1.281-1.882c0.092-0.435-0.456-0.847-0.854-1.211c-0.294-0.092-0.48-0.198-0.665-0.197
	C17.711,32.228,17.506,32.328,17.194,32.416z M67.006,25.766c0-7.736,0-15.409,0-23.073c-18.028,0-36.03,0-54.014,0
	c0,7.71,0,15.383,0,23.05c0.842,0,1.66,0,2.502,0c0-6.879,0-13.719,0-20.549c16.361,0,32.697,0,49.058,0c0,6.877,0,13.717,0,20.573
	C65.377,25.766,66.177,25.766,67.006,25.766z M20.863,30.938c12.766,0,25.519,0,38.254,0c0.347-0.266,0.672-0.542,1.026-0.774
	c0.197-0.129,0.444-0.18,0.667-0.271c0.679-0.279,1.414-0.321,2.089-0.164c0.857,0.199,1.632,0.654,2.269,1.297
	c0.593,0.598,1.191,1.192,1.831,1.832c0-1.524,0-2.966,0-4.383c-18.031,0-36.029,0-54.004,0c0,1.462,0,2.886,0,4.391
	c0.669-0.669,1.285-1.286,1.902-1.902c0.317-0.316,1.349-0.983,1.729-1.102c0.686-0.214,1.397-0.269,2.092-0.115
	C19.543,29.929,20.263,30.348,20.863,30.938z M61.889,77.317c5.191,0,10.31,0,15.454,0c0-0.439,0.003-0.852-0.001-1.265
	c-0.004-0.404,0.016-0.811-0.009-1.182c-5.196,0-10.315,0-15.444,0C61.889,75.696,61.889,76.495,61.889,77.317z M2.671,77.319
	c5.186,0,10.306,0,15.454,0c0-0.436,0.006-0.849-0.002-1.262c-0.007-0.406,0.032-0.815-0.019-1.189c-5.18,0-10.3,0-15.434,0
	C2.671,75.692,2.671,76.491,2.671,77.319z M42.643,33.618c-1.803,0-3.537,0-5.285,0c0,1.654,0,3.284,0,4.903
	c0.078,0.082,0.149,0.157,0.193,0.204c1.661,0,3.291,0,4.895,0c0.08-0.08,0.135-0.135,0.197-0.197
	C42.643,36.906,42.643,35.276,42.643,33.618z M42.64,41.424c-0.112-0.052-0.242-0.165-0.374-0.166c-1.506-0.012-3.013-0.012-4.519,0
	c-0.133,0.001-0.265,0.108-0.403,0.168c0,1.643,0,3.25,0.001,4.858c0,0.023,0.011,0.048,0.023,0.068
	c0.014,0.021,0.035,0.038,0.03,0.033c1.758,0,3.492,0,5.242,0C42.64,44.73,42.64,43.1,42.64,41.424z M42.642,49.088
	c-1.805,0-3.538,0-5.285,0c0,1.655,0,3.285,0,4.89c0.083,0.094,0.152,0.171,0.192,0.215c1.666,0,3.295,0,4.898,0
	c0.081-0.081,0.136-0.136,0.195-0.195C42.642,52.372,42.642,50.742,42.642,49.088z M34.818,46.393c0-1.75,0-3.433,0-5.143
	c-1.686,0-3.347,0-5.008,0.001c-0.023,0-0.048,0.011-0.068,0.024c-0.022,0.013-0.038,0.034-0.029,0.026c0,1.712,0,3.396,0,5.092
	C31.422,46.393,33.106,46.393,34.818,46.393z M29.701,38.724c1.75,0,3.433,0,5.143,0c0-1.686,0-3.347-0.001-5.008
	c0-0.023-0.012-0.048-0.024-0.068c-0.013-0.022-0.034-0.039-0.025-0.029c-1.713,0-3.396,0-5.093,0
	C29.701,35.329,29.701,37.012,29.701,38.724z M45.183,33.607c0,1.753,0,3.436,0,5.143c1.688,0,3.349,0,5.01-0.001
	c0.022,0,0.047-0.013,0.067-0.026c0.02-0.014,0.035-0.037,0.026-0.026c0-1.712,0-3.396,0-5.09
	C48.575,33.607,46.892,33.607,45.183,33.607z M34.817,54.206c0-1.753,0-3.436,0-5.143c-1.688,0-3.349,0-5.01,0.001
	c-0.022,0-0.047,0.013-0.066,0.026c-0.02,0.014-0.035,0.037-0.025,0.026c0,1.713,0,3.396,0,5.09
	C31.425,54.206,33.109,54.206,34.817,54.206z M50.3,41.277c-1.753,0-3.436,0-5.143,0c0,1.688,0,3.349,0.001,5.01
	c0,0.022,0.013,0.047,0.026,0.067c0.014,0.021,0.037,0.035,0.026,0.026c1.712,0,3.396,0,5.09,0C50.3,44.669,50.3,42.986,50.3,41.277
	z M45.184,49.076c0,1.754,0,3.437,0,5.143c1.689,0,3.35,0,5.011-0.001c0.022,0,0.047-0.014,0.066-0.027
	c0.02-0.015,0.035-0.037,0.024-0.025c0-1.714,0-3.397,0-5.089C48.574,49.076,46.89,49.076,45.184,49.076z M27.018,41.275
	c-1.7,0-3.33,0-4.935,0c-0.081,0.081-0.136,0.136-0.194,0.194c0,1.628,0,3.259,0,4.909c1.716,0,3.417,0,5.128,0
	C27.018,44.668,27.018,42.985,27.018,41.275z M52.983,46.38c1.753,0,3.436,0,5.13,0c0-1.657,0-3.288,0-4.988
	c-0.15-0.046-0.309-0.133-0.469-0.135c-0.857-0.014-1.715-0.007-2.573-0.007c-0.694,0-1.389,0-2.087,0
	C52.983,42.991,52.983,44.673,52.983,46.38z M21.902,33.608c0,1.702,0,3.332,0,4.935c0.082,0.082,0.137,0.137,0.191,0.191
	c1.632,0,3.263,0,4.909,0c0-1.718,0-3.419,0-5.126C25.29,33.608,23.608,33.608,21.902,33.608z M58.113,33.618
	c-1.751,0-3.433,0-5.107,0c0,1.726,0,3.427,0,5.109c1.668,0,3.299,0,4.907,0c0.078-0.078,0.133-0.133,0.2-0.2
	C58.113,36.909,58.113,35.278,58.113,33.618z M19.348,46.392c0-1.75,0-3.434,0-5.142c-0.569,0-1.112,0-1.656,0
	c-0.569,0-1.137,0-1.677,0c-0.286,0.286-0.555,0.533-0.799,0.803c-0.554,0.616-0.905,1.348-0.984,2.162
	c-0.069,0.715-0.014,1.442-0.014,2.177C15.953,46.392,17.637,46.392,19.348,46.392z M60.639,46.379c1.751,0,3.435,0,5.143,0
	c0-0.726,0.036-1.427-0.013-2.123c-0.03-0.429-0.146-0.863-0.348-1.256c-0.351-0.685-0.872-1.233-1.421-1.725
	c-1.124,0-2.236,0-3.36,0C60.639,42.985,60.639,44.669,60.639,46.379z M17.106,55.736c0.731-0.731,1.456-1.456,2.234-2.234
	c0-1.385,0-2.908,0-4.42c-1.717,0-3.399,0-5.08,0c-0.046,0.67,0.041,1.131,0.301,1.653c0.408,0.818,0.807,1.641,1.222,2.455
	C16.227,54.061,16.685,54.927,17.106,55.736z M65.75,49.086c-1.731,0-3.413,0-5.11,0c0,1.55,0,3.076,0,4.601
	c0.368,0.368,0.724,0.748,1.106,1.1c0.372,0.342,0.654,0.789,1.122,1.024c0.862-1.709,1.716-3.381,2.548-5.063
	C65.667,50.241,65.887,49.711,65.75,49.086z M52.99,51.269c1.674-1.199,3.354-1.324,5.1-0.1c0-0.744,0-1.406,0-2.072
	c-1.708,0-3.41,0-5.1,0C52.99,49.826,52.99,50.521,52.99,51.269z M27.004,51.276c0-0.764,0-1.477,0-2.214
	c-1.689,0-3.35,0-5.012,0.001c-0.022,0-0.047,0.014-0.066,0.027c-0.02,0.015-0.034,0.037-0.022,0.023c0,0.676,0,1.318,0,2.046
	C23.65,49.96,25.33,50.053,27.004,51.276z"/>
<path style="fill:#D2DAFE;" d="M60.938,38.281c-0.052-0.052-0.104-0.104-0.156-0.156C60.833,38.177,60.885,38.229,60.938,38.281z"/>
<path style="fill:#D0D9FE;" d="M19.219,38.125c-0.052,0.052-0.104,0.104-0.156,0.156C19.115,38.229,19.167,38.177,19.219,38.125z"/>
<path style="fill:#2E58FE;" d="M20.64,18.101c0-0.88,0-1.732,0-2.607c12.894,0,25.774,0,38.726,0
	c0.02,0.402,0.006,0.835,0.009,1.268c0.002,0.439,0.001,0.877,0.001,1.34C46.466,18.101,33.586,18.101,20.64,18.101z"/>
<path style="fill:#2E58FE;" d="M46.379,12.957c-8.585,0-17.142,0-25.727,0c0-0.862,0-1.714,0-2.571
	c0.678-0.114,22.867-0.161,25.727-0.049C46.379,11.187,46.379,12.039,46.379,12.957z"/>
<path style="fill:#2E58FE;" d="M38.736,20.649c0,0.824,0,1.623,0,2.464c-0.126,0.054-0.255,0.139-0.393,0.161
	c-0.178,0.029-0.363,0.007-0.545,0.007c-5.698,0-11.395,0-17.163,0c-0.019-0.427-0.007-0.861-0.009-1.293
	c-0.002-0.438,0-0.877,0-1.339C26.657,20.649,32.66,20.649,38.736,20.649z"/>
<path style="fill:#2E58FE;" d="M41.266,23.054c0-0.785,0-1.584,0-2.406c6.019,0,12.023,0,18.099,0
	c0.021,0.402,0.007,0.835,0.009,1.267c0.003,0.439,0.001,0.877,0.001,1.367c-0.278,0-0.532,0-0.786,0
	c-5.515,0-11.031,0.001-16.546-0.003C41.772,23.278,41.46,23.389,41.266,23.054z"/>
<path style="fill:#2F58FE;" d="M59.361,10.339c0,0.875,0,1.726,0,2.603c-3.412,0-6.813,0-10.288,0
	c-0.024-0.398-0.007-0.83-0.01-1.261c-0.003-0.439-0.001-0.878-0.001-1.343C52.488,10.339,55.889,10.339,59.361,10.339z"/>
</svg>
