<?xml version="1.0" encoding="utf-8"?>
<!-- Generator: Adobe Illustrator 23.0.1, SVG Export Plug-In . SVG Version: 6.00 Build 0)  -->
<svg version="1.1" id="Layer_1" xmlns="http://www.w3.org/2000/svg" xmlns:xlink="http://www.w3.org/1999/xlink" x="0px" y="0px"
	 viewBox="0 0 500 500" style="enable-background:new 0 0 500 500;" xml:space="preserve">
<style type="text/css">
	.st0{display:none;fill:#7394FF;}
	.st1{fill:#2E58FF;}
</style>
<path class="st0" d="M296.2,170c3,2.5,3.8,6.8,1.8,10.1l-3.4,5.9h20.4v-32h-38.3L296.2,170z"/>
<path class="st0" d="M272.3,211.3l-30.8-11.5c-1.7,1.1-3.5,2.2-5.3,3.1l-5.4,32.4c-0.6,3.9-4,6.7-7.9,6.7h-11.8v40h88v-16
	c0-3.3,2-6.2,5-7.4l21.4-8.6h-18.5v-16h32v-13.3l-14.3-19c-0.6,0.2-1.1,0.3-1.7,0.4h-37.7l-3.4,5.9
	C280,211.2,275.9,212.7,272.3,211.3z M259.1,250h-16v-16h16V250z M291.1,234v16h-16v-16H291.1z"/>
<path class="st0" d="M291.1,381.3l-29.7-29.7c-1.5-1.5-2.3-3.5-2.3-5.7v-48h-16v88h48V381.3z"/>
<circle class="st0" cx="67.1" cy="250" r="8"/>
<path class="st0" d="M331.1,183.3l22.4,29.9c1,1.4,1.6,3.1,1.6,4.8v32c0,3.3-2,6.2-5,7.4l-35,14v54.2c3.7,2.3,7.5,4.6,11.3,6.9h0.1
	l0,0c17.1,11.1,34.9,21,53.4,29.5l39.2,0v-40c0-2.1,0.8-4.2,2.3-5.7l3.1-3.1c-13.3-1.9-25.6-8.1-35.1-17.6c-3-3.1-3-8.1,0.1-11.2
	c3.1-3.1,8.1-3.1,11.2-0.1c8.7,8.8,20.6,13.7,33,13.7h1.4v-24c0-4.4,3.6-8,8-8h19.7l-27-60.8c-1.3-3-0.7-6.6,1.7-8.9
	c8.8-8.7,13.7-20.6,13.7-33c0.2-46.9-26.4-89.8-68.4-110.6l-17.1-8.6l-34.5,48.4V183.3z M395.1,194h16v-16c0-4.4,3.6-8,8-8
	s8,3.6,8,8v24c0,4.4-3.6,8-8,8h-24c-4.4,0-8-3.6-8-8C387.1,197.6,390.6,194,395.1,194z M347.1,90h16v32h-16V90z M347.1,138h16v16
	h-16V138z M347.1,170h16v16h-16V170z"/>
<path class="st0" d="M296.2,122l-19.4,16h38.3v-32h-20.4l3.4,5.9C299.9,115.2,299.2,119.5,296.2,122z"/>
<circle class="st0" cx="67.1" cy="50" r="8"/>
<path class="st0" d="M299.1,330v-32h-24v44.7l22.4,22.4l13.9-23.1c-2.8-1.7-5.5-3.4-8.5-5.3C300.5,335.3,299.1,332.8,299.1,330z"/>
<path class="st0" d="M40.6,146.3c-2,0.6-3.7,2.1-4.7,4c-1,1.9-1.1,4-0.5,6c1.4,4.2,5.9,6.5,10.1,5.2c3.9-1.5,6-5.9,4.7-9.9
	C48.9,147.6,44.7,145.3,40.6,146.3z"/>
<path class="st0" d="M243.1,418c0,1.9-0.7,3.8-2,5.3l-30,34.3v0.4h-0.4l-14,16h62.4v-72h-16V418z"/>
<path class="st0" d="M211.1,433.3l16-18.3V298h-48v112c0,2.1-0.8,4.2-2.3,5.7L118.4,474h57.1l19.6-22.4V394h16V433.3z M195.1,330h16
	v16h-16V330z M195.1,378v-16h16v16H195.1z"/>
<path class="st0" d="M230.7,56.7l5.4,32.4c1.8,0.9,3.5,2,5.3,3.1l30.8-11.5c3.7-1.4,7.8,0.1,9.7,3.5l3.4,5.9h29.7
	c0-1.7,0.5-3.3,1.5-4.6L341.8,50h-50.7c-4.4,0-8-3.6-8-8V26h-64v24h3.8C226.8,50,230.1,52.8,230.7,56.7z"/>
<path class="st0" d="M291.1,426v-24h-16v72h60.7l-42.3-42.3C291.9,430.2,291.1,428.1,291.1,426z"/>
<path class="st0" d="M216.1,226l5-29.8c0.4-2.7,2.2-5,4.7-6c3.5-1.5,6.7-3.4,9.7-5.7c2.2-1.6,5-2,7.6-1.1l28.4,10.6l9.2-16
	l-23.4-19.2c-2.1-1.7-3.2-4.4-2.9-7.1c0.5-3.7,0.5-7.5,0-11.3c-0.3-2.7,0.8-5.4,2.9-7.1l23.4-19.3l-9.2-16l-28.4,10.7
	c-2.5,1-5.4,0.5-7.6-1.1c-3-2.3-6.3-4.2-9.7-5.7c-2.5-1.1-4.3-3.4-4.7-6l-5-29.9h-18.4l-5,29.8c-0.4,2.7-2.2,5-4.7,6
	c-3.5,1.5-6.7,3.4-9.7,5.7c-2.2,1.6-5,2-7.6,1.1L142.2,98l-9.2,16l23.4,19.2c2.1,1.7,3.2,4.4,2.9,7.1c-0.5,3.7-0.5,7.5,0,11.3
	c0,0.2,0,0.5,0,0.6c0,0.1,0.1,0.2,0.1,0.3c0,0.1,0,0.2-0.1,0.3c0,0.9-0.2,1.9-0.5,2.8l-0.1,0.1c-0.4,0.8-0.8,1.6-1.4,2.2
	c-0.1,0.2-0.3,0.3-0.4,0.5c-0.1,0.2-0.3,0.3-0.4,0.4L133,178l9.2,16l28.4-10.7c2.5-1,5.4-0.5,7.6,1.1c3,2.3,6.3,4.2,9.7,5.7
	c2.5,1.1,4.3,3.4,4.7,6l5,29.9H216.1z M174.9,146c0-17.7,14.3-32,32-32c17.7,0,32,14.3,32,32s-14.3,32-32,32
	C189.2,178,174.9,163.7,174.9,146z"/>
<ellipse transform="matrix(0.9871 -0.1602 0.1602 0.9871 -20.7155 35.0203)" class="st0" cx="206.9" cy="146" rx="16" ry="16"/>
<path class="st1" d="M395.1,210h24c4.4,0,8-3.6,8-8v-24c0-4.4-3.6-8-8-8s-8,3.6-8,8v16h-16c-4.4,0-8,3.6-8,8
	C387.1,206.4,390.6,210,395.1,210z"/>
<path class="st1" d="M238.9,146c0-17.7-14.3-32-32-32c-17.7,0-32,14.3-32,32s14.3,32,32,32C224.5,178,238.9,163.7,238.9,146z
	 M190.9,146c0-8.8,7.2-16,16-16c8.8,0,16,7.2,16,16s-7.2,16-16,16C198,162,190.9,154.8,190.9,146z"/>
<path class="st1" d="M362.5,485.1c1.2-3,0.6-6.4-1.7-8.7l-53.7-53.7v-42.5l17.9-29.8c30.2,18.2,48.5,27.6,54.1,27.6h48
	c4.4,0,8-3.6,8-8v-44.7l13.6-13.6c1.5-1.5,2.3-3.5,2.4-5.7v-24h11.7c5.4,0,10.5-2.7,13.4-7.3c2.9-4.5,3.4-10.3,1.2-15.2l-24.9-56
	c9.4-11.2,14.6-25.5,14.6-40.1c0.2-52.9-29.8-101.4-77.2-124.9l-23.2-11.6c-3.5-1.8-7.8-0.7-10.1,2.5l-3.4,4.6h-54.2V18
	c0-4.4-3.6-8-8-8h-80c-4.4,0-8,3.6-8,8v32h-12.2c-3.9,0-7.3,2.8-7.9,6.7l-5.4,32.4c-1.8,0.9-3.6,2-5.3,3.1l-30.8-11.5
	c-3.7-1.4-7.8,0.1-9.7,3.5l-8.1,14c-0.2,0-0.4-0.1-0.6-0.1h-48V72.5c11-3.9,17.6-15.2,15.7-26.7c-2-11.5-12-19.9-23.7-19.9
	c-11.7,0-21.7,8.4-23.7,19.9c-2,11.5,4.6,22.8,15.7,26.7V106c0,4.4,3.6,8,8,8h47.9c-0.7,2.9,0.3,6.1,2.6,8l25.4,20.9
	c0,0.6,0,1.2,0,1.8l-77.3,1.2C62,135.7,52,129.2,41.3,130c-10.7,0.8-19.7,8.6-21.8,19.2c-2.1,10.6,3,21.2,12.6,26.1
	c3.4,1.7,7.1,2.7,11,2.7c10.2,0,19.2-6.5,22.6-16.1l62.9-1l-11,9.1c-3,2.5-3.8,6.8-1.8,10.2l14.9,25.8l0.3,36H91.1
	c-0.5,0-0.9,0.1-1.4,0.3c-3.8-11.1-15-17.9-26.6-16C51.5,228.2,43,238.3,43,250c0,11.7,8.5,21.8,20.1,23.7
	c11.6,1.9,22.9-4.8,26.6-16c0.5,0.1,0.9,0.2,1.4,0.3h48c2.1,0,4.2-0.9,5.7-2.4c1.5-1.5,2.3-3.6,2.3-5.7l-0.4-40.5l25.6-9.6
	c1.7,1.1,3.5,2.2,5.3,3.1l5.4,32.4c0.6,3.9,4,6.7,7.9,6.7h4.2v40h-24c-4.4,0-8,3.6-8,8v116.7l-69.7,69.7c-2.3,2.3-3,5.7-1.7,8.7
	c1.2,3,4.2,4.9,7.4,4.9h256C358.3,490,361.2,488.1,362.5,485.1z M67.1,58c-4.4,0-8-3.6-8-8c0-4.4,3.6-8,8-8c4.4,0,8,3.6,8,8
	C75.1,54.4,71.5,58,67.1,58z M45.5,161.5c-4.2,1.4-8.7-1-10.1-5.2c-0.6-2-0.5-4.2,0.5-6c1-1.9,2.6-3.4,4.7-4c4.1-1,8.3,1.3,9.6,5.3
	C51.5,155.7,49.5,160,45.5,161.5z M67.1,258c-4.4,0-8-3.6-8-8c0-4.4,3.6-8,8-8c4.4,0,8,3.6,8,8C75.1,254.4,71.5,258,67.1,258z
	 M297.5,365.1l-22.4-22.4V298h24v32c0,2.8,1.4,5.3,3.8,6.8c3,1.9,5.7,3.5,8.5,5.3L297.5,365.1z M298,111.9l-3.4-5.9h20.4v32h-38.3
	l19.4-16C299.2,119.5,299.9,115.2,298,111.9z M315.1,154v32h-20.4l3.4-5.9c1.9-3.4,1.2-7.7-1.8-10.1l-19.4-16H315.1z M285.4,202
	h37.7c0.6,0,1.2-0.2,1.7-0.4l14.3,19V234h-32v16h18.5l-21.4,8.6c-3,1.2-5,4.2-5,7.4v16h-88v-40h11.8c3.9,0,7.2-2.8,7.9-6.7l5.4-32.4
	c1.8-0.9,3.5-2,5.3-3.1l30.8,11.5c3.7,1.4,7.8-0.1,9.7-3.5L285.4,202z M243.1,298h16v48c0,2.1,0.8,4.2,2.3,5.7l29.7,29.7v4.7h-48
	V298z M365.6,44.2l17.1,8.6c42,20.8,68.5,63.7,68.4,110.6c0,12.4-4.9,24.3-13.7,33c-2.3,2.3-3,5.9-1.7,8.9l27,60.8h-19.7
	c-4.4,0-8,3.6-8,8v24h-1.4c-12.4,0-24.2-4.9-33-13.7c-3.1-3-8.1-3-11.2,0.1c-3.1,3.1-3.1,8.1-0.1,11.2c9.5,9.5,21.8,15.7,35.1,17.6
	l-3.1,3.1c-1.5,1.5-2.3,3.5-2.3,5.7v40l-39.2,0c-18.5-8.5-36.3-18.4-53.4-29.5l0,0h-0.1c-3.8-2.3-7.5-4.6-11.3-6.9v-54.2l35-14
	c3-1.2,5-4.2,5-7.4v-32c0-1.7-0.6-3.4-1.6-4.8l-22.4-29.9V92.6L365.6,44.2z M219.1,26h64v16c0,4.4,3.6,8,8,8h50.7l-25.2,35.4
	c-1,1.4-1.5,3-1.5,4.6h-29.7l-3.4-5.9c-2-3.4-6.1-4.9-9.7-3.5l-30.8,11.5c-1.7-1.1-3.5-2.2-5.3-3.1l-5.4-32.4
	c-0.6-3.9-4-6.7-7.9-6.7h-3.8V26z M192.7,196.1c-0.4-2.7-2.2-5-4.7-6c-3.5-1.5-6.7-3.4-9.7-5.7c-2.2-1.6-5-2-7.6-1.1L142.2,194
	l-9.2-16l23.4-19.3c0.1-0.1,0.3-0.3,0.4-0.4c0.2-0.1,0.3-0.3,0.4-0.5c0.6-0.6,1.1-1.4,1.4-2.2l0.1-0.1c0.3-0.9,0.5-1.8,0.5-2.8
	c0-0.1,0.1-0.2,0.1-0.3c0-0.1,0-0.2-0.1-0.3c0-0.1,0-0.4,0-0.6c-0.5-3.7-0.5-7.5,0-11.3c0.3-2.7-0.8-5.4-2.9-7.1L133,114l9.2-16
	l28.4,10.6c2.6,1,5.4,0.5,7.6-1.1c3-2.3,6.3-4.2,9.7-5.7c2.5-1.1,4.3-3.4,4.7-6l5-29.8h18.4l5,29.9c0.4,2.7,2.2,5,4.7,6
	c3.5,1.5,6.7,3.4,9.7,5.7c2.2,1.6,5,2,7.6,1.1L271.5,98l9.2,16l-23.4,19.3c-2.1,1.7-3.2,4.4-2.9,7.1c0.5,3.7,0.5,7.5,0,11.3
	c-0.3,2.7,0.8,5.4,2.9,7.1l23.4,19.2l-9.2,16l-28.4-10.6c-2.5-1-5.4-0.5-7.6,1.1c-3,2.3-6.3,4.2-9.7,5.7c-2.5,1.1-4.3,3.4-4.7,6
	l-5,29.8h-18.5L192.7,196.1z M195.1,451.6L175.4,474h-57.1l58.3-58.3c1.5-1.5,2.3-3.5,2.3-5.7V298h48v117l-16,18.3V394h-16V451.6z
	 M259.1,474h-62.4l14-16h0.4v-0.4l30-34.3c1.3-1.5,2-3.3,2-5.3v-16h16V474z M275.1,474v-72h16v24c0,2.1,0.8,4.2,2.3,5.7l42.3,42.3
	H275.1z"/>
<rect x="195.1" y="330" class="st1" width="16" height="16"/>
<rect x="195.1" y="362" class="st1" width="16" height="16"/>
<rect x="243.1" y="234" class="st1" width="16" height="16"/>
<rect x="275.1" y="234" class="st1" width="16" height="16"/>
<rect x="347.1" y="90" class="st1" width="16" height="32"/>
<rect x="347.1" y="138" class="st1" width="16" height="16"/>
<rect x="347.1" y="170" class="st1" width="16" height="16"/>
</svg>
