<?xml version="1.0" encoding="iso-8859-1"?>
<!-- Generator: Adobe Illustrator 23.0.1, SVG Export Plug-In . SVG Version: 6.00 Build 0)  -->
<svg version="1.1" id="Capa_1" xmlns="http://www.w3.org/2000/svg" xmlns:xlink="http://www.w3.org/1999/xlink" x="0px" y="0px"
	 viewBox="-43 147 500 500" style="enable-background:new -43 147 500 500;" xml:space="preserve">
<g>
	<path style="fill:#2E58FF;" d="M291,469c0-4.418-3.582-8-8-8H123c-4.418,0-8,3.582-8,8s3.582,8,8,8h72v152c0,4.418,3.582,8,8,8
		s8-3.582,8-8V477h72C287.418,477,291,473.418,291,469z"/>
	<path style="fill:#2E58FF;" d="M307,557c0-4.418,3.582-8,8-8h72c13.255,0,24-10.745,24-24v-96c0-22.091-17.909-40-40-40
		s-40,17.909-40,40v64c0,4.418-3.582,8-8,8h-40c-13.255,0-24,10.745-24,24v88c0,13.255,10.745,24,24,24s24-10.745,24-24V557z
		 M291,557v56c0,4.418-3.582,8-8,8s-8-3.582-8-8v-88c0-4.418,3.582-8,8-8h40c13.255,0,24-10.745,24-24v-64c0-13.255,10.745-24,24-24
		s24,10.745,24,24v96c0,4.418-3.582,8-8,8h-72C301.745,533,291,543.745,291,557z"/>
	<path style="fill:#2E58FF;" d="M331,341c0,22.091,17.909,40,40,40s40-17.909,40-40s-17.909-40-40-40
		C348.92,301.026,331.026,318.92,331,341z M395,341c0,13.255-10.745,24-24,24s-24-10.745-24-24s10.745-24,24-24S395,327.745,395,341
		z"/>
	<path style="fill:#2E58FF;" d="M131,637c13.255,0,24-10.745,24-24v-88c0-13.255-10.745-24-24-24H91c-4.418,0-8-3.582-8-8v-64
		c0-22.091-17.909-40-40-40S3,406.909,3,429v96c0,13.255,10.745,24,24,24h72c4.418,0,8,3.582,8,8v56
		C107,626.255,117.745,637,131,637z M99,533H27c-4.418,0-8-3.582-8-8v-96c0-13.255,10.745-24,24-24s24,10.745,24,24v64
		c0,13.255,10.745,24,24,24h40c4.418,0,8,3.582,8,8v88c0,4.418-3.582,8-8,8s-8-3.582-8-8v-56C123,543.745,112.255,533,99,533z"/>
	<path style="fill:#2E58FF;" d="M43,381c22.091,0,40-17.909,40-40s-17.909-40-40-40S3,318.909,3,341
		C3.026,363.08,20.92,380.974,43,381z M43,317c13.255,0,24,10.745,24,24s-10.745,24-24,24s-24-10.745-24-24S29.745,317,43,317z"/>
	<path style="fill:#2E58FF;" d="M145.4,445h115.2c12.362-0.022,22.378-10.038,22.4-22.4v-18.672c-0.012-1.949,0.873-3.796,2.4-5.008
		l34.584-27.672c3.45-2.76,4.009-7.794,1.249-11.245c-1.872-2.34-4.896-3.438-7.833-2.843l-22.76,4.544
		c-1.883,0.378-3.836-0.11-5.32-1.328c-1.493-1.217-2.347-3.05-2.32-4.976c-0.022-12.362-10.038-22.378-22.4-22.4H145.4
		c-12.362,0.022-22.378,10.038-22.4,22.4v67.2C123.022,434.962,133.038,444.978,145.4,445z M139,355.4c0-3.535,2.865-6.4,6.4-6.4
		h115.2c3.535,0,6.4,2.865,6.4,6.4c-0.013,11.222,8.28,20.721,19.4,22.224l-10.976,8.8c-5.337,4.24-8.44,10.688-8.424,17.504V422.6
		c0,3.535-2.865,6.4-6.4,6.4H145.4c-3.535,0-6.4-2.865-6.4-6.4V355.4z"/>
	<path style="fill:#2E58FF;" d="M93.504,314.816c2.832,2.676,7.18,2.922,10.296,0.584l59.736-44.8c1.387-1.035,3.07-1.596,4.8-1.6
		H267c13.255,0,24-10.745,24-24v-64c0-13.255-10.745-24-24-24H131c-13.255,0-24,10.745-24,24v64
		c0.002,8.336,4.33,16.075,11.432,20.44l-26.088,39.12C90.179,307.804,90.669,312.137,93.504,314.816z M123,181c0-4.418,3.582-8,8-8
		h136c4.418,0,8,3.582,8,8v64c0,4.418-3.582,8-8,8h-98.664c-5.192,0.008-10.242,1.691-14.4,4.8l-22.4,16.8l6.096-9.136
		c2.465-3.666,1.492-8.637-2.175-11.103c-1.318-0.886-2.869-1.36-4.457-1.361c-4.418,0-8-3.582-8-8V181z"/>
	<path style="fill:#2E58FF;" d="M147,221h104c4.418,0,8-3.582,8-8s-3.582-8-8-8H147c-4.418,0-8,3.582-8,8S142.582,221,147,221z"/>
	<path style="fill:#2E58FF;" d="M163,397h80c4.418,0,8-3.582,8-8s-3.582-8-8-8h-80c-4.418,0-8,3.582-8,8S158.582,397,163,397z"/>
</g>
</svg>
