<?xml version="1.0" encoding="utf-8"?>
<!-- Generator: Adobe Illustrator 23.0.1, SVG Export Plug-In . SVG Version: 6.00 Build 0)  -->
<svg version="1.1" id="Layer_1" xmlns="http://www.w3.org/2000/svg" xmlns:xlink="http://www.w3.org/1999/xlink" x="0px" y="0px"
	 viewBox="0 0 500 500" style="enable-background:new 0 0 500 500;" xml:space="preserve">
<style type="text/css">
	.st0{fill:#2E58FF;}
</style>
<g>
	<path class="st0" d="M450,42H132.4l-48-32H34c-13.3,0-24,10.7-24,24v416c0,22.1,17.9,40,40,40h384c30.9,0,56-25.1,56-56V82
		C490,59.9,472.1,42,450,42L450,42z M474,434c0,22.1-17.9,40-40,40H82c5.2-6.9,8-15.3,8-24V146c0-13.3,10.7-24,24-24h360V434z
		 M474,106H114c-22.1,0-40,17.9-40,40v304c0,13.3-10.7,24-24,24s-24-10.7-24-24V34c0-4.4,3.6-8,8-8h45.6l48,32H450
		c13.3,0,24,10.7,24,24V106z M474,106"/>
	<rect x="442" y="74" class="st0" width="16" height="16"/>
	<rect x="42" y="434" class="st0" width="16" height="16"/>
	<path class="st0" d="M42,114v304h16V114c0-13.3,10.7-24,24-24h344V74H82C59.9,74,42,91.9,42,114L42,114z M42,114"/>
	<path class="st0" d="M194,346h48v72c0,4.4,3.6,8,8,8h64c4.4,0,8-3.6,8-8v-72h48c29.2,0,55.6-17.7,66.6-44.7
		c11.1-27.1,4.7-58.1-16.1-78.6c-20.8-20.5-52-26.4-78.9-14.8c-10.8-31.2-39.5-52.5-72.5-53.8c-32.9-1.3-63.3,17.8-76.5,48
		c-39.8,0.4-71.7,32.9-71.3,72.7C121.7,314.4,154.2,346.4,194,346L194,346z M306,306v104h-48V306c0-4.4-3.6-8-8-8h-19l51-45.3
		l51,45.3h-19C309.6,298,306,301.6,306,306L306,306z M194,218c1.2,0,2.4,0.1,3.6,0.1c3.6,0.2,6.8-2,8-5.3
		c9.5-27.2,36-44.6,64.7-42.7c28.7,1.9,52.6,22.8,58.4,51c0.5,2.5,2.3,4.7,4.7,5.7c2.4,1,5.1,0.8,7.3-0.5
		c20.2-12.4,46.1-10.7,64.5,4.2c18.4,14.9,25.5,39.8,17.6,62.2c-7.9,22.4-29,37.3-52.8,37.3h-48v-16h32c3.3,0,6.3-2,7.5-5.2
		c1.2-3.1,0.3-6.6-2.2-8.8l-72-64c-3-2.7-7.6-2.7-10.6,0l-72,64c-2.5,2.2-3.3,5.7-2.2,8.8c1.2,3.1,4.2,5.2,7.5,5.2h32v16h-48
		c-30.9,0-56-25.1-56-56S163.1,218,194,218L194,218z M194,218"/>
	<path class="st0" d="M442,434c0,4.4-3.6,8-8,8h-32v16h32c13.3,0,24-10.7,24-24v-32h-16V434z M442,434"/>
</g>
</svg>
