<?xml version="1.0" encoding="iso-8859-1"?>
<!-- Generator: Adobe Illustrator 23.0.1, SVG Export Plug-In . SVG Version: 6.00 Build 0)  -->
<svg version="1.1" id="Layer_1" xmlns="http://www.w3.org/2000/svg" xmlns:xlink="http://www.w3.org/1999/xlink" x="0px" y="0px"
	 viewBox="-43 147 500 500" style="enable-background:new -43 147 500 500;" xml:space="preserve">
<path style="display:none;fill:#7394FF;" d="M60.563,277.101c-13.125-6.375-49.25-12.125-82.729-14.771v165.917h44.479
	C30.063,403.788,55.042,322.726,60.563,277.101z"/>
<path style="display:none;fill:#7394FF;" d="M65.021,427.893c8.5,8.875,18.125,18.917,23.688,23.604
	c39.604,33.167,85.458,67.375,92.771,72.188c6.104,4.042,18.583,8.729,25.521,8.729c2.018,0,3.639-0.111,4.973-0.29
	c-15.765-14.852-36.781-37.145-43.827-44.689c-3.917-4.208-3.708-10.792,0.5-14.729c4.188-3.938,10.792-3.708,14.729,0.5
	c5.938,6.354,36.333,38.708,51.188,51.229c0.11,0.093,0.206,0.195,0.311,0.291c0,0,0.001,0.001,0.001,0.001
	c4.146,3.792,8.771,3.063,11.958,1.854c5.029-1.951,9.158-6.225,11.12-11.169c-17.301-15.498-47.865-48.494-48.204-48.852
	c-3.896-4.229-3.604-10.833,0.625-14.729c4.25-3.875,10.813-3.625,14.729,0.625c7.083,7.708,38.438,41.021,50.917,51
	c0.22,0.176,0.423,0.365,0.625,0.554c2.633,2.387,9.553,2.95,16.187-0.408c2.13-1.065,6.521-3.762,7.724-8.28
	c-15.615-14.234-54.558-54.826-59.391-59.866c-3.979-4.146-3.854-10.75,0.313-14.729c4.146-4,10.75-3.854,14.729,0.313
	c20.486,21.355,53.519,55.174,61.271,61.385c3.133,1.802,8.482,0.637,12.437-2.76c2.813-2.396,6.958-7.625,3.104-15.646
	c-7.813-16.25-42.542-44.333-73.167-69.104c-16.938-13.688-33.021-26.708-44.938-37.896c-3.042,1.229-5.333,2.25-7.292,3.125
	c-5.417,2.438-9.021,3.938-15.646,4.958c-16.042,21.292-37.583,28.75-61.188,20.958c-9.417-3.104-15.75-9.771-17.896-18.771
	c-4.979-21.056,14.188-49.729,28.421-64.042H77.423c-6.924,35.842-19.499,79.859-28.204,108.587
	C53.041,415.422,58.81,421.407,65.021,427.893z"/>
<path style="display:none;fill:#7394FF;" d="M156.208,317.809c-14.229,14.229-25.208,35.521-23.021,44.667
	c0.313,1.333,0.896,2.729,4.146,3.813c10.188,3.417,25.438,5.292,40.167-16.729c1.729-2.583,4.521-4.25,7.625-4.563
	c7.021-0.708,8.771-1.5,13.979-3.833c3.417-1.521,7.75-3.479,14.771-6.021c3.771-1.354,8.042-0.438,10.896,2.438
	c11.396,11.396,29.271,25.854,48.187,41.146c28.682,23.203,58.21,47.09,72.576,66.283l19.035-12.785
	c-10.697-32.078-27.221-78.289-39.448-108.011c-10.868-3.891-45.823-16.67-80.726-32.279
	C207.521,275.455,190.063,283.934,156.208,317.809z"/>
<path style="display:none;fill:#7394FF;" d="M391.875,449.08h44.292V282.538c-49.563,1.167-83.708,10.438-99.604,15.833
	C352.833,333.038,382,416.913,391.875,449.08z"/>
<path style="fill:#2E58FF;" d="M175.75,292.83c0,5.75-4.667,10.417-10.417,10.417h-24.017
	c-14.232,14.313-33.399,42.986-28.421,64.042c2.146,9,8.479,15.667,17.896,18.771c23.604,7.792,45.146,0.333,61.188-20.958
	c6.625-1.021,10.229-2.521,15.646-4.958c1.958-0.875,4.25-1.896,7.292-3.125c11.917,11.188,28,24.208,44.938,37.896
	c30.625,24.771,65.354,52.854,73.167,69.104c3.854,8.021-0.292,13.25-3.104,15.646c-3.956,3.396-9.304,4.562-12.437,2.76
	c0.052,0.042,0.116,0.097,0.167,0.136c4.521,3.563,5.292,10.125,1.729,14.625c-2.083,2.604-5.146,3.979-8.208,3.979
	c-2.25,0-4.542-0.729-6.438-2.229c-1.069-0.844-2.486-2.077-4.171-3.613c-1.203,4.518-5.595,7.215-7.724,8.28
	c-6.634,3.359-13.554,2.796-16.187,0.408c3.908,3.674,4.407,9.813,1,14.092c-2.063,2.542-5.104,3.896-8.146,3.896
	c-2.271,0-4.583-0.75-6.5-2.271c-1.494-1.196-3.195-2.656-5.046-4.315c-1.962,4.944-6.091,9.217-11.12,11.169
	c-3.188,1.208-7.813,1.937-11.958-1.854c0,0-0.001-0.001-0.001-0.001c4.099,3.752,4.554,10.09,0.939,14.397
	c-2.063,2.437-5.021,3.708-7.979,3.708c-2.375,0-4.75-0.813-6.708-2.458c-2.689-2.27-5.805-5.095-9.152-8.249
	c-1.334,0.179-2.955,0.29-4.973,0.29c-6.938,0-19.417-4.688-25.521-8.729c-7.313-4.813-53.167-39.021-92.771-72.188
	c-5.563-4.688-15.188-14.729-23.688-23.604c-6.211-6.486-11.98-12.471-15.802-16.059c-2.847,9.397-5.279,17.154-6.964,22.456
	c2.372,2.45,4.985,5.187,7.703,8.02c9.292,9.708,18.896,19.75,25.354,25.167c38.792,32.479,85.417,67.542,94.708,73.646
	c7.667,5.042,24.188,12.125,36.979,12.125c10.271,0,18.167-2.354,23.646-6.958c7.333,2.854,15.667,2.875,23.688-0.25
	c9.479-3.667,17.271-11.063,21.688-20.021c8.208,1.75,17.604,0.521,26.146-3.771c8.354-4.208,14.396-10.646,17.396-18.167
	c8.292,0.438,16.833-2.5,23.896-8.563c9.524-8.147,13.543-19.901,11.294-31.6l-5.732,3.85c-1.792,1.208-3.812,1.771-5.792,1.771
	c-3.354,0-6.646-1.625-8.667-4.604c-3.208-4.771-1.938-11.25,2.833-14.458l8.139-5.467c-14.367-19.194-43.894-43.081-72.576-66.283
	c-18.917-15.292-36.792-29.75-48.187-41.146c-2.854-2.875-7.125-3.792-10.896-2.438c-7.021,2.542-11.354,4.5-14.771,6.021
	c-5.208,2.333-6.958,3.125-13.979,3.833c-3.104,0.312-5.896,1.979-7.625,4.563c-14.729,22.021-29.979,20.146-40.167,16.729
	c-3.25-1.083-3.833-2.479-4.146-3.813c-2.188-9.146,8.792-30.438,23.021-44.667c33.854-33.875,51.313-42.354,88.188-25.875
	c34.903,15.609,69.858,28.388,80.726,32.279c-4.924-11.969-9.151-21.268-12.017-25.883c-0.194-0.315-0.37-0.639-0.528-0.968
	c-15.744-5.967-37.712-14.644-59.66-24.469c-37.583-16.8-61.822-11.668-88.68,9.521h1.097
	C171.083,282.413,175.75,287.08,175.75,292.83z"/>
<path style="fill:#2E58FF;" d="M141.316,303.247h24.017c5.75,0,10.417-4.667,10.417-10.417s-4.667-10.417-10.417-10.417h-1.097
	H80.889c-0.862,6.465-2.044,13.475-3.466,20.833H141.316z"/>
<path style="fill:#2E58FF;" d="M337.396,450.476c-4.771,3.208-6.042,9.688-2.833,14.458c2.021,2.979,5.313,4.604,8.667,4.604
	c1.979,0,4-0.563,5.792-1.771l5.732-3.85l16.491-11.077c-1.773-5.718-4.047-12.739-6.674-20.617l-19.035,12.785L337.396,450.476z"/>
<path style="fill:#2E58FF;" d="M256.208,421.038c-3.979-4.167-10.583-4.313-14.729-0.313c-4.167,3.979-4.292,10.583-0.313,14.729
	c4.833,5.039,43.777,45.632,59.391,59.866c1.685,1.536,3.102,2.769,4.171,3.613c1.896,1.5,4.188,2.229,6.438,2.229
	c3.062,0,6.125-1.375,8.208-3.979c3.563-4.5,2.792-11.063-1.729-14.625c-0.05-0.039-0.114-0.094-0.167-0.136
	C309.727,476.212,276.695,442.394,256.208,421.038z"/>
<path style="fill:#2E58FF;" d="M225.104,452.455c-3.917-4.25-10.479-4.5-14.729-0.625c-4.229,3.896-4.521,10.5-0.625,14.729
	c0.339,0.358,30.903,33.354,48.204,48.852c1.851,1.658,3.552,3.119,5.046,4.315c1.917,1.521,4.229,2.271,6.5,2.271
	c3.042,0,6.083-1.354,8.146-3.896c3.407-4.279,2.908-10.417-1-14.092c-0.202-0.19-0.405-0.378-0.625-0.554
	C263.542,493.476,232.188,460.163,225.104,452.455z"/>
<path style="fill:#2E58FF;" d="M183.375,473.205c-3.938-4.208-10.542-4.438-14.729-0.5c-4.208,3.938-4.417,10.521-0.5,14.729
	c7.046,7.544,28.062,29.836,43.827,44.689c3.347,3.154,6.463,5.979,9.152,8.249c1.958,1.646,4.333,2.458,6.708,2.458
	c2.958,0,5.917-1.271,7.979-3.708c3.616-4.306,3.16-10.645-0.939-14.397c-0.105-0.096-0.202-0.198-0.311-0.291
	C219.708,511.913,189.313,479.559,183.375,473.205z"/>
<path style="fill:#2E58FF;" d="M-32.583,449.08h62.5c4.5,0,8.5-2.896,9.896-7.188c0.211-0.647,1.085-3.33,2.443-7.603
	c1.685-5.301,4.116-13.059,6.964-22.456c8.705-28.728,21.28-72.745,28.204-108.587c1.422-7.358,2.603-14.368,3.466-20.833
	c0.443-3.325,0.807-6.513,1.07-9.521c0.271-3.167-0.896-6.292-3.208-8.458c-17.854-16.917-89.25-22.396-110.708-23.667
	c-2.958-0.146-5.688,0.833-7.771,2.813c-2.083,1.958-3.271,4.708-3.271,7.583v187.5C-43,444.413-38.333,449.08-32.583,449.08z
	 M-22.167,262.33c33.479,2.646,69.604,8.396,82.729,14.771c-5.521,45.625-30.5,126.688-38.25,151.146h-44.479V262.33z"/>
<path style="fill:#2E58FF;" d="M446.583,261.58c-81.792,0-127.167,20.938-129.063,21.813c-2.708,1.271-4.729,3.625-5.563,6.479
	c-0.73,2.5-0.5,5.16,0.618,7.49c0.158,0.33,0.334,0.653,0.528,0.968c2.866,4.615,7.094,13.914,12.017,25.883
	c12.227,29.722,28.751,75.932,39.448,108.011c2.627,7.878,4.901,14.899,6.674,20.617c1.16,3.74,2.109,6.933,2.798,9.427
	c1.25,4.521,5.354,7.646,10.042,7.646h62.5c5.75,0,10.417-4.667,10.417-10.417v-187.5C457,266.226,452.333,261.58,446.583,261.58z
	 M436.167,449.08h-44.292c-9.875-32.167-39.042-116.042-55.313-150.708c15.896-5.396,50.042-14.667,99.604-15.833V449.08z"/>
</svg>
