<?xml version="1.0" encoding="utf-8"?>
<!-- Generator: Adobe Illustrator 23.0.1, SVG Export Plug-In . SVG Version: 6.00 Build 0)  -->
<svg version="1.1" id="Layer_1" xmlns:v="https://vecta.io/nano"
	 xmlns="http://www.w3.org/2000/svg" xmlns:xlink="http://www.w3.org/1999/xlink" x="0px" y="0px" viewBox="0 0 500 500"
	 style="enable-background:new 0 0 500 500;" xml:space="preserve">
<style type="text/css">
	.st0{fill:#DBDDE1;}
	.st1{fill:#A9CAFF;}
	.st2{fill:#000080;}
</style>
<path class="st0" d="M249.1,24.7c3.3,0,6.5,0.9,9.3,2.5l177.2,102.3c5.7,3.3,9.3,9.5,9.3,16.1v204.6c0,6.6-3.6,12.8-9.3,16.1
	L258.4,468.5c-2.8,1.6-6,2.5-9.3,2.5s-6.5-0.9-9.3-2.5L62.7,366.2c-5.7-3.3-9.3-9.5-9.3-16.1V145.5c0-6.6,3.6-12.8,9.3-16.1
	L239.8,27.2C242.7,25.5,245.9,24.7,249.1,24.7 M249.1,8.7c-6,0-11.9,1.5-17.3,4.6L54.7,115.6c-10.7,6.2-17.3,17.6-17.3,29.9v204.6
	c0,12.4,6.6,23.8,17.3,29.9l177.2,102.3c5.4,3.1,11.3,4.6,17.3,4.6s11.9-1.5,17.3-4.6L443.7,380c10.7-6.2,17.3-17.6,17.3-29.9V145.5
	c0-12.4-6.6-23.8-17.3-29.9L266.4,13.3C261.1,10.2,255.1,8.7,249.1,8.7L249.1,8.7L249.1,8.7z"/>
<path class="st1" d="M262.6,145.3v116.8H145.8V145.3H262.6 M272.6,135.3H135.8v136.8h136.8V135.3z"/>
<path class="st2" d="M351.5,213.8v135.6H215.9V213.8H351.5 M362.5,202.8H204.9v157.6h157.6V202.8z"/>
</svg>
