<svg xmlns="http://www.w3.org/2000/svg" viewBox="0 0 500 500" xmlns:v="https://vecta.io/nano"><path d="M443.6 380.07l-177.18 102.3c-10.7 6.18-23.88 6.18-34.58 0L54.67 380.07c-10.7-6.18-17.3-17.6-17.3-29.94v-204.6c0-12.35 6.6-23.77 17.3-29.94L231.84 13.3c10.7-6.18 23.88-6.18 34.58 0L443.6 115.6c10.7 6.18 17.3 17.6 17.3 29.94v204.6c-.01 12.35-6.6 23.77-17.3 29.94z" fill="#3c99f3"/><path d="M426.6 366.96L263.56 461.1a28.84 28.84 0 0 1-28.86 0L71.67 366.96c-8.93-5.15-14.43-14.68-14.43-25V153.7c0-10.3 5.5-19.84 14.43-25L234.7 34.6a28.84 28.84 0 0 1 28.86 0l163.04 94.13a28.86 28.86 0 0 1 14.43 24.99v188.26a28.9 28.9 0 0 1-14.43 24.99z" fill="#2e58ff"/><path d="M135.8 135.33h136.76V272.1H135.8z" fill="#a9caff"/><path d="M204.9 202.8h157.55v157.55H204.9z" fill="#fff"/></svg>