<svg xmlns="http://www.w3.org/2000/svg" viewBox="0 0 500 500" xmlns:v="https://vecta.io/nano"><path d="M437.87 378.57L262.38 479.9a34.24 34.24 0 0 1-34.25 0L52.65 378.57c-10.6-6.12-17.12-17.42-17.12-29.66V146.27a34.27 34.27 0 0 1 17.12-29.66L228.13 15.3a34.24 34.24 0 0 1 34.25 0l175.5 101.32c10.6 6.12 17.12 17.42 17.12 29.66v202.64a34.24 34.24 0 0 1-17.12 29.65z" fill="#3c99f3"/><path d="M421.03 365.58L259.55 458.8a28.56 28.56 0 0 1-28.58 0l-161.5-93.23a28.59 28.59 0 0 1-14.29-24.75V154.37a28.58 28.58 0 0 1 14.29-24.75L230.96 36.4a28.56 28.56 0 0 1 28.58 0l161.48 93.23a28.59 28.59 0 0 1 14.29 24.75v186.46a28.55 28.55 0 0 1-14.28 24.75z" fill="#2e58ff"/><path d="M368.64 253.3c0 24.82-5.67 46-18.08 67.5l-116.9-67.5v-135c74.55 0 134.98 60.44 134.98 135z" fill="#88beff"/><path d="M233.66 141.53v111.8l-96.83 55.9c-9.5-16.45-14.95-35.54-14.95-55.9-.01-61.74 50.03-111.8 111.78-111.8z" fill="#cce4ff"/><path d="M340.64 315.12c-21.37 36.92-61.28 61.75-107 61.75s-85.64-24.83-107-61.75l107-61.78 107 61.78z" fill="#fff"/></svg>