<?xml version="1.0" encoding="utf-8"?>
<!-- Generator: Adobe Illustrator 23.0.1, SVG Export Plug-In . SVG Version: 6.00 Build 0)  -->
<svg version="1.1" id="Layer_1" xmlns:v="https://vecta.io/nano"
	 xmlns="http://www.w3.org/2000/svg" xmlns:xlink="http://www.w3.org/1999/xlink" x="0px" y="0px" viewBox="0 0 500 500"
	 style="enable-background:new 0 0 500 500;" xml:space="preserve">
<style type="text/css">
	.st0{fill:#DBDDE1;}
	.st1{fill:#000080;}
	.st2{fill:#7389DD;}
	.st3{fill:#A9CAFF;}
</style>
<path class="st0" d="M245.3,26.7c3.2,0,6.4,0.9,9.1,2.4l175.5,101.3c5.6,3.3,9.1,9.3,9.1,15.8v202.6c0,6.5-3.5,12.5-9.1,15.8
	L254.4,466c-2.8,1.6-5.9,2.4-9.1,2.4s-6.4-0.9-9.1-2.4L60.7,364.7c-5.6-3.3-9.1-9.3-9.1-15.8V146.3c0-6.5,3.5-12.6,9.1-15.8
	L236.1,29.2C238.9,27.6,242.1,26.7,245.3,26.7 M245.3,10.7c-5.9,0-11.8,1.5-17.1,4.6L52.7,116.6c-10.6,6.1-17.1,17.4-17.1,29.7
	v202.6c0,12.2,6.5,23.5,17.1,29.7l175.5,101.3c5.3,3.1,11.2,4.6,17.1,4.6s11.8-1.5,17.1-4.6l175.5-101.3
	c10.6-6.1,17.1-17.4,17.1-29.7V146.3c0-12.2-6.5-23.5-17.1-29.7L262.4,15.3C257.1,12.2,251.2,10.7,245.3,10.7L245.3,10.7L245.3,10.7
	z"/>
<path class="st1" d="M244.7,129.8c29,2.5,55.9,15,76.7,35.8c23.4,23.4,36.3,54.6,36.3,87.7c0,19.2-3.6,35.7-11.5,52.3L244.7,247
	V129.8 M233.7,118.3v135l24.3,14l92.6,53.5c12.4-21.5,18.1-42.7,18.1-67.5C368.6,178.8,308.2,118.3,233.7,118.3L233.7,118.3
	L233.7,118.3z"/>
<path class="st2" d="M223.7,152v95.5l-82.8,47.8c-5.9-13.1-9-27.5-9-42C131.9,200.6,172.2,157.1,223.7,152 M233.7,141.5
	c-61.8,0-111.8,50.1-111.8,111.8c0,20.4,5.4,39.5,15,55.9l96.8-55.9V141.5L233.7,141.5z"/>
<path class="st3" d="M233.6,271.8l84.1,48.5c-8.2,10.3-18.2,19-29.6,25.7c-16.5,9.7-35.3,14.8-54.5,14.8s-38.1-5.1-54.5-14.8
	c-11.4-6.7-21.4-15.4-29.6-25.7L233.6,271.8 M233.6,253.3l-107,61.8c21.4,36.9,61.3,61.8,107,61.8s85.6-24.8,107-61.8L233.6,253.3
	L233.6,253.3z"/>
</svg>
