<?xml version="1.0" encoding="utf-8"?>
<!-- Generator: Adobe Illustrator 23.0.1, SVG Export Plug-In . SVG Version: 6.00 Build 0)  -->
<svg version="1.1" id="Layer_1" xmlns:v="https://vecta.io/nano"
	 xmlns="http://www.w3.org/2000/svg" xmlns:xlink="http://www.w3.org/1999/xlink" x="0px" y="0px" viewBox="0 0 500 500"
	 style="enable-background:new 0 0 500 500;" xml:space="preserve">
<style type="text/css">
	.st0{fill:#DBDDE1;}
	.st1{fill:#000080;}
	.st2{fill:#7389DD;}
	.st3{fill:#A9CAFF;}
</style>
<path class="st0" d="M239.5,25.3c3.2,0,6.3,0.8,9,2.4L423,128.4c5.6,3.2,9,9.2,9,15.6v201.4c0,6.4-3.5,12.4-9,15.6L248.6,461.9
	c-5.6,3.2-12.5,3.2-18,0L56.1,361.1c-5.6-3.2-9-9.2-9-15.6V144.1c0-6.4,3.5-12.4,9-15.6L230.5,27.7
	C233.3,26.1,236.4,25.3,239.5,25.3 M239.5,9.3c-5.9,0-11.8,1.5-17,4.6L48.1,114.6c-10.5,6.1-17,17.3-17,29.5v201.4
	c0,12.2,6.5,23.4,17,29.5l174.5,100.7c5.3,3,11.1,4.6,17,4.6s11.8-1.5,17-4.6L431,375c10.5-6.1,17-17.3,17-29.5V144.1
	c0-12.2-6.5-23.4-17-29.5L256.6,13.9C251.4,10.9,245.5,9.3,239.5,9.3L239.5,9.3z"/>
<path class="st1" d="M239.8,122.3l90.6,52.3l-89.9,52.3l-90.6-52.3L239.8,122.3 M239.7,109.6l-111.8,65l112.6,65l111.9-65
	L239.7,109.6L239.7,109.6z"/>
<path class="st2" d="M342.2,192.1l-0.9,117.1l-91.8,53.3l0.9-117.1L342.2,192.1 M352.3,174.6l-111.9,65L239.4,380l111.9-65
	L352.3,174.6L352.3,174.6z"/>
<path class="st3" d="M143.7,202.2l80.7,46.6l-0.8,103.6l-80.7-46.6L143.7,202.2 M127.9,174.6L126.8,315l112.6,65l1.1-140.4
	L127.9,174.6L127.9,174.6z"/>
</svg>
