<svg xmlns="http://www.w3.org/2000/svg" viewBox="0 0 500 500" xmlns:v="https://vecta.io/nano"><path d="M431.02 375L256.57 475.72c-10.53 6.08-23.5 6.08-34.04 0L48.07 375c-10.53-6.08-17.02-17.32-17.02-29.48V144.08c0-12.16 6.5-23.4 17.02-29.48L222.52 13.87c10.53-6.08 23.5-6.08 34.04 0L431 114.6c10.53 6.08 17.02 17.32 17.02 29.48V345.5c.01 12.16-6.48 23.4-17 29.5z" fill="#3c99f3"/><path d="M414.28 362.08l-160.53 92.68c-8.8 5.08-19.62 5.08-28.4 0L64.8 362.08a28.41 28.41 0 0 1-14.21-24.61V152.1a28.43 28.43 0 0 1 14.21-24.61l160.53-92.68c8.8-5.08 19.62-5.08 28.4 0l160.53 92.68a28.43 28.43 0 0 1 14.21 24.61v185.36a28.43 28.43 0 0 1-14.21 24.61z" fill="#2e58ff"/><path d="M352.3 174.62l-111.85 65-112.58-65 111.85-65z" fill="#78afff"/><path d="M352.3 174.62l-1.1 140.34-111.85 65 1.1-140.35z" fill="#c2dbff"/><path d="M240.46 239.6l-1.1 140.35-112.58-65 1.1-140.35z" fill="#fff"/></svg>