<?xml version="1.0" encoding="utf-8"?>
<!-- Generator: Adobe Illustrator 23.0.1, SVG Export Plug-In . SVG Version: 6.00 Build 0)  -->
<svg version="1.1" id="Layer_1" xmlns:v="https://vecta.io/nano"
	 xmlns="http://www.w3.org/2000/svg" xmlns:xlink="http://www.w3.org/1999/xlink" x="0px" y="0px" viewBox="0 0 500 500"
	 style="enable-background:new 0 0 500 500;" xml:space="preserve">
<style type="text/css">
	.st0{fill:#A9CAFF;stroke:#A9CAFF;stroke-miterlimit:10;}
	.st1{fill:none;stroke:#A9CAFF;stroke-width:10;stroke-miterlimit:10;}
	.st2{fill:none;stroke:#000080;stroke-width:5;stroke-miterlimit:10;}
	.st3{fill:#7389DD;stroke:#A9CAFF;stroke-miterlimit:10;}
	.st4{fill:none;stroke:#A9CAFF;stroke-width:6;stroke-miterlimit:10;}
	.st5{fill:#FFFFFF;stroke:#A9CAFF;stroke-width:5;stroke-miterlimit:10;}
	.st6{fill:#DBDDE1;}
</style>
<path class="st0" d="M158.3,169h-10.9v194.8h10.9V169z M364.6,146.6H169.8v10.8h194.8V146.6z"/>
<g>
	<path class="st1" d="M153.2,248.6c0,0,4.3-97,102.8-96.3"/>
	<path class="st2" d="M282.8,266.8l73.5,34.5l-18,19.5l21,22.5l-4.5,6l-22.5-22.5l-18,18L282.8,266.8z"/>
</g>
<path class="st0" d="M331.3,135h33.3v33.3h-33.3V135z"/>
<path class="st2" d="M239.3,135.7h33.3V169h-33.3V135.7z M136.5,232h33.3v33.3h-33.3V232z"/>
<g>
	<path class="st3" d="M136.5,330.5h33.3v33.3h-33.3V330.5z"/>
	<path class="st4" d="M137.3,135.7h33.3V169h-33.3V135.7z"/>
	<path class="st5" d="M221.4,266.8l6.6,12.1l12.1,6.6l-12.1,6.6l-6.6,12.1l-6.7-12.1l-12.1-6.6l12.1-6.6L221.4,266.8z M314.8,200.9
		l6.6,12.1l12.1,6.6l-12.1,6.6l-6.6,12.1l-6.7-12.1l-12.1-6.6l12.1-6.6L314.8,200.9z"/>
</g>
<path class="st6" d="M250.6,22.5c3.3,0,6.5,0.9,9.3,2.5l180.4,104.1c5.7,3.3,9.3,9.5,9.3,16.1v208.3c0,6.6-3.6,12.8-9.3,16.1
	L259.9,473.7c-2.8,1.6-6,2.5-9.3,2.5s-6.5-0.9-9.3-2.5L60.9,369.6c-5.7-3.3-9.3-9.5-9.3-16.1V145.2c0-6.6,3.6-12.8,9.3-16.1
	L241.3,25C244.1,23.4,247.3,22.5,250.6,22.5 M250.6,6.5c-6,0-11.9,1.5-17.3,4.6L52.9,115.3c-10.7,6.2-17.3,17.6-17.3,29.9v208.3
	c0,12.4,6.6,23.8,17.3,29.9l180.4,104.1c5.4,3.1,11.3,4.6,17.3,4.6c6,0,11.9-1.5,17.3-4.6l180.4-104.1c10.7-6.2,17.3-17.6,17.3-29.9
	V145.2c0-12.4-6.6-23.8-17.3-29.9L267.9,11.2C262.5,8.1,256.5,6.5,250.6,6.5L250.6,6.5L250.6,6.5z"/>
</svg>
