<svg xmlns="http://www.w3.org/2000/svg" viewBox="0 0 500 500" xmlns:v="https://vecta.io/nano"><path d="M442.45 383.43l-177.18 102.3c-10.7 6.18-23.88 6.18-34.58 0L53.52 383.43c-10.7-6.18-17.3-17.6-17.3-29.94V148.9c0-12.35 6.6-23.77 17.3-29.94L230.7 16.66c10.7-6.18 23.88-6.18 34.58 0l177.18 102.3c10.7 6.18 17.3 17.6 17.3 29.94v204.6a34.62 34.62 0 0 1-17.29 29.95z" fill="#3c99f3"/><path d="M425.45 370.3L262.4 464.44c-8.93 5.15-19.93 5.15-28.86 0L70.52 370.3a28.86 28.86 0 0 1-14.43-24.99V157.06c0-10.3 5.5-19.84 14.43-25l163.04-94.13a28.84 28.84 0 0 1 28.86 0l163.04 94.13a28.86 28.86 0 0 1 14.43 24.99v188.26a28.9 28.9 0 0 1-14.44 24.99z" fill="#2e58ff"/><path d="M153.43 177.54h9.95v178.48h-9.95zM174 156.98h178.48v9.95H174z" fill="#fff"/><g stroke-miterlimit="10"><path d="M158.74 250.53s3.98-88.9 94.22-88.24" fill="none" stroke="#fff" stroke-width="8"/><path d="M277.5 267.12l67.38 31.63-16.5 17.87 19.25 20.63-4.12 5.5-20.63-20.63-16.5 16.5z" fill="#fff" stroke="#a9caff" stroke-width="6"/></g><path d="M321.96 146.36h30.52v30.52h-30.52zm-84.26.66h30.52v30.52H237.7zm-94.22 88.25H174v30.52h-30.52zm0 90.23H174v30.52h-30.52z" fill="#a9caff"/><g stroke-miterlimit="10" stroke="#a9caff"><path d="M144.15 147.02h30.52v30.52H144.15z" fill="none" stroke-width="6"/><path d="M221.2 267.12l6.07 11.08 11.08 6.06-11.08 6.07-6.07 11.08-6.06-11.08-11.1-6.07 11.1-6.06zm85.6-60.38l6.07 11.08 11.08 6.07-11.08 6.06-6.07 11.1-6.06-11.1-11.1-6.06 11.1-6.07z" fill="#fff" stroke-width="5"/></g></svg>