<svg xmlns="http://www.w3.org/2000/svg" viewBox="0 0 500 500" xmlns:v="https://vecta.io/nano"><path d="M447.88 384.64L270.7 486.93c-10.7 6.18-23.88 6.18-34.58 0L58.95 384.64c-10.7-6.18-17.3-17.6-17.3-29.94V150.1c0-12.35 6.6-23.77 17.3-29.94l177.18-102.3c10.7-6.18 23.88-6.18 34.58 0l177.18 102.3c10.7 6.18 17.3 17.6 17.3 29.94v204.6a34.61 34.61 0 0 1-17.3 29.95z" fill="#3c99f3"/><path d="M430.88 371.52l-163.04 94.13c-8.93 5.15-19.93 5.15-28.86 0L75.96 371.52a28.86 28.86 0 0 1-14.43-24.99V158.27c0-10.3 5.5-19.84 14.43-25L239 39.15a28.84 28.84 0 0 1 28.86 0l163.04 94.13a28.86 28.86 0 0 1 14.43 24.99v188.26c-.02 10.3-5.52 19.84-14.45 25z" fill="#2e58ff"/><g fill="#a9caff"><path d="M240.17 132.67h26.5v27.28h-26.5zm-.3 212.2h26.5v27.28h-26.5zM232.3 226.1h42.25v41.62H232.3z"/><path d="M246.06 159.43h14.72v185.63H246.06z"/></g><g fill="#fff"><path d="M139.85 132.96H190v50.15h-50.15zm177 188.8H367v50.15h-50.15z"/><path d="M152.48 183.1s17.7 70.8 88.5 73.75h8.15c19.53 0 38.63 6.66 53.4 19.43 11.46 9.9 21.66 24.45 24 45.47h23.6s-2.2-57.06-55.8-80.32c-12.28-5.33-25.57-8-38.96-8.24-26.9-.48-55.18-5.1-76.34-50.1h-26.55z"/></g></svg>