<?xml version="1.0" encoding="utf-8"?>
<!-- Generator: Adobe Illustrator 23.0.1, SVG Export Plug-In . SVG Version: 6.00 Build 0)  -->
<svg version="1.1" id="Layer_1" xmlns:v="https://vecta.io/nano"
	 xmlns="http://www.w3.org/2000/svg" xmlns:xlink="http://www.w3.org/1999/xlink" x="0px" y="0px" viewBox="0 0 500 500"
	 style="enable-background:new 0 0 500 500;" xml:space="preserve">
<style type="text/css">
	.st0{fill:none;stroke:#000080;stroke-width:10;stroke-miterlimit:10;}
	.st1{fill:#FFFFFF;stroke:#000080;stroke-width:10;stroke-miterlimit:10;}
	.st2{fill:#DBDDE1;}
	.st3{fill:none;stroke:#A9CAFF;stroke-width:10;stroke-miterlimit:10;}
	.st4{fill:#A9CAFF;}
</style>
<g>
	<path class="st0" d="M139.9,173.7c0,0,19.4,77.5,96.9,80.7h8.9c21.4,0,42.3,7.3,58.5,21.3c12.5,10.8,23.7,26.8,26.3,49.8h25.8
		c0,0-2.4-62.5-61.1-87.9c-13.5-5.8-28-8.8-42.6-9c-29.4-0.5-60.4-5.6-83.6-54.8L139.9,173.7L139.9,173.7z"/>
	<path class="st1" d="M126.1,118.8H181v54.9h-54.9V118.8z"/>
	<path class="st0" d="M319.8,325.5h54.9v54.9h-54.9V325.5z"/>
</g>
<path class="st2" d="M250.4,22c3.3,0,6.5,0.9,9.3,2.5l181,104.5c5.7,3.3,9.3,9.5,9.3,16.1v209.1c0,6.6-3.6,12.8-9.3,16.1l-181,104.5
	c-2.8,1.6-6,2.5-9.3,2.5s-6.5-0.9-9.3-2.5L60,370.2c-5.7-3.3-9.3-9.5-9.3-16.1v-209c0-6.6,3.6-12.8,9.3-16.1L241.1,24.4
	C243.9,22.8,247.1,22,250.4,22 M250.4,6c-6,0-11.9,1.5-17.3,4.6L52,115.1c-10.7,6.2-17.3,17.6-17.3,29.9v209.1
	c0,12.4,6.6,23.8,17.3,29.9l181.1,104.5c5.4,3.1,11.3,4.6,17.3,4.6c6,0,11.9-1.5,17.3-4.6L448.8,384c10.7-6.2,17.3-17.6,17.3-29.9
	v-209c0-12.4-6.6-23.8-17.3-29.9L267.7,10.6C262.3,7.5,256.3,6,250.4,6L250.4,6L250.4,6z"/>
<path class="st3" d="M242.3,147.8h16.1V351h-16.1V147.8z"/>
<path class="st4" d="M232.3,223.8h36.3v35.6h-36.3V223.8z"/>
<path class="st3" d="M235.9,118.5h29v29.9h-29V118.5z M235.5,350.8h29v29.9h-29V350.8z"/>
</svg>
