<svg xmlns="http://www.w3.org/2000/svg" viewBox="0 0 500 500" xmlns:v="https://vecta.io/nano"><path d="M246.27 29.62a18.2 18.2 0 0 1 9.05 2.42l174.72 100.88c5.58 3.22 9.05 9.23 9.05 15.67v201.75c0 6.44-3.47 12.45-9.05 15.67L255.32 466.9c-2.75 1.6-5.88 2.42-9.05 2.42a18.2 18.2 0 0 1-9.05-2.42L62.5 366.02c-5.58-3.22-9.05-9.23-9.05-15.67V148.6c0-6.44 3.47-12.45 9.05-15.67L237.22 32.05c2.75-1.6 5.88-2.43 9.05-2.43m0-16a34.04 34.04 0 0 0-17.05 4.57L54.5 119.06a34.1 34.1 0 0 0-17.05 29.53v201.75a34.1 34.1 0 0 0 17.05 29.53l174.72 100.88c5.27 3.05 11.16 4.57 17.05 4.57a34.04 34.04 0 0 0 17.05-4.57l174.72-100.88a34.1 34.1 0 0 0 17.05-29.53V148.6a34.1 34.1 0 0 0-17.05-29.53L263.32 18.2a34.07 34.07 0 0 0-17.05-4.57h0z" fill="#dbdde1"/><path d="M311.12 153.67l39.28 65.4-37 66.7-76.27 1.32-39.28-65.4 37-66.7 76.27-1.32m6.16-11.1l-88.97 1.54-43.15 77.82 45.82 76.28 88.97-1.54 43.15-77.82-45.82-76.28z" fill="navy"/><path d="M245.85 215.52v42.96l27.1-1.24-8.05 40.25.86 2.54 11.6 34.4-55.76-13.28-2.95 1.2-51.76 20.82-25.03-72.97 24.9-10.93.55-42.8 36.9 16.34 3.96-1.65 37.67-15.63m10-14.98l-51.5 21.4-46.82-20.73-.67 51.5-27.42 12.04 31.44 91.63 61.53-24.75 70.23 16.72-17.4-51.5 10.03-50.16-29.43 1.34v-47.5z" fill="#7389dd"/></svg>