<svg xmlns="http://www.w3.org/2000/svg" viewBox="0 0 500 500" xmlns:v="https://vecta.io/nano"><path d="M438.04 379.87L263.32 480.75a34.11 34.11 0 0 1-34.1 0L54.5 379.87a34.1 34.1 0 0 1-17.05-29.53V148.6a34.1 34.1 0 0 1 17.05-29.53L229.22 18.2a34.11 34.11 0 0 1 34.1 0l174.72 100.88a34.1 34.1 0 0 1 17.05 29.53v201.75c0 12.18-6.5 23.43-17.05 29.52z" fill="#3c99f3"/><path d="M421.27 366.94L260.5 459.76a28.48 28.48 0 0 1-28.46 0L71.26 366.94a28.45 28.45 0 0 1-14.23-24.65V156.64a28.46 28.46 0 0 1 14.23-24.65l160.78-92.82a28.48 28.48 0 0 1 28.46 0L421.27 132a28.45 28.45 0 0 1 14.23 24.65V342.3c0 10.16-5.42 19.56-14.23 24.64z" fill="#2e58ff"/><path d="M230.97 298.2l-45.8-76.28 43.15-77.82 88.97-1.54 45.82 76.28-43.16 77.82z" fill="#a9caff"/><path d="M129.44 264.75l27.42-12.04.67-51.5 46.82 20.73 51.5-21.4v47.5l29.43-1.34-10.03 50.16 17.4 51.5-70.23-16.72-61.54 24.75z" fill="#fff"/></svg>