<?xml version="1.0" encoding="utf-8"?>
<!-- Generator: Adobe Illustrator 23.0.1, SVG Export Plug-In . SVG Version: 6.00 Build 0)  -->
<svg version="1.1" id="Layer_1" xmlns:v="https://vecta.io/nano"
	 xmlns="http://www.w3.org/2000/svg" xmlns:xlink="http://www.w3.org/1999/xlink" x="0px" y="0px" viewBox="0 0 500 500"
	 style="enable-background:new 0 0 500 500;" xml:space="preserve">
<style type="text/css">
	.st0{fill:#DBDDE1;}
	.st1{fill:#7389DD;}
	.st2{fill:#A9CAFF;}
	.st3{fill:#000080;}
</style>
<path class="st0" d="M243.1,28.1c3.2,0,6.4,0.9,9.2,2.5l175.9,101.6c5.7,3.3,9.2,9.3,9.2,15.9v203.1c0,6.5-3.5,12.6-9.2,15.9
	L252.2,468.5c-2.8,1.6-5.9,2.5-9.2,2.5c-3.2,0-6.4-0.8-9.2-2.5L58,367c-5.7-3.3-9.2-9.3-9.2-15.9V148c0-6.5,3.5-12.6,9.2-15.9
	L233.9,30.6C236.7,29,239.8,28.1,243.1,28.1 M243.1,12.1c-6,0-11.9,1.6-17.2,4.6L50,118.3c-10.6,6.1-17.2,17.5-17.2,29.7v203.1
	c0,12.3,6.5,23.6,17.2,29.7l175.9,101.5c5.2,3,11.1,4.6,17.2,4.6c6,0,11.9-1.6,17.2-4.6l175.9-101.6c10.6-6.1,17.2-17.5,17.2-29.7
	V148c0-12.3-6.5-23.6-17.2-29.7L260.2,16.8C254.9,13.7,249,12.1,243.1,12.1L243.1,12.1L243.1,12.1z"/>
<path class="st1" d="M346.5,146.1V353H139.6V146.1H346.5 M356.5,136.1H129.6V363h226.9V136.1z"/>
<path class="st2" d="M207.2,187.4c12,4,40.1,14.2,65.5,23.6l5.3,1.9l5.3-1.8l57.3-19V347H145.6l0.3-111L207.2,187.4 M356.5,170.1
	L278.3,196c0,0-70-25.9-73.5-25.9S130,228.5,130,228.5l-0.4,134.6h226.9V170.1L356.5,170.1z"/>
<path class="st3" d="M206.3,244l71.4,25.2l3.6-1.2l63.9-21.2l0.4,105.2H140.6l0-56.6L206.3,244 M356.1,231.7l-78.3,26l-73.5-25.9
	l-74.7,58.4l0,73h226.9L356.1,231.7L356.1,231.7z"/>
</svg>
