<svg xmlns="http://www.w3.org/2000/svg" viewBox="0 0 500 500" xmlns:v="https://vecta.io/nano"><path d="M436.1 380.85L260.22 482.4c-10.62 6.13-23.7 6.13-34.32 0L50 380.85a34.32 34.32 0 0 1-17.16-29.73v-203.1c0-12.26 6.54-23.6 17.16-29.73L225.9 16.75c10.62-6.13 23.7-6.13 34.32 0L436.1 118.3a34.32 34.32 0 0 1 17.16 29.73v203.1c0 12.26-6.54 23.6-17.16 29.72z" fill="#3c99f3"/><path d="M419.23 367.83l-161.85 93.44a28.64 28.64 0 0 1-28.65 0L66.9 367.83a28.66 28.66 0 0 1-14.32-24.81v-186.9a28.65 28.65 0 0 1 14.32-24.81l161.85-93.44a28.64 28.64 0 0 1 28.65 0l161.85 93.44a28.66 28.66 0 0 1 14.32 24.81v186.9c0 10.24-5.46 19.7-14.33 24.8z" fill="#2e58ff"/><path d="M129.6 136.1h226.94v226.94H129.6z" fill="#88beff"/><path d="M130 228.46h0s71.17-58.4 74.72-58.4 73.54 25.95 73.54 25.95l78.28-25.95v192.97H129.6l.4-134.58z" fill="#cce4ff"/><path d="M129.57 290.04l74.72-58.4 73.54 25.95 78.28-25.95.44 131.4H129.6z" fill="#fff"/></svg>