<?xml version="1.0" encoding="utf-8"?>
<!-- Generator: Adobe Illustrator 23.0.1, SVG Export Plug-In . SVG Version: 6.00 Build 0)  -->
<svg version="1.1" id="Layer_1" xmlns:v="https://vecta.io/nano"
	 xmlns="http://www.w3.org/2000/svg" xmlns:xlink="http://www.w3.org/1999/xlink" x="0px" y="0px" viewBox="0 0 500 500"
	 style="enable-background:new 0 0 500 500;" xml:space="preserve">
<style type="text/css">
	.st0{fill:#DBDDE1;}
	.st1{fill:#000080;}
	.st2{fill:#A9CAFF;}
</style>
<path class="st0" d="M241.8,27.8c3.3,0,6.5,0.9,9.3,2.5l177.3,102.3c5.7,3.3,9.3,9.5,9.3,16.1v204.7c0,6.6-3.6,12.8-9.3,16.1
	L251,471.9c-2.8,1.6-6,2.5-9.3,2.5s-6.5-0.9-9.3-2.5L55.2,369.5c-5.7-3.3-9.3-9.5-9.3-16.1V148.7c0-6.6,3.6-12.8,9.3-16.1
	L232.4,30.3C235.3,28.6,238.5,27.8,241.8,27.8 M241.8,11.8c-6,0-11.9,1.5-17.3,4.6L47.2,118.8c-10.7,6.2-17.3,17.6-17.3,30v204.7
	c0,12.4,6.6,23.8,17.3,30l177.3,102.4c5.3,3,11.2,4.6,17.3,4.6c6,0,11.9-1.5,17.3-4.6l177.3-102.4c10.7-6.2,17.3-17.6,17.3-30V148.7
	c0-12.4-6.6-23.8-17.3-30L259,16.4C253.7,13.3,247.7,11.8,241.8,11.8L241.8,11.8L241.8,11.8z"/>
<path class="st1" d="M250.4,184.8l114.8,66.5l-115,66.2L250.4,184.8 M239.4,165.7l-0.2,170.8l148-85.2L239.4,165.7L239.4,165.7z"/>
<path class="st2" d="M149,183l117.8,68.2l-118,67.9L149,183 M139.1,165.7l-0.2,170.8l148-85.2L139.1,165.7L139.1,165.7z"/>
</svg>
