<svg xmlns="http://www.w3.org/2000/svg" viewBox="0 0 500 500" xmlns:v="https://vecta.io/nano"><path d="M436.32 383.38L259.04 485.73c-10.7 6.18-23.9 6.18-34.6 0L47.17 383.38c-10.7-6.18-17.3-17.6-17.3-29.96v-204.7c0-12.36 6.6-23.78 17.3-29.96L224.45 16.4c10.7-6.18 23.9-6.18 34.6 0l177.28 102.35c10.7 6.18 17.3 17.6 17.3 29.96v204.7c0 12.36-6.6 23.78-17.3 29.96z" fill="#3c99f3"/><path d="M419.3 370.25l-163.13 94.18c-8.93 5.16-19.94 5.16-28.87 0L64.18 370.25a28.89 28.89 0 0 1-14.44-25.01V156.88a28.87 28.87 0 0 1 14.44-25.01L227.3 37.7c8.93-5.16 19.94-5.16 28.87 0l163.13 94.18a28.89 28.89 0 0 1 14.44 25.01v188.36c0 10.3-5.5 19.85-14.44 25z" fill="#2e58ff"/><path d="M387.24 251.23l-147.98 85.22.18-170.77 73.9 42.77z" fill="#a9caff"/><path d="M286.85 251.23l-147.98 85.22.18-170.77 73.9 42.77z" fill="#fff"/></svg>