<svg xmlns="http://www.w3.org/2000/svg" viewBox="0 0 50 50" xmlns:v="https://vecta.io/nano"><path d="M9.1 26.5H.2c.7 12.8 11.1 22.9 23.9 23.4v-8.7c0-1.8-1.2-3.4-2.9-3.9-3.9-1.2-7-4.2-8.4-8.1-.5-1.6-2-2.7-3.7-2.7z" fill="#2e58ff"/><path d="M14.9 26.5c.7 4.7 4.5 8.3 9.3 8.7v-5.5c0-1.8-1.4-3.2-3.2-3.2H14.9z" fill="#a9caff"/><path d="M41.9 23.5h7.9C49.1 11.2 39.3 1.2 27.1.2v8.1c0 2.1 1.2 4.1 3.2 4.9 3 1.3 5.4 3.8 6.7 6.9.7 2.1 2.7 3.4 4.9 3.4z" fill="#2e58ff"/><path d="M35.1 23.5c-.6-4.3-3.9-7.7-8.1-8.6v6a2.65 2.65 0 0 0 2.6 2.6h5.5zm-11-16V.2C11.3.6.9 10.8.2 23.5h7.6c2.3 0 4.5-1.4 5.4-3.5 1.3-3.2 3.9-5.7 7.2-7 2.2-.8 3.7-3 3.7-5.5z" fill="#a9caff"/><path d="M24.1 14.8c-4.8.4-8.6 4.1-9.3 8.7h5.9c1.9.0 3.4-1.5 3.4-3.4V14.8v0z" fill="#2e58ff"/><path d="M27.1 41.4v8.4c12.3-1 22-10.9 22.8-23.3h-8.2c-2.1 0-3.9 1.3-4.7 3.2-1.3 3.2-3.7 5.8-6.9 7.1-1.9.8-3 2.6-3 4.6z" fill="#a9caff"/><path d="M27.1 35c4.2-.9 7.5-4.3 8.1-8.6H30c-1.6.0-3 1.3-3 3L27.1 35v0z" fill="#2e58ff"/></svg>