<svg xmlns="http://www.w3.org/2000/svg" viewBox="0 0 50 50" xmlns:v="https://vecta.io/nano"><path d="M44.7 22.9c0 11.7-9.5 21.1-21.1 21.1-11.7 0-21.1-9.5-21.1-21.1C2.5 11.2 12 1.8 23.6 1.8a21.04 21.04 0 0 1 21.1 21.1h0z" fill="#a9caff"/><path d="M39.6 16.2C35.9 7.4 25.8 3.2 17 6.9 8.2 10.5 4 20.7 7.6 29.5c3.7 8.8 13.8 13 22.6 9.4 8.9-3.7 13-13.8 9.4-22.7h0z" fill="#fff"/><path d="M23.6 44.7c-12 0-21.8-9.8-21.8-21.8S11.6 1 23.6 1s21.8 9.8 21.8 21.8-9.8 21.9-21.8 21.9h0zm0-42.2c-11.3 0-20.4 9.2-20.4 20.4 0 11.3 9.2 20.4 20.4 20.4 11.3 0 20.4-9.2 20.4-20.4A20.36 20.36 0 0 0 23.6 2.5h0zm-1.4 31.7c-3.1-.5-5.3-2.4-5.6-5.5 0-.3.2-.6.6-.6h2.4c.3 0 .5.2.6.5.2 1.1.7 1.9 1.7 2.4.4.2.8-.1.8-.5v-5.9c0-.3-.2-.5-.4-.5-2.8-.8-5.7-1.8-5.7-6.1 0-3.5 2.3-5.9 5.6-6.4.3 0 .5-.3.5-.6V9.3a.65.65 0 0 1 .6-.6h.7a.65.65 0 0 1 .6.6v1.6c0 .3.2.5.5.6 2.9.4 4.9 2.2 5.3 5.3 0 .3-.2.6-.6.6h-2.4c-.3 0-.5-.2-.6-.5-.2-.8-.6-1.5-1.4-2-.4-.2-.9 0-.9.5V21c0 .3.2.5.4.5 2.8.8 5.6 1.8 5.6 6.1 0 3-2 5.9-5.6 6.5-.3 0-.5.3-.5.6v1.6a.65.65 0 0 1-.6.6H23a.65.65 0 0 1-.6-.6v-1.6c.3-.2.1-.5-.2-.5h0zm.5-14.1v-5c0-.4-.4-.7-.7-.5-1.2.4-2 1.4-2 3.1 0 1.5.8 2.4 1.9 2.9.3.2.8-.1.8-.5h0zm1.9 5.4v5c0 .4.4.7.8.5 1.2-.5 1.9-1.7 1.9-3.1 0-1.5-.8-2.3-1.9-2.9-.4-.2-.8.1-.8.5h0z" fill="#2e58ff"/><path d="M44.7 39.7V23.2a.68.68 0 0 0-.7-.7h-6.7a.68.68 0 0 0-.7.7v16.5a.68.68 0 0 1-.7.7H34c-.6 0-.9.8-.5 1.2l6.4 6.4c.3.3.7.3 1 0l6.4-6.4c.4-.4.1-1.2-.5-1.2h-1.4a.68.68 0 0 1-.7-.7h0z" fill="#a9caff"/><path d="M40.4 49c-.4 0-.7-.1-1-.4L33 42.1c-.4-.4-.5-1-.3-1.5s.7-.9 1.3-.9h1.8V23.2c0-.8.6-1.4 1.4-1.4h6.7c.8 0 1.4.6 1.4 1.4v16.5h1.4c.6 0 1.1.3 1.3.9.2.5.1 1.1-.3 1.5l-6.4 6.4c-.2.3-.5.5-.9.5h0zM34 41.2l6.4 6.4 6.4-6.4h-1.4c-.8 0-1.4-.6-1.4-1.4V23.2h-6.7v16.5c0 .8-.6 1.4-1.4 1.4H34z" fill="#2e58ff"/></svg>