<svg xmlns="http://www.w3.org/2000/svg" viewBox="0 0 50 50" xmlns:v="https://vecta.io/nano"><style><![CDATA[.F{fill:#2e58ff}.G{fill:#a9caff}]]></style><g class="F"><path d="M25 16.7a.68.68 0 0 1-.7-.7v-2.2a.68.68 0 0 1 .7-.7.68.68 0 0 1 .7.7V16a.68.68 0 0 1-.7.7h0zM25 37a.68.68 0 0 1-.7-.7V34a.68.68 0 0 1 .7-.7.68.68 0 0 1 .7.7v2.2c0 .5-.3.8-.7.8h0zm-8.2-15.9L14.9 20c-.3-.2-.5-.6-.3-1 .2-.3.6-.5 1-.3l1.9 1.1c.3.2.5.6.3 1s-.6.5-1 .3h0zm17.6 10.2l-1.9-1.1c-.3-.2-.5-.6-.3-1 .2-.3.6-.5 1-.3l1.9 1.1c.3.2.5.6.3 1-.2.3-.7.5-1 .3h0z"/><path d="M14.6 31c-.2-.3-.1-.8.3-1l1.9-1.1c.3-.2.8-.1 1 .3.2.3.1.8-.3 1l-1.9 1.1c-.3.2-.8 0-1-.3h0zm17.6-10.2c-.2-.3-.1-.8.3-1l1.9-1.1c.3-.2.8-.1 1 .3.2.3.1.8-.3 1l-1.9 1.1c-.4.2-.8.1-1-.3h0z"/><path d="M34 25c0 5-4 9-9 9-5 0-9-4-9-9 0-5 4-9 9-9 5 0 9 4 9 9v0z"/></g><path d="M27.7 21.2a2.69 2.69 0 1 1-5.4 0 2.69 2.69 0 1 1 5.4 0h0z" fill="#fff"/><path d="M26.5 23.9h-3c-1.6 0-2.9 1.3-2.9 2.9v3.3a.47.47 0 0 0 .5.5h7.8a.47.47 0 0 0 .5-.5v-3.3c0-1.6-1.3-2.9-2.9-2.9h0zm17.4 6.2a2.7 2.7 0 1 1-5.4 0 2.69 2.69 0 0 1 2.7-2.7c1.5.1 2.7 1.3 2.7 2.7h0z" class="G"/><path d="M42.7 32.8h-3c-1.6.0-2.9 1.3-2.9 2.9V38c0 .3.2.5.5.5h7.8c.3.0.5-.2.5-.5v-2.3C45.6 34.1 44.3 32.8 42.7 32.8v0z" class="F"/><path d="M11.5 30.1a2.69 2.69 0 0 1-2.7 2.7 2.69 2.69 0 1 1 0-5.4c1.5 0 2.7 1.3 2.7 2.7h0z" class="G"/><path d="M10.3 32.8h-3c-1.6.0-2.9 1.3-2.9 2.9V38c0 .3.2.5.5.5h7.8c.3.0.5-.2.5-.5v-2.3C13.2 34.1 11.9 32.8 10.3 32.8v0z" class="F"/><path d="M43.9 13.2a2.69 2.69 0 1 1-5.4 0 2.69 2.69 0 0 1 2.7-2.7c1.5.1 2.7 1.3 2.7 2.7h0z" class="G"/><path d="M42.7 15.9h-3c-1.6.0-2.9 1.3-2.9 2.9v2.3c0 .3.2.5.5.5h7.8c.3.0.5-.2.5-.5v-2.3C45.6 17.2 44.3 15.9 42.7 15.9v0z" class="F"/><path d="M11.5 13.2c0 1.5-1.2 2.7-2.7 2.7s-2.7-1.2-2.7-2.7c0-1.5 1.2-2.7 2.7-2.7S11.5 11.8 11.5 13.2v0z" class="G"/><path d="M10.3 15.9h-3c-1.6.0-2.9 1.3-2.9 2.9v2.3c0 .3.2.5.5.5h7.8c.3.0.5-.2.5-.5v-2.3C13.2 17.2 11.9 15.9 10.3 15.9v0z" class="F"/><path d="M27.7 3.6a2.69 2.69 0 1 1-5.4 0 2.69 2.69 0 1 1 5.4 0h0z" class="G"/><path d="M26.5 6.3h-3c-1.6.0-2.9 1.3-2.9 2.9v2.3c0 .3.2.5.5.5h7.8c.3.0.5-.2.5-.5V9.2C29.4 7.6 28.1 6.3 26.5 6.3v0z" class="F"/><path d="M27.7 40.8a2.69 2.69 0 1 1-5.4 0 2.69 2.69 0 1 1 5.4 0h0z" class="G"/><path d="M26.5 43.5h-3c-1.6.0-2.9 1.3-2.9 2.9v2.3c0 .3.2.5.5.5h7.8c.3.0.5-.2.5-.5v-2.3C29.4 44.7 28.1 43.5 26.5 43.5v0z" class="F"/></svg>