<svg xmlns="http://www.w3.org/2000/svg" viewBox="0 0 50 50" xmlns:v="https://vecta.io/nano"><path d="M22.6 49.2H2.5c-1 0-1.7-.8-1.7-1.7V27.4c0-1 .8-1.7 1.7-1.7h20.1c1 0 1.7.8 1.7 1.7v20.1c0 .9-.8 1.7-1.7 1.7z" fill="#a9caff"/><path d="M47.5 37.5H14.3c-1 0-1.7-.8-1.7-1.7V2.5c0-1 .8-1.7 1.7-1.7h33.3c1 0 1.7.8 1.7 1.7v33.3c0 1-.8 1.7-1.8 1.7z" fill="#2e58ff"/><g fill="#e4e6e9"><path d="M16.5 34.1c-.3.1-.6-.2-.5-.5l1.6-6c.1-.3.5-.4.7-.2l4.4 4.4c.2.2.1.6-.2.7l-6 1.6zM45.3 4.2c.3-.1.6.2.5.5l-1.6 6c-.1.3-.5.4-.7.2l-4.4-4.4c-.2-.2-.1-.6.2-.7l6-1.6z"/><path d="M19.562 28.938L40.988 7.513l1.556 1.556-21.425 21.425z"/></g></svg>