<svg xmlns="http://www.w3.org/2000/svg" xmlns:xlink="http://www.w3.org/1999/xlink" viewBox="0 0 50 50" xmlns:v="https://vecta.io/nano"><g fill-rule="evenodd"><path d="M45.8 24.3c0-10.7-8.7-19.4-19.4-19.4S7.1 13.6 7.1 24.3s8.7 19.4 19.4 19.4V24.3H45.8z" fill="#a9caff"/><g fill="#d4daf0"><path d="M26.5 24.3V4.9s8.6-.2 14.3 6.1c2.6 2.9 5 6.9 5 13.3H26.5z"/><path d="M26.5 24.3v19.4s-8.6.2-14.3-6.1c-2.6-2.9-5-6.9-5-13.3h19.3z"/></g></g><g fill="#2e58ff"><path d="M4 24.4V22l.1-.7c.2-1.8.7-3.5 1.3-5.2.2-.4.3-.8.5-1.2l.9-1.8.4-.6c.1-.2.2-.4.4-.6.1-.2.3-.4.4-.6l1.6-2.1c.2 0 .4-.2.5-.3l.5-.5c.3-.3.6-.6 1-.9.2-.1.3-.3.5-.4s.3-.3.5-.4c.3-.3.7-.5 1-.8.2-.1.4-.2.5-.4.2-.1.4-.2.5-.4l1.2-.6c1.5-.8 3.1-1.4 4.6-1.9 1.6-.4 3.2-.7 4.7-.8h3.6c.4 0 .7.1 1.1.1.7.1 1.5.2 2.1.4l1 .3c.2 0 .3.1.5.2s.3.1.5.2c1.3.4 2.5 1 3.6 1.6s2.1 1.3 3 1.9c.9.7 1.7 1.4 2.4 2.1s1.3 1.4 1.8 2c.1.2.2.3.4.5a1.38 1.38 0 0 0 .3.4c.2.3.4.6.6.8a.76.76 0 0 1 .2.4c.1.1.1.2.2.4.1.1.1.2.2.3s.1.2.2.3c.1.2.2.4.3.5s.1.3.2.4c.1.2.2.3.2.3l.2-.1s0-.1-.1-.3c0-.1-.1-.2-.2-.4s-.2-.3-.3-.5c-.1-.1-.1-.2-.2-.3s-.1-.2-.2-.3-.1-.2-.2-.4a.76.76 0 0 1-.2-.4l-.6-.9c-.1-.2-.2-.3-.3-.5s-.2-.3-.4-.5c-1-1.3-2.3-2.8-4.1-4.2-.9-.7-1.9-1.4-3-2.1-1.1-.6-2.3-1.2-3.7-1.7-.2-.1-.3-.1-.5-.2-.3 0-.4-.1-.6-.1-.3-.1-.7-.2-1.1-.3-.7-.2-1.5-.3-2.2-.5-.4-.1-.8-.1-1.1-.1-.2 0-.4 0-.6-.1h-3c-3.3.1-6.7 1-9.8 2.6l-1.2.6c-.2.1-.4.2-.6.4-.2.1-.4.2-.5.4-.4.3-.8.5-1.1.8-.2.1-.4.3-.5.4-.2.1-.4.3-.5.4-.4.3-.7.6-1 .9-.3.2-.5.4-.6.5l-.5.5c-.6.7-1.2 1.4-1.8 2.2-.1.2-.3.4-.4.6s-.3.4-.4.6l-.4.6c-.1.2-.2.4-.4.6l-.6 1.2c-.2.4-.4.9-.6 1.3-.7 1.8-1.2 3.6-1.5 5.5l-.1.7v.8c0 .2 0 .5-.1.7v3.5a26.61 26.61 0 0 0 1.2 5.6c0 .1.1.2.1.3l.2.5c.1.2.2.4.3.7.1.2.2.4.3.7l.3.6c.1.4.3.8.6 1.2l.3.6c.1.2.2.4.4.6.2.4.5.8.8 1.2.1.2.3.4.4.6s.3.4.4.5c.2.1.3.3.5.5s.3.4.5.5c.3.3.6.7 1 1 1.3 1.3 2.7 2.4 4.2 3.3 0 0 .1 0 .1.1h0s.1.1.3.2c0 0 .1 0 .1.1l2.4 1.2c.1 0 .2.1.3.1s.2.1.3.1c.4.1.8.3 1.2.4.9.3 1.8.5 2.7.7 2.2.5 4.8.8 7.4.6 5.4-.5 8.7-2.3 10.2-3.3l3.4 3.8 5-11.9-12.5 3.5 2.8 3.2c-9 5.4-18.3 1.9-20.9.8-.1 0-.1-.1-.2-.1-.2-.1-.4-.2-.5-.3-.2-.1-.3-.2-.5-.3s-.3-.2-.5-.3c-1.4-.9-2.7-1.9-3.9-3l-.9-.9c-.1-.1-.3-.3-.4-.5s-.3-.3-.4-.5-.3-.3-.4-.5-.3-.3-.4-.5c-.2-.3-.5-.7-.7-1.1-.1-.2-.2-.4-.4-.5l-.3-.6c-.2-.4-.4-.8-.6-1.1l-.6-1.2c-.1-.2-.2-.4-.2-.6l-.1-.3c0-.1-.1-.2-.1-.3-.6-1.7-1-3.4-1.2-5.2l-.1-.7v-1.6c-.4-.2-.4-.2-.4-.3h0z"/><use xlink:href="#B" fill-rule="evenodd"/><path d="M34.5 19.2l-.3-5.5-2.4 3.2-3.1-1 .1-.3 2.9 1 2.7-3.6.4 5.4 2.2-3.3 3.4-.2v.2l-3.3.2z"/><g fill-rule="evenodd"><circle cx="28.8" cy="15.8" r=".4"/><path d="M31.3 16.7c0-.2.2-.4.4-.4s.4.2.4.4-.2.4-.4.4-.4-.1-.4-.4z"/><use xlink:href="#B" x="0.2" y="5.6"/><use xlink:href="#B" x="2.7" y="2"/><use xlink:href="#B" x="6" y="1.8"/></g><path d="M40.9 20.1H27.5v-9.7h.2V20h13.2z"/><path d="M27.2 11.1h.4v.1h-.4zm0 .6h.4v.1h-.4zm0 .6h.4v.1h-.4zm0 .7h.4v.1h-.4zm0 .6h.4v.1h-.4zm0 .6h.4v.1h-.4zm0 .7h.4v.1h-.4zm0 .6h.4v.1h-.4zm0 .7h.4v.1h-.4zm0 .6h.4v.1h-.4zm0 .6h.4v.1h-.4zm0 .7h.4v.1h-.4zm0 .6h.4v.1h-.4zm0 .6h.4v.1h-.4z"/></g><text transform="translate(12.364 35.143)" fill="#2e58ff" font-family="myriadpro-regular" font-size="10.91">%</text><g fill="#2e58ff"><path d="M18.4 11.7v-.6h.6c.1 0 .2-.1.2-.2v-.5c0-.1-.1-.2-.2-.2h-2.8c-.1 0-.2.1-.2.2v.5c0 .1.1.2.2.2h.8v.6c-2 .3-3.6 2.1-3.6 4.3 0 2.4 1.9 4.3 4.3 4.3s4.3-2 4.3-4.3c0-2.2-1.6-4-3.6-4.3h0zm-.7 7.7c-1.9 0-3.5-1.6-3.5-3.5s1.6-3.5 3.5-3.5 3.5 1.6 3.5 3.5-1.6 3.5-3.5 3.5h0zM14 11.9c-.4.3-.4.9 0 1.3l1.3-1.2c-.4-.4-1-.4-1.3-.1h0z"/><path d="M17.7 19.1h0v-.5.5zm1.4-.4l-.2-.4.2.4zm-2.9 0h0l.2-.4-.2.4zm4-1.1l-.2-.1.2.1zm-5.1 0h0l.4-.3-.4.3zm5.6-1.5h-.5.5zm-6 0h0zm5.2-1.2h0l.4-.3-.4.3zm-4.4 0l-.4-.2.4.2zm3.5-1h0l.2-.4-.2.2.1-.2-.1.4zm-2.6 0l-.2-.4.2.4zm1.3-.3h0v-.5.5z"/><path d="M18.2 16.1h0V16l-.2-.8-.2-1-.2 1-.2.8v.2a.47.47 0 0 0 .5.5c.1-.1.3-.3.3-.6h0z" fill-rule="evenodd"/></g><text transform="translate(27.208 35.089)" fill="#a9caff" font-family="myanmartext-bold" font-size="8.939">LIVE</text><defs ><path id="B" d="M34 13.2c0-.2.2-.4.4-.4s.4.2.4.4-.2.4-.4.4-.4-.2-.4-.4z"/></defs></svg>